{
.appVersion = "3197";
classes = (
{
automatic = 1;
code = "";
name = xxxx;
}
);
copyright = "Copyright © 2017 by Lokal Container. All rights reserved.";
customParameters = (
{
name = "Use Typo Metrics";
value = 1;
},
{
name = fsType;
value = (
3
);
},
{
name = "Disable Last Change";
value = 1;
},
{
name = "Use Line Breaks";
value = 1;
},
{
name = "Family Alignment Zones";
value = (
"{790, 10}",
"{729, 10}",
"{557, 10}",
"{0, -10}",
"{-167, -10}"
);
},
{
name = "Use Extension Kerning";
value = 1;
},
{
name = "Variable Font Origin";
value = "47995495-C855-4C5A-BA32-118EA0334940";
},
{
name = vendorID;
value = LC;
},
{
name = license;
value = "This Font Software is licensed under the SIL Open Font License, Version 1.1. This license is available with a FAQ at: http://scripts.sil.org/OFL";
},
{
name = licenseURL;
value = "https://scripts.sil.org/OFL";
},
{
name = sampleText;
value = "Texte in Point & Millimeter";
},
{
name = Axes;
value = (
{
Hidden = 1;
Name = Weight;
Tag = wght;
}
);
}
);
date = "2017-05-31 03:56:58 +0000";
designer = "Deni Anggara";
designerURL = "https://degarism.com";
familyName = "BDO Grotesk";
featurePrefixes = (
{
automatic = 1;
code = "languagesystem DFLT dflt;

languagesystem latn dflt;
languagesystem latn AZE;
languagesystem latn CRT;
languagesystem latn KAZ;
languagesystem latn TAT;
languagesystem latn TRK;
languagesystem latn ROM;
languagesystem latn MOL;
languagesystem latn CAT;
languagesystem latn NLD;
";
name = Languagesystems;
}
);
features = (
{
automatic = 1;
code = "feature locl;
feature subs;
feature sinf;
feature sups;
feature numr;
feature dnom;
feature frac;
feature ordn;
feature pnum;
feature tnum;
feature calt;
feature case;
feature ss01;
feature ss02;
feature ss03;
feature ss04;
feature ss05;
feature ss06;
feature ss07;
";
name = aalt;
},
{
automatic = 1;
code = "lookup ccmp_DFLT_1 {
	lookupflag 0;
	sub brevecomb acutecomb by brevecomb_acutecomb;
	sub brevecomb gravecomb by brevecomb_gravecomb;

glyphs = (
{
color = 3;
glyphname = A;
layers = (
{
anchors = (
{
name = bottom;
position = "{357, 0}";
},
{
name = ogonek;
position = "{700, 0}";
},
{
name = top;
position = "{357, 729}";
}
);
layerId = "F114AD5B-DC62-4E73-AD12-1938E40AC8EF";
paths = (
{
closed = 1;
nodes = (
"82 0 LINE",
"323 588 LINE SMOOTH",
"335 618 OFFCURVE",
"348 647 OFFCURVE",
"360 681 CURVE",
"352 681 LINE",
"364 647 OFFCURVE",
"377 618 OFFCURVE",
"389 588 CURVE SMOOTH",
"632 0 LINE",
"700 0 LINE",
"397 729 LINE",
"317 729 LINE",
"14 0 LINE"
);
},
{
closed = 1;
nodes = (
"560 209 LINE",
"536 265 LINE",
"176 265 LINE",
"153 209 LINE"
);
}
);
width = 714;
},
{
anchors = (
{
name = bottom;
position = "{391, 0}";
},
{
name = ogonek;
position = "{773, 0}";
},
{
name = top;
position = "{391, 729}";
}
);
layerId = "E787E54A-EE3E-475A-BF02-8501A6DA5144";
paths = (
{
closed = 1;
nodes = (
"206 0 LINE",
"360 444 LINE SMOOTH",
"371 476 OFFCURVE",
"381 508 OFFCURVE",
"395 562 CURVE",
"383 562 LINE",
"397 508 OFFCURVE",
"406 476 OFFCURVE",
"417 444 CURVE SMOOTH",
"568 0 LINE",
"773 0 LINE",
"499 729 LINE",
"281 729 LINE",
"8 0 LINE"
);
},
{
closed = 1;
nodes = (
"540 127 LINE",
"484 284 LINE",
"292 284 LINE",
"235 127 LINE"
);
}
);
width = 781;
},
{
anchors = (
{
name = bottom;
position = "{369, 0}";
},
{
name = ogonek;
position = "{725, 0}";
},
{
name = top;
position = "{369, 729}";
}
);
layerId = "47995495-C855-4C5A-BA32-118EA0334940";
paths = (
{
closed = 1;
nodes = (
"123 0 LINE",
"331 524 LINE SMOOTH",
"346 562 OFFCURVE",
"360 601 OFFCURVE",
"376 648 CURVE",
"362 648 LINE",
"378 601 OFFCURVE",
"392 562 OFFCURVE",
"407 524 CURVE SMOOTH",
"614 0 LINE",
"725 0 LINE",
"431 729 LINE",
"308 729 LINE",
"14 0 LINE"
);
},
{
closed = 1;
nodes = (
"554 186 LINE",
"519 277 LINE",
"218 277 LINE",
"182 186 LINE"
);
}
);
width = 739;
}
);
leftKerningGroup = KO_A;
rightKerningGroup = KO_A;
rightMetricsKey = "=|";
unicode = 0041;
userData = {
KernOnName = A;
};
},
{
glyphname = AE;
layers = (
{
anchors = (
{
name = bottom;
position = "{1088, 0}";
},
{
name = ogonek;
position = "{1108, 10}";
},
{
name = top;
position = "{591, 729}";
},
{
name = topleft;
position = "{544, 729}";
}
);
layerId = "F114AD5B-DC62-4E73-AD12-1938E40AC8EF";
paths = (
{
closed = 1;
nodes = (
"486 336 LINE",
"857 336 LINE",
"857 395 LINE",
"486 395 LINE",
"486 666 LINE",
"919 666 LINE",
"919 729 LINE",
"283 729 LINE",
"14 0 LINE",
"83 0 LINE",
"159 215 LINE",
"421 215 LINE",
"421 0 LINE",
"929 0 LINE",
"929 63 LINE",
"486 63 LINE"
);
},
{
closed = 1;
nodes = (
"319 666 LINE",
"421 666 LINE",
"421 272 LINE",
"179 272 LINE"
);
}
);
width = 957;
},
{
anchors = (
{
name = bottom;
position = "{1099, 0}";
},
{
name = ogonek;
position = "{1149, 10}";
},
{
name = top;
position = "{605, 729}";
},
{
name = topleft;
position = "{626, 729}";
}
);
layerId = "E787E54A-EE3E-475A-BF02-8501A6DA5144";
paths = (
{
closed = 1;
nodes = (
"679 282 LINE",
"953 282 LINE",
"953 442 LINE",
"679 442 LINE",
"679 557 LINE",
"1008 557 LINE",
"1008 729 LINE",
"243 729 LINE",
"8 0 LINE",
"217 0 LINE",
"260 144 LINE",
"476 144 LINE",
"476 0 LINE",
"1018 0 LINE",
"1018 172 LINE",
"679 172 LINE"
);
},
{
closed = 1;
nodes = (
"384 557 LINE",
"476 557 LINE",
"476 298 LINE",
"307 298 LINE"
);
}
);
width = 1055;
},
{
anchors = (
{
name = bottom;
position = "{1093, 0}";
},
{
name = ogonek;
position = "{1123, 10}";
},
{
name = top;
position = "{598, 729}";
},
{
name = topleft;
position = "{572, 729}";
}
);
layerId = "47995495-C855-4C5A-BA32-118EA0334940";
paths = (
{
closed = 1;
nodes = (
"548 319 LINE",
"889 319 LINE",
"889 410 LINE",
"548 410 LINE",
"548 633 LINE",
"948 633 LINE",
"948 729 LINE",
"272 729 LINE",
"14 0 LINE",
"127 0 LINE",
"192 193 LINE",
"440 193 LINE",
"440 0 LINE",
"958 0 LINE",
"958 96 LINE",
"548 96 LINE"
);
},
{
closed = 1;
nodes = (
"341 633 LINE",
"440 633 LINE",
"440 280 LINE",
"221 280 LINE"
);
}
);
width = 986;
}
);
leftKerningGroup = KO_A;
leftMetricsKey = "=A";
rightKerningGroup = KO_AE;
rightMetricsKey = "=E";
unicode = 00C6;
},
{
color = 3;
glyphname = B;
layers = (
{
anchors = (
{
name = bottom;
position = "{347, 0}";
},
{
name = top;
position = "{347, 729}";
}
);
layerId = "F114AD5B-DC62-4E73-AD12-1938E40AC8EF";
paths = (
{
closed = 1;
nodes = (
"406 0 LINE SMOOTH",
"556 0 OFFCURVE",
"650 77 OFFCURVE",
"650 198 CURVE SMOOTH",
"650 284 OFFCURVE",
"601 356 OFFCURVE",
"476 379 CURVE",
"476 370 LINE",
"585 394 OFFCURVE",
"631 463 OFFCURVE",
"631 544 CURVE SMOOTH",
"631 652 OFFCURVE",
"551 729 OFFCURVE",
"408 729 CURVE SMOOTH",
"86 729 LINE",
"86 0 LINE"
);
},
{
closed = 1;
nodes = (
"151 683 LINE",
"135 667 LINE",
"408 667 LINE SMOOTH",
"501 667 OFFCURVE",
"564 618 OFFCURVE",
"564 534 CURVE SMOOTH",
"564 456 OFFCURVE",
"510 403 OFFCURVE",
"408 403 CURVE SMOOTH",
"136 403 LINE",
"136 342 LINE",
"411 342 LINE SMOOTH",
"517 342 OFFCURVE",
"581 294 OFFCURVE",
"581 203 CURVE SMOOTH",
"581 125 OFFCURVE",
"535 63 OFFCURVE",
"411 63 CURVE SMOOTH",
"135 63 LINE",
"151 47 LINE"
);
}
);
width = 694;
},
{
anchors = (
{
name = bottom;
position = "{368, 0}";
},
{
name = top;
position = "{368, 729}";
}
);
layerId = "E787E54A-EE3E-475A-BF02-8501A6DA5144";
paths = (
{
closed = 1;
nodes = (
"436 0 LINE SMOOTH",
"605 0 OFFCURVE",
"700 81 OFFCURVE",
"700 202 CURVE SMOOTH",
"700 305 OFFCURVE",
"632 374 OFFCURVE",
"532 383 CURVE",
"532 374 LINE",
"627 396 OFFCURVE",
"679 457 OFFCURVE",
"679 541 CURVE SMOOTH",
"679 653 OFFCURVE",
"600 729 OFFCURVE",
"445 729 CURVE SMOOTH",
"63 729 LINE",
"63 0 LINE"
);
},
{
closed = 1;
nodes = (
"256 586 LINE",
"243 573 LINE",
"395 573 LINE SMOOTH",
"446 573 OFFCURVE",
"480 558 OFFCURVE",
"480 509 CURVE SMOOTH",
"480 470 OFFCURVE",
"460 444 OFFCURVE",
"395 444 CURVE SMOOTH",
"240 444 LINE",
"240 301 LINE",
"400 301 LINE SMOOTH",
"474 301 OFFCURVE",
"497 272 OFFCURVE",
"497 229 CURVE SMOOTH",
"497 174 OFFCURVE",
"458 156 OFFCURVE",
"400 156 CURVE SMOOTH",
"240 156 LINE",
"256 140 LINE"
);
}
);
width = 736;
},
{
anchors = (
{
name = bottom;
position = "{359, 0}";
},
{
name = top;
position = "{359, 729}";
}
);
layerId = "47995495-C855-4C5A-BA32-118EA0334940";
paths = (
{
closed = 1;
nodes = (
"422 0 LINE SMOOTH",
"574 0 OFFCURVE",
"673 78 OFFCURVE",
"673 202 CURVE SMOOTH",
"673 286 OFFCURVE",
"622 357 OFFCURVE",
"509 382 CURVE",
"509 370 LINE",
"611 400 OFFCURVE",
"653 464 OFFCURVE",
"653 543 CURVE SMOOTH",
"653 652 OFFCURVE",
"571 729 OFFCURVE",
"427 729 CURVE SMOOTH",
"86 729 LINE",
"86 0 LINE"
);
},
{
closed = 1;
nodes = (
"190 655 LINE",
"173 638 LINE",
"411 638 LINE SMOOTH",
"491 638 OFFCURVE",
"544 600 OFFCURVE",
"544 527 CURVE SMOOTH",
"544 461 OFFCURVE",
"501 418 OFFCURVE",
"411 418 CURVE SMOOTH",
"174 418 LINE",
"174 327 LINE",
"414 327 LINE SMOOTH",
"511 327 OFFCURVE",
"561 286 OFFCURVE",
"561 210 CURVE SMOOTH",
"561 139 OFFCURVE",
"518 92 OFFCURVE",
"414 92 CURVE SMOOTH",
"173 92 LINE",
"190 75 LINE"
);
}
);
width = 717;
}
);
leftKerningGroup = KO_H;
leftMetricsKey = "=H";
rightKerningGroup = KO_B;
unicode = 0042;
userData = {
KernOnName = B;
};
},
{
color = 3;
glyphname = C;
layers = (
{
anchors = (
{
name = bottom;
position = "{359, 0}";
},
{
name = top;
position = "{359, 729}";
}
);
background = {
paths = (
{
closed = 1;
nodes = (
"611 239 LINE",
"590 126 OFFCURVE",
"508 51 OFFCURVE",
"372 51 CURVE SMOOTH",
"213 51 OFFCURVE",
"110 176 OFFCURVE",
"110 365 CURVE SMOOTH",
"110 553 OFFCURVE",
"213 677 OFFCURVE",
"372 677 CURVE SMOOTH",
"497 677 OFFCURVE",
"587 605 OFFCURVE",
"611 492 CURVE",
"676 500 LINE",
"650 646 OFFCURVE",
"531 738 OFFCURVE",
"372 738 CURVE SMOOTH",
"174 738 OFFCURVE",
"41 586 OFFCURVE",
"41 365 CURVE SMOOTH",
"41 141 OFFCURVE",
"175 -10 OFFCURVE",
"372 -10 CURVE SMOOTH",
"533 -10 OFFCURVE",
"654 84 OFFCURVE",
"676 231 CURVE"
);
}
);
};
layerId = "F114AD5B-DC62-4E73-AD12-1938E40AC8EF";
paths = (
{
closed = 1;
nodes = (
"533 -10 OFFCURVE",
"653 77 OFFCURVE",
"676 231 CURVE",
"611 239 LINE",
"590 126 OFFCURVE",
"519 51 OFFCURVE",
"372 51 CURVE SMOOTH",
"204 51 OFFCURVE",
"110 165 OFFCURVE",
"110 365 CURVE SMOOTH",
"110 565 OFFCURVE",
"204 677 OFFCURVE",
"372 677 CURVE SMOOTH",
"491 677 OFFCURVE",
"582 625 OFFCURVE",
"611 492 CURVE",
"676 500 LINE",
"651 643 OFFCURVE",
"550 738 OFFCURVE",
"372 738 CURVE SMOOTH",
"173 738 OFFCURVE",
"41 603 OFFCURVE",
"41 364 CURVE SMOOTH",
"41 140 OFFCURVE",
"160 -10 OFFCURVE",
"372 -10 CURVE SMOOTH"
);
}
);
width = 717;
},
{
anchors = (
{
name = bottom;
position = "{381, 0}";
},
{
name = top;
position = "{381, 729}";
}
);
background = {
paths = (
{
closed = 1;
nodes = (
"574 -10 OFFCURVE",
"716 98 OFFCURVE",
"721 264 CURVE",
"526 285 LINE",
"525 205 OFFCURVE",
"465 156 OFFCURVE",
"388 156 CURVE SMOOTH",
"300 156 OFFCURVE",
"241 226 OFFCURVE",
"241 361 CURVE SMOOTH",
"241 499 OFFCURVE",
"296 572 OFFCURVE",
"393 572 CURVE SMOOTH",
"468 572 OFFCURVE",
"523 524 OFFCURVE",
"527 442 CURVE",
"721 470 LINE",
"712 630 OFFCURVE",
"579 738 OFFCURVE",
"394 738 CURVE SMOOTH",
"179 738 OFFCURVE",
"37 589 OFFCURVE",
"37 362 CURVE SMOOTH",
"37 139 OFFCURVE",
"174 -10 OFFCURVE",
"391 -10 CURVE SMOOTH"
);
}
);
};
layerId = "E787E54A-EE3E-475A-BF02-8501A6DA5144";
paths = (
{
closed = 1;
nodes = (
"575 -10 OFFCURVE",
"711 89 OFFCURVE",
"725 264 CURVE",
"530 285 LINE",
"520 201 OFFCURVE",
"466 161 OFFCURVE",
"386 161 CURVE SMOOTH",
"281 161 OFFCURVE",
"241 243 OFFCURVE",
"241 365 CURVE SMOOTH",
"241 510 OFFCURVE",
"299 567 OFFCURVE",
"386 567 CURVE SMOOTH",
"472 567 OFFCURVE",
"517 517 OFFCURVE",
"527 442 CURVE",
"721 470 LINE",
"704 631 OFFCURVE",
"583 738 OFFCURVE",
"386 738 CURVE SMOOTH",
"149 738 OFFCURVE",
"37 589 OFFCURVE",
"37 365 CURVE SMOOTH",
"37 110 OFFCURVE",
"176 -10 OFFCURVE",
"386 -10 CURVE SMOOTH"
);
}
);
width = 762;
},
{
anchors = (
{
name = bottom;
position = "{368, 0}";
},
{
name = top;
position = "{368, 729}";
}
);
background = {
paths = (
{
closed = 1;
nodes = (
"586 254 LINE",
"571 150 OFFCURVE",
"496 84 OFFCURVE",
"379 84 CURVE SMOOTH",
"241 84 OFFCURVE",
"151 192 OFFCURVE",
"151 364 CURVE SMOOTH",
"151 536 OFFCURVE",
"240 645 OFFCURVE",
"380 645 CURVE SMOOTH",
"489 645 OFFCURVE",
"568 580 OFFCURVE",
"586 476 CURVE",
"691 491 LINE",
"670 641 OFFCURVE",
"547 738 OFFCURVE",
"380 738 CURVE SMOOTH",
"177 738 OFFCURVE",
"41 587 OFFCURVE",
"41 364 CURVE SMOOTH",
"41 141 OFFCURVE",
"176 -10 OFFCURVE",
"379 -10 CURVE SMOOTH",
"546 -10 OFFCURVE",
"674 88 OFFCURVE",
"691 242 CURVE"
);
}
);
};
layerId = "47995495-C855-4C5A-BA32-118EA0334940";
paths = (
{
closed = 1;
nodes = (
"546 -10 OFFCURVE",
"672 81 OFFCURVE",
"694 242 CURVE",
"589 254 LINE",
"571 153 OFFCURVE",
"501 86 OFFCURVE",
"378 86 CURVE SMOOTH",
"242 86 OFFCURVE",
"151 175 OFFCURVE",
"151 365 CURVE SMOOTH",
"151 532 OFFCURVE",
"224 643 OFFCURVE",
"379 643 CURVE SMOOTH",
"486 643 OFFCURVE",
"566 590 OFFCURVE",
"586 476 CURVE",
"693 491 LINE",
"672 639 OFFCURVE",
"558 738 OFFCURVE",
"380 738 CURVE SMOOTH",
"177 738 OFFCURVE",
"41 604 OFFCURVE",
"41 365 CURVE SMOOTH",
"41 140 OFFCURVE",
"161 -10 OFFCURVE",
"375 -10 CURVE SMOOTH"
);
}
);
width = 735;
}
);
leftKerningGroup = KO_O;
leftMetricsKey = "=O";
rightKerningGroup = KO_C;
rightMetricsKey = "=O";
unicode = 0043;
},
{
color = 3;
glyphname = D;
layers = (
{
anchors = (
{
name = bottom;
position = "{371, 0}";
},
{
name = center;
position = "{151, 365}";
},
{
name = top;
position = "{371, 729}";
}
);
layerId = "F114AD5B-DC62-4E73-AD12-1938E40AC8EF";
paths = (
{
closed = 1;
nodes = (
"375 0 LINE SMOOTH",
"581 0 OFFCURVE",
"700 147 OFFCURVE",
"700 364 CURVE SMOOTH",
"700 581 OFFCURVE",
"582 729 OFFCURVE",
"375 729 CURVE SMOOTH",
"86 729 LINE",
"86 0 LINE"
);
},
{
closed = 1;
nodes = (
"151 681 LINE",
"136 666 LINE",
"377 666 LINE SMOOTH",
"530 666 OFFCURVE",
"631 554 OFFCURVE",
"631 364 CURVE SMOOTH",
"631 189 OFFCURVE",
"541 63 OFFCURVE",
"377 63 CURVE SMOOTH",
"136 63 LINE",
"151 48 LINE"
);
}
);
width = 741;
},
{
anchors = (
{
name = bottom;
position = "{384, 0}";
},
{
name = center;
position = "{184, 365}";
},
{
name = top;
position = "{384, 729}";
}
);
background = {
anchors = (
{
name = bottom;
position = "{397, 0}";
},
{
name = center;
position = "{397, 365}";
},
{
name = top;
position = "{412, 729}";
}
);
paths = (
{
closed = 1;
nodes = (
"382 0 LINE SMOOTH",
"605 0 OFFCURVE",
"730 146 OFFCURVE",
"730 364 CURVE SMOOTH",
"730 598 OFFCURVE",
"591 729 OFFCURVE",
"382 729 CURVE SMOOTH",
"63 729 LINE",
"63 0 LINE"
);
},
{
closed = 1;
nodes = (
"256 567 LINE",
"367 567 LINE SMOOTH",
"483 567 OFFCURVE",
"528 487 OFFCURVE",
"528 368 CURVE SMOOTH",
"528 220 OFFCURVE",
"464 162 OFFCURVE",
"367 162 CURVE SMOOTH",
"256 162 LINE"
);
}
);
};
layerId = "E787E54A-EE3E-475A-BF02-8501A6DA5144";
paths = (
{
closed = 1;
nodes = (
"382 0 LINE SMOOTH",
"605 0 OFFCURVE",
"730 146 OFFCURVE",
"730 364 CURVE SMOOTH",
"730 598 OFFCURVE",
"591 729 OFFCURVE",
"382 729 CURVE SMOOTH",
"63 729 LINE",
"63 0 LINE"
);
},
{
closed = 1;
nodes = (
"256 592 LINE",
"231 567 LINE",
"367 567 LINE SMOOTH",
"483 567 OFFCURVE",
"528 487 OFFCURVE",
"528 368 CURVE SMOOTH",
"528 220 OFFCURVE",
"464 162 OFFCURVE",
"367 162 CURVE SMOOTH",
"231 162 LINE",
"256 137 LINE"
);
}
);
width = 767;
},
{
anchors = (
{
name = bottom;
position = "{379, 0}";
},
{
name = center;
position = "{168, 365}";
},
{
name = top;
position = "{379, 729}";
}
);
layerId = "47995495-C855-4C5A-BA32-118EA0334940";
paths = (
{
closed = 1;
nodes = (
"384 0 LINE SMOOTH",
"595 0 OFFCURVE",
"716 147 OFFCURVE",
"716 364 CURVE SMOOTH",
"716 586 OFFCURVE",
"591 729 OFFCURVE",
"384 729 CURVE SMOOTH",
"86 729 LINE",
"86 0 LINE"
);
},
{
closed = 1;
nodes = (
"190 657 LINE",
"168 635 LINE",
"381 635 LINE SMOOTH",
"522 635 OFFCURVE",
"606 533 OFFCURVE",
"606 365 CURVE SMOOTH",
"606 199 OFFCURVE",
"524 94 OFFCURVE",
"381 94 CURVE SMOOTH",
"168 94 LINE",
"190 72 LINE"
);
}
);
width = 757;
}
);
leftKerningGroup = KO_H;
leftMetricsKey = "=H";
rightKerningGroup = KO_O;
rightMetricsKey = "=O";
unicode = 0044;
},
{
color = 3;
glyphname = E;
layers = (
{
anchors = (
{
name = bottom;
position = "{330, 0}";
},
{
name = ogonek;
position = "{632, 0}";
},
{
name = top;
position = "{330, 729}";
},
{
name = topleft;
position = "{20, 729}";
}
);
layerId = "F114AD5B-DC62-4E73-AD12-1938E40AC8EF";
paths = (
{
closed = 1;
nodes = (
"632 0 LINE",
"632 60 LINE",
"151 60 LINE",
"151 669 LINE",
"602 669 LINE",
"602 729 LINE",
"86 729 LINE",
"86 0 LINE"
);
},
{
closed = 1;
nodes = (
"562 346 LINE",
"562 404 LINE",
"137 404 LINE",
"137 346 LINE"
);
}
);
width = 660;
},
{
anchors = (
{
name = bottom;
position = "{331, 0}";
},
{
name = ogonek;
position = "{625, 0}";
},
{
name = top;
position = "{331, 729}";
},
{
name = topleft;
position = "{20, 729}";
}
);
layerId = "E787E54A-EE3E-475A-BF02-8501A6DA5144";
paths = (
{
closed = 1;
nodes = (
"625 0 LINE",
"625 162 LINE",
"256 162 LINE",
"256 569 LINE",
"595 569 LINE",
"595 729 LINE",
"63 729 LINE",
"63 0 LINE"
);
},
{
closed = 1;
nodes = (
"549 291 LINE",
"549 448 LINE",
"240 448 LINE",
"240 291 LINE"
);
}
);
width = 662;
},
{
anchors = (
{
name = bottom;
position = "{332, 0}";
},
{
name = ogonek;
position = "{636, 0}";
},
{
name = top;
position = "{332, 729}";
},
{
name = topleft;
position = "{20, 729}";
}
);
layerId = "47995495-C855-4C5A-BA32-118EA0334940";
paths = (
{
closed = 1;
nodes = (
"636 0 LINE",
"636 92 LINE",
"190 92 LINE",
"190 638 LINE",
"606 638 LINE",
"606 729 LINE",
"86 729 LINE",
"86 0 LINE"
);
},
{
closed = 1;
nodes = (
"565 329 LINE",
"565 417 LINE",
"174 417 LINE",
"174 329 LINE"
);
}
);
width = 664;
}
);
leftKerningGroup = KO_H;
rightKerningGroup = KO_E;
unicode = 0045;
userData = {
KernOnName = E;
};
},
{
glyphname = Schwa;
layers = (
{
anchors = (
{
name = bottom;
position = "{395, 20}";
},
{
name = ogonek;
position = "{582, 10}";
},
{
name = top;
position = "{357, 513}";
}
);
layerId = "F114AD5B-DC62-4E73-AD12-1938E40AC8EF";
paths = (
{
closed = 1;
nodes = (
"200 739 OFFCURVE",
"69 657 OFFCURVE",
"41 534 CURVE",
"105 528 LINE",
"125 618 OFFCURVE",
"228 679 OFFCURVE",
"348 679 CURVE SMOOTH",
"506 679 OFFCURVE",
"605 581 OFFCURVE",
"605 374 CURVE",
"48 374 LINE",
"45 344 OFFCURVE",
"44 335 OFFCURVE",
"44 320 CURVE SMOOTH",
"44 129 OFFCURVE",
"148 -10 OFFCURVE",
"350 -10 CURVE SMOOTH",
"538 -10 OFFCURVE",
"671 111 OFFCURVE",
"671 363 CURVE SMOOTH",
"671 599 OFFCURVE",
"555 739 OFFCURVE",
"354 739 CURVE SMOOTH"
);
},
{
closed = 1;
nodes = (
"215 52 OFFCURVE",
"112 126 OFFCURVE",
"112 317 CURVE",
"605 317 LINE",
"600 148 OFFCURVE",
"504 52 OFFCURVE",
"350 52 CURVE SMOOTH"
);
}
);
width = 712;
},
{
anchors = (
{
name = bottom;
position = "{351, -16}";
},
{
name = ogonek;
position = "{601, 10}";
},
{
name = top;
position = "{377, 549}";
}
);
layerId = "E787E54A-EE3E-475A-BF02-8501A6DA5144";
paths = (
{
closed = 1;
nodes = (
"211 739 OFFCURVE",
"85 652 OFFCURVE",
"46 495 CURVE",
"243 467 LINE",
"257 525 OFFCURVE",
"302 562 OFFCURVE",
"377 562 CURVE SMOOTH",
"463 562 OFFCURVE",
"517 516 OFFCURVE",
"517 419 CURVE",
"43 419 LINE",
"39 406 OFFCURVE",
"37 379 OFFCURVE",
"37 351 CURVE SMOOTH",
"37 127 OFFCURVE",
"167 -10 OFFCURVE",
"380 -10 CURVE SMOOTH",
"603 -10 OFFCURVE",
"733 141 OFFCURVE",
"733 372 CURVE SMOOTH",
"733 607 OFFCURVE",
"601 739 OFFCURVE",
"385 739 CURVE SMOOTH"
);
},
{
closed = 1;
nodes = (
"326 161 OFFCURVE",
"263 179 OFFCURVE",
"256 267 CURVE",
"514 267 LINE",
"501 201 OFFCURVE",
"454 161 OFFCURVE",
"380 161 CURVE SMOOTH"
);
}
);
width = 770;
},
{
anchors = (
{
name = bottom;
position = "{381, 9}";
},
{
name = ogonek;
position = "{587, 10}";
},
{
name = top;
position = "{363, 524}";
}
);
layerId = "47995495-C855-4C5A-BA32-118EA0334940";
paths = (
{
closed = 1;
nodes = (
"206 739 OFFCURVE",
"75 659 OFFCURVE",
"42 522 CURVE",
"147 509 LINE",
"166 589 OFFCURVE",
"250 643 OFFCURVE",
"357 643 CURVE SMOOTH",
"492 643 OFFCURVE",
"577 561 OFFCURVE",
"577 388 CURVE",
"46 388 LINE",
"42 363 OFFCURVE",
"41 346 OFFCURVE",
"41 329 CURVE SMOOTH",
"41 129 OFFCURVE",
"153 -10 OFFCURVE",
"359 -10 CURVE SMOOTH",
"557 -10 OFFCURVE",
"689 120 OFFCURVE",
"689 366 CURVE SMOOTH",
"689 601 OFFCURVE",
"569 739 OFFCURVE",
"363 739 CURVE SMOOTH"
);
},
{
closed = 1;
nodes = (
"250 85 OFFCURVE",
"158 142 OFFCURVE",
"156 301 CURVE",
"577 301 LINE",
"569 164 OFFCURVE",
"488 85 OFFCURVE",
"359 85 CURVE SMOOTH"
);
}
);
width = 730;
}
);
leftKerningGroup = KO_O;
leftMetricsKey = "=O";
rightKerningGroup = KO_O;
rightMetricsKey = "=O";
unicode = 018F;
},
{
color = 3;
glyphname = F;
layers = (
{
anchors = (
{
name = bottom;
position = "{302, 0}";
},
{
name = top;
position = "{302, 729}";
}
);
layerId = "F114AD5B-DC62-4E73-AD12-1938E40AC8EF";
paths = (
{
closed = 1;
nodes = (
"151 0 LINE",
"151 669 LINE",
"590 669 LINE",
"590 729 LINE",
"86 729 LINE",
"86 0 LINE"
);
},
{
closed = 1;
nodes = (
"548 338 LINE",
"548 396 LINE",
"137 396 LINE",
"137 338 LINE"
);
}
);
width = 604;
},
{
anchors = (
{
name = bottom;
position = "{313, 0}";
},
{
name = top;
position = "{313, 729}";
}
);
layerId = "E787E54A-EE3E-475A-BF02-8501A6DA5144";
paths = (
{
closed = 1;
nodes = (
"256 0 LINE",
"256 567 LINE",
"594 567 LINE",
"594 729 LINE",
"63 729 LINE",
"63 0 LINE"
);
},
{
closed = 1;
nodes = (
"537 276 LINE",
"537 439 LINE",
"240 439 LINE",
"240 276 LINE"
);
}
);
width = 626;
},
{
anchors = (
{
name = bottom;
position = "{306, 0}";
},
{
name = top;
position = "{306, 729}";
}
);
layerId = "47995495-C855-4C5A-BA32-118EA0334940";
paths = (
{
closed = 1;
nodes = (
"190 0 LINE",
"190 637 LINE",
"598 637 LINE",
"598 729 LINE",
"86 729 LINE",
"86 0 LINE"
);
},
{
closed = 1;
nodes = (
"551 319 LINE",
"551 409 LINE",
"174 409 LINE",
"174 319 LINE"
);
}
);
width = 612;
}
);
leftKerningGroup = KO_H;
leftMetricsKey = "=H";
rightKerningGroup = KO_F;
unicode = 0046;
},
{
color = 3;
glyphname = G;
layers = (
{
anchors = (
{
name = bottom;
position = "{380, 0}";
},
{
name = top;
position = "{380, 729}";
}
);
background = {
paths = (
{
closed = 1;
nodes = (
"475 -10 OFFCURVE",
"577 45 OFFCURVE",
"623 158 CURVE",
"635 0 LINE",
"689 0 LINE",
"689 370 LINE",
"397 370 LINE",
"397 312 LINE",
"620 312 LINE",
"620 161 OFFCURVE",
"516 53 OFFCURVE",
"362 53 CURVE SMOOTH",
"209 53 OFFCURVE",
"110 170 OFFCURVE",
"110 361 CURVE SMOOTH",
"110 547 OFFCURVE",
"205 674 OFFCURVE",
"376 674 CURVE SMOOTH",
"501 674 OFFCURVE",
"591 606 OFFCURVE",
"615 492 CURVE",
"681 500 LINE",
"654 646 OFFCURVE",
"535 738 OFFCURVE",
"378 738 CURVE SMOOTH",
"173 738 OFFCURVE",
"41 585 OFFCURVE",
"41 357 CURVE SMOOTH",
"41 136 OFFCURVE",
"165 -10 OFFCURVE",
"360 -10 CURVE SMOOTH"
);
}
);
};
layerId = "F114AD5B-DC62-4E73-AD12-1938E40AC8EF";
paths = (
{
closed = 1;
nodes = (
"495 -10 OFFCURVE",
"594 62 OFFCURVE",
"627 170 CURVE",
"622 171 LINE",
"635 0 LINE",
"689 0 LINE",
"689 370 LINE",
"397 370 LINE",
"397 312 LINE",
"620 312 LINE",
"620 157 OFFCURVE",
"518 53 OFFCURVE",
"366 53 CURVE SMOOTH",
"204 53 OFFCURVE",
"110 165 OFFCURVE",
"110 365 CURVE SMOOTH",
"110 565 OFFCURVE",
"204 677 OFFCURVE",
"374 677 CURVE SMOOTH",
"503 677 OFFCURVE",
"590 610 OFFCURVE",
"615 492 CURVE",
"681 500 LINE",
"655 643 OFFCURVE",
"543 738 OFFCURVE",
"374 738 CURVE SMOOTH",
"173 738 OFFCURVE",
"41 603 OFFCURVE",
"41 364 CURVE SMOOTH",
"41 140 OFFCURVE",
"160 -10 OFFCURVE",
"359 -10 CURVE SMOOTH"
);
}
);
width = 760;
},
{
anchors = (
{
name = bottom;
position = "{404, 0}";
},
{
name = top;
position = "{404, 729}";
}
);
background = {
paths = (
{
closed = 1;
nodes = (
"468 -10 OFFCURVE",
"554 27 OFFCURVE",
"591 93 CURVE",
"603 0 LINE",
"758 0 LINE",
"758 403 LINE",
"405 403 LINE",
"405 257 LINE",
"547 257 LINE",
"537 188 OFFCURVE",
"482 151 OFFCURVE",
"405 151 CURVE SMOOTH",
"306 151 OFFCURVE",
"241 213 OFFCURVE",
"241 358 CURVE SMOOTH",
"241 481 OFFCURVE",
"287 567 OFFCURVE",
"406 567 CURVE SMOOTH",
"488 567 OFFCURVE",
"547 524 OFFCURVE",
"556 452 CURVE",
"754 490 LINE",
"726 640 OFFCURVE",
"602 738 OFFCURVE",
"412 738 CURVE SMOOTH",
"162 738 OFFCURVE",
"37 580 OFFCURVE",
"37 350 CURVE SMOOTH",
"37 120 OFFCURVE",
"168 -10 OFFCURVE",
"363 -10 CURVE SMOOTH"
);
}
);
};
layerId = "E787E54A-EE3E-475A-BF02-8501A6DA5144";
paths = (
{
closed = 1;
nodes = (
"475 -10 OFFCURVE",
"565 32 OFFCURVE",
"598 106 CURVE",
"589 108 LINE",
"603 0 LINE",
"758 0 LINE",
"758 403 LINE",
"405 403 LINE",
"405 257 LINE",
"547 257 LINE",
"537 188 OFFCURVE",
"482 151 OFFCURVE",
"405 151 CURVE SMOOTH",
"306 151 OFFCURVE",
"241 213 OFFCURVE",
"241 358 CURVE SMOOTH",
"241 481 OFFCURVE",
"287 567 OFFCURVE",
"406 567 CURVE SMOOTH",
"488 567 OFFCURVE",
"547 524 OFFCURVE",
"556 452 CURVE",
"754 490 LINE",
"726 640 OFFCURVE",
"602 738 OFFCURVE",
"412 738 CURVE SMOOTH",
"162 738 OFFCURVE",
"37 580 OFFCURVE",
"37 350 CURVE SMOOTH",
"37 120 OFFCURVE",
"168 -10 OFFCURVE",
"363 -10 CURVE SMOOTH"
);
}
);
width = 808;
},
{
anchors = (
{
name = bottom;
position = "{393, 0}";
},
{
name = top;
position = "{393, 729}";
}
);
background = {
paths = (
{
closed = 1;
nodes = (
"478 -10 OFFCURVE",
"572 40 OFFCURVE",
"615 138 CURVE",
"627 0 LINE",
"713 0 LINE",
"713 381 LINE",
"401 381 LINE",
"401 295 LINE",
"600 295 LINE",
"596 169 OFFCURVE",
"506 83 OFFCURVE",
"375 83 CURVE SMOOTH",
"241 83 OFFCURVE",
"151 189 OFFCURVE",
"151 361 CURVE SMOOTH",
"151 529 OFFCURVE",
"237 642 OFFCURVE",
"388 642 CURVE SMOOTH",
"500 642 OFFCURVE",
"579 582 OFFCURVE",
"599 480 CURVE",
"704 494 LINE",
"682 642 OFFCURVE",
"558 738 OFFCURVE",
"391 738 CURVE SMOOTH",
"179 738 OFFCURVE",
"41 587 OFFCURVE",
"41 358 CURVE SMOOTH",
"41 135 OFFCURVE",
"170 -10 OFFCURVE",
"367 -10 CURVE SMOOTH"
);
}
);
};
layerId = "47995495-C855-4C5A-BA32-118EA0334940";
paths = (
{
closed = 1;
nodes = (
"496 -10 OFFCURVE",
"598 59 OFFCURVE",
"624 157 CURVE",
"615 159 LINE",
"629 0 LINE",
"715 0 LINE",
"715 381 LINE",
"403 381 LINE",
"403 295 LINE",
"602 295 LINE",
"601 167 OFFCURVE",
"508 86 OFFCURVE",
"377 86 CURVE SMOOTH",
"241 86 OFFCURVE",
"151 176 OFFCURVE",
"151 366 CURVE SMOOTH",
"151 548 OFFCURVE",
"237 643 OFFCURVE",
"384 643 CURVE SMOOTH",
"500 643 OFFCURVE",
"578 582 OFFCURVE",
"598 490 CURVE",
"704 512 LINE",
"674 646 OFFCURVE",
"560 738 OFFCURVE",
"383 738 CURVE SMOOTH",
"169 738 OFFCURVE",
"41 592 OFFCURVE",
"41 361 CURVE SMOOTH",
"41 138 OFFCURVE",
"156 -10 OFFCURVE",
"360 -10 CURVE SMOOTH"
);
}
);
width = 786;
}
);
leftKerningGroup = KO_O;
leftMetricsKey = "=O";
rightKerningGroup = KO_G;
unicode = 0047;
userData = {
KernOnName = G;
};
},
{
color = 3;
glyphname = H;
layers = (
{
anchors = (
{
name = bottom;
position = "{384, 0}";
},
{
name = center;
position = "{384, 557}";
},
{
name = top;
position = "{384, 729}";
},
{
name = topleft;
position = "{20, 729}";
}
);
layerId = "F114AD5B-DC62-4E73-AD12-1938E40AC8EF";
paths = (
{
closed = 1;
nodes = (
"151 0 LINE",
"151 729 LINE",
"86 729 LINE",
"86 0 LINE"
);
},
{
closed = 1;
nodes = (
"633 345 LINE",
"633 404 LINE",
"136 404 LINE",
"136 345 LINE"
);
},
{
closed = 1;
nodes = (
"682 0 LINE",
"682 729 LINE",
"618 729 LINE",
"618 0 LINE"
);
}
);
width = 768;
},
{
anchors = (
{
name = bottom;
position = "{383, 0}";
},
{
name = center;
position = "{383, 584}";
},
{
name = top;
position = "{383, 729}";
},
{
name = topleft;
position = "{20, 729}";
}
);
layerId = "E787E54A-EE3E-475A-BF02-8501A6DA5144";
paths = (
{
closed = 1;
nodes = (
"256 0 LINE",
"256 729 LINE",
"63 729 LINE",
"63 0 LINE"
);
},
{
closed = 1;
nodes = (
"526 289 LINE",
"526 451 LINE",
"240 451 LINE",
"240 289 LINE"
);
},
{
closed = 1;
nodes = (
"703 0 LINE",
"703 729 LINE",
"510 729 LINE",
"510 0 LINE"
);
}
);
width = 766;
},
{
anchors = (
{
name = bottom;
position = "{391, 0}";
},
{
name = center;
position = "{391, 563}";
},
{
name = top;
position = "{391, 729}";
},
{
name = topleft;
position = "{20, 729}";
}
);
layerId = "47995495-C855-4C5A-BA32-118EA0334940";
paths = (
{
closed = 1;
nodes = (
"190 0 LINE",
"190 729 LINE",
"86 729 LINE",
"86 0 LINE"
);
},
{
closed = 1;
nodes = (
"608 328 LINE",
"608 419 LINE",
"174 419 LINE",
"174 328 LINE"
);
},
{
closed = 1;
nodes = (
"695 0 LINE",
"695 729 LINE",
"592 729 LINE",
"592 0 LINE"
);
}
);
width = 781;
}
);
leftKerningGroup = KO_H;
rightKerningGroup = KO_H;
unicode = 0048;
userData = {
KernOnName = H;
};
},
{
color = 3;
glyphname = I;
layers = (
{
anchors = (
{
name = bottom;
position = "{119, 0}";
},
{
name = ogonek;
position = "{151, 0}";
},
{
name = top;
position = "{119, 729}";
},
{
name = topleft;
position = "{20, 729}";
}
);
layerId = "F114AD5B-DC62-4E73-AD12-1938E40AC8EF";
paths = (
{
closed = 1;
nodes = (
"151 729 LINE",
"86 729 LINE",
"86 0 LINE",
"151 0 LINE"
);
}
);
width = 237;
},
{
anchors = (
{
name = bottom;
position = "{160, 0}";
},
{
name = ogonek;
position = "{256, 0}";
},
{
name = top;
position = "{160, 729}";
},
{
name = topleft;
position = "{20, 729}";
}
);
layerId = "E787E54A-EE3E-475A-BF02-8501A6DA5144";
paths = (
{
closed = 1;
nodes = (
"256 729 LINE",
"63 729 LINE",
"63 0 LINE",
"256 0 LINE"
);
}
);
width = 319;
},
{
anchors = (
{
name = bottom;
position = "{138, 0}";
},
{
name = ogonek;
position = "{190, 0}";
},
{
name = top;
position = "{138, 729}";
},
{
name = topleft;
position = "{20, 729}";
}
);
layerId = "47995495-C855-4C5A-BA32-118EA0334940";
paths = (
{
closed = 1;
nodes = (
"190 729 LINE",
"86 729 LINE",
"86 0 LINE",
"190 0 LINE"
);
}
);
width = 276;
}
);
leftKerningGroup = KO_H;
leftMetricsKey = "=H";
rightKerningGroup = KO_H;
rightMetricsKey = "=|";
unicode = 0049;
},
{
color = 3;
glyphname = J;
layers = (
{
anchors = (
{
name = bottom;
position = "{312, 0}";
},
{
name = top;
position = "{514, 729}";
}
);
layerId = "F114AD5B-DC62-4E73-AD12-1938E40AC8EF";
paths = (
{
closed = 1;
nodes = (
"452 -10 OFFCURVE",
"546 59 OFFCURVE",
"546 207 CURVE SMOOTH",
"546 729 LINE",
"481 729 LINE",
"481 214 LINE SMOOTH",
"481 117 OFFCURVE",
"434 53 OFFCURVE",
"312 53 CURVE SMOOTH",
"211 53 OFFCURVE",
"143 98 OFFCURVE",
"143 214 CURVE SMOOTH",
"143 347 LINE",
"78 347 LINE",
"78 207 LINE SMOOTH",
"78 77 OFFCURVE",
"153 -10 OFFCURVE",
"312 -10 CURVE SMOOTH"
);
}
);
width = 624;
},
{
anchors = (
{
name = bottom;
position = "{322, 0}";
},
{
name = top;
position = "{493, 729}";
}
);
layerId = "E787E54A-EE3E-475A-BF02-8501A6DA5144";
paths = (
{
closed = 1;
nodes = (
"478 -10 OFFCURVE",
"589 79 OFFCURVE",
"589 236 CURVE SMOOTH",
"589 729 LINE",
"397 729 LINE",
"397 240 LINE SMOOTH",
"397 191 OFFCURVE",
"373 159 OFFCURVE",
"312 159 CURVE SMOOTH",
"261 159 OFFCURVE",
"227 182 OFFCURVE",
"227 240 CURVE SMOOTH",
"227 345 LINE",
"36 345 LINE",
"36 236 LINE SMOOTH",
"36 88 OFFCURVE",
"135 -10 OFFCURVE",
"311 -10 CURVE SMOOTH"
);
}
);
width = 643;
},
{
anchors = (
{
name = bottom;
position = "{326, 0}";
},
{
name = top;
position = "{521, 729}";
}
);
layerId = "47995495-C855-4C5A-BA32-118EA0334940";
paths = (
{
closed = 1;
nodes = (
"474 -10 OFFCURVE",
"573 67 OFFCURVE",
"573 232 CURVE SMOOTH",
"573 729 LINE",
"468 729 LINE",
"468 228 LINE SMOOTH",
"468 143 OFFCURVE",
"434 86 OFFCURVE",
"325 86 CURVE SMOOTH",
"240 86 OFFCURVE",
"183 120 OFFCURVE",
"183 228 CURVE SMOOTH",
"183 347 LINE",
"78 347 LINE",
"78 232 LINE SMOOTH",
"78 87 OFFCURVE",
"157 -10 OFFCURVE",
"325 -10 CURVE SMOOTH"
);
}
);
width = 651;
}
);
leftKerningGroup = KO_J;
rightKerningGroup = KO_J;
rightMetricsKey = "=U";
unicode = 004A;
userData = {
KernOnName = J;
};
},
{
color = 3;
glyphname = K;
layers = (
{
anchors = (
{
name = bottom;
position = "{320, 0}";
},
{
name = top;
position = "{320, 729}";
}
);
layerId = "F114AD5B-DC62-4E73-AD12-1938E40AC8EF";
paths = (
{
closed = 1;
nodes = (
"657 0 LINE",
"339 460 LINE",
"339 438 LINE",
"647 729 LINE",
"560 729 LINE",
"139 328 LINE",
"139 248 LINE",
"302 403 LINE",
"579 0 LINE"
);
},
{
closed = 1;
nodes = (
"151 0 LINE",
"151 729 LINE",
"86 729 LINE",
"86 0 LINE"
);
}
);
width = 640;
},
{
anchors = (
{
name = bottom;
position = "{390, 0}";
},
{
name = top;
position = "{390, 729}";
}
);
layerId = "E787E54A-EE3E-475A-BF02-8501A6DA5144";
paths = (
{
closed = 1;
nodes = (
"758 0 LINE",
"460 478 LINE",
"460 446 LINE",
"745 729 LINE",
"500 729 LINE",
"245 452 LINE",
"245 226 LINE",
"338 319 LINE",
"531 0 LINE"
);
},
{
closed = 1;
nodes = (
"256 0 LINE",
"256 729 LINE",
"63 729 LINE",
"63 0 LINE"
);
}
);
width = 780;
},
{
anchors = (
{
name = bottom;
position = "{339, 0}";
},
{
name = top;
position = "{339, 729}";
}
);
layerId = "47995495-C855-4C5A-BA32-118EA0334940";
paths = (
{
closed = 1;
nodes = (
"694 0 LINE",
"374 455 LINE",
"374 426 LINE",
"681 729 LINE",
"547 729 LINE",
"179 361 LINE",
"179 234 LINE",
"315 368 LINE",
"567 0 LINE"
);
},
{
closed = 1;
nodes = (
"190 0 LINE",
"190 729 LINE",
"86 729 LINE",
"86 0 LINE"
);
}
);
width = 677;
}
);
leftKerningGroup = KO_H;
leftMetricsKey = "=H";
rightKerningGroup = KO_K;
unicode = 004B;
userData = {
KernOnName = K;
};
},
{
color = 3;
glyphname = L;
layers = (
{
anchors = (
{
name = bottom;
position = "{293, 0}";
},
{
name = center;
position = "{169, 365}";
},
{
name = top;
position = "{119, 729}";
},
{
name = topright;
position = "{251, 729}";
}
);
layerId = "F114AD5B-DC62-4E73-AD12-1938E40AC8EF";
paths = (
{
closed = 1;
nodes = (
"590 0 LINE",
"590 60 LINE",
"140 60 LINE",
"151 49 LINE",
"151 729 LINE",
"86 729 LINE",
"86 0 LINE"
);
}
);
width = 586;
},
{
anchors = (
{
name = bottom;
position = "{304, 0}";
},
{
name = center;
position = "{180, 365}";
},
{
name = top;
position = "{160, 729}";
},
{
name = topright;
position = "{296, 729}";
}
);
layerId = "E787E54A-EE3E-475A-BF02-8501A6DA5144";
paths = (
{
closed = 1;
nodes = (
"606 0 LINE",
"606 162 LINE",
"240 162 LINE",
"256 146 LINE",
"256 729 LINE",
"63 729 LINE",
"63 0 LINE"
);
}
);
width = 618;
},
{
anchors = (
{
name = bottom;
position = "{295, 0}";
},
{
name = center;
position = "{178, 375}";
},
{
name = top;
position = "{138, 729}";
},
{
name = topright;
position = "{262, 729}";
}
);
layerId = "47995495-C855-4C5A-BA32-118EA0334940";
paths = (
{
closed = 1;
nodes = (
"593 0 LINE",
"593 92 LINE",
"173 92 LINE",
"190 75 LINE",
"190 729 LINE",
"86 729 LINE",
"86 0 LINE"
);
}
);
width = 589;
}
);
leftKerningGroup = KO_H;
leftMetricsKey = "=H";
rightKerningGroup = KO_L;
unicode = 004C;
},
{
color = 3;
glyphname = M;
layers = (
{
anchors = (
{
name = bottom;
position = "{446, 0}";
},
{
name = top;
position = "{446, 729}";
}
);
layerId = "F114AD5B-DC62-4E73-AD12-1938E40AC8EF";
paths = (
{
closed = 1;
nodes = (
"151 0 LINE",
"149 699 LINE",
"140 699 LINE",
"416 0 LINE",
"474 0 LINE",
"752 700 LINE",
"743 700 LINE",
"742 0 LINE",
"806 0 LINE",
"806 729 LINE",
"695 729 LINE",
"442 89 LINE",
"450 89 LINE",
"198 729 LINE",
"86 729 LINE",
"86 0 LINE"
);
}
);
width = 892;
},
{
anchors = (
{
name = bottom;
position = "{482, 0}";
},
{
name = top;
position = "{482, 729}";
}
);
layerId = "E787E54A-EE3E-475A-BF02-8501A6DA5144";
paths = (
{
closed = 1;
nodes = (
"247 0 LINE",
"247 582 LINE",
"227 582 LINE",
"408 0 LINE",
"551 0 LINE",
"733 584 LINE",
"716 584 LINE",
"716 0 LINE",
"900 0 LINE",
"900 729 LINE",
"604 729 LINE",
"473 303 LINE",
"489 303 LINE",
"360 729 LINE",
"63 729 LINE",
"63 0 LINE"
);
}
);
width = 963;
},
{
anchors = (
{
name = bottom;
position = "{461, 0}";
},
{
name = top;
position = "{461, 729}";
}
);
layerId = "47995495-C855-4C5A-BA32-118EA0334940";
paths = (
{
closed = 1;
nodes = (
"186 0 LINE",
"186 682 LINE",
"173 682 LINE",
"413 0 LINE",
"506 0 LINE",
"751 681 LINE",
"738 681 LINE",
"732 0 LINE",
"836 0 LINE",
"836 729 LINE",
"669 729 LINE",
"455 126 LINE",
"468 126 LINE",
"256 729 LINE",
"86 729 LINE",
"86 0 LINE"
);
}
);
width = 922;
}
);
leftKerningGroup = KO_H;
leftMetricsKey = H;
rightKerningGroup = KO_H;
rightMetricsKey = H;
unicode = 004D;
},
{
color = 3;
glyphname = N;
layers = (
{
anchors = (
{
name = bottom;
position = "{397, 0}";
},
{
name = top;
position = "{397, 729}";
}
);
layerId = "F114AD5B-DC62-4E73-AD12-1938E40AC8EF";
paths = (
{
closed = 1;
nodes = (
"151 0 LINE",
"151 669 LINE",
"141 669 LINE",
"626 0 LINE",
"708 0 LINE",
"708 729 LINE",
"643 729 LINE",
"643 72 LINE",
"653 72 LINE",
"178 729 LINE",
"86 729 LINE",
"86 0 LINE"
);
}
);
width = 794;
},
{
anchors = (
{
name = bottom;
position = "{398, 0}";
},
{
name = top;
position = "{398, 729}";
}
);
layerId = "E787E54A-EE3E-475A-BF02-8501A6DA5144";
paths = (
{
closed = 1;
nodes = (
"253 0 LINE",
"253 451 LINE",
"240 451 LINE",
"516 0 LINE",
"733 0 LINE",
"733 729 LINE",
"545 729 LINE",
"545 274 LINE",
"562 274 LINE",
"290 729 LINE",
"63 729 LINE",
"63 0 LINE"
);
}
);
width = 796;
},
{
anchors = (
{
name = bottom;
position = "{401, 0}";
},
{
name = top;
position = "{401, 729}";
}
);
layerId = "47995495-C855-4C5A-BA32-118EA0334940";
paths = (
{
closed = 1;
nodes = (
"190 0 LINE",
"190 624 LINE",
"175 624 LINE",
"591 0 LINE",
"716 0 LINE",
"716 729 LINE",
"613 729 LINE",
"613 125 LINE",
"625 125 LINE",
"226 729 LINE",
"86 729 LINE",
"86 0 LINE"
);
}
);
width = 802;
}
);
leftKerningGroup = KO_H;
leftMetricsKey = H;
rightKerningGroup = KO_H;
rightMetricsKey = H;
unicode = 004E;
userData = {
KernOnName = N;
};
},
{
glyphname = Nhookleft;
layers = (
{
anchors = (
{
name = bottom;
position = "{386, 0}";
},
{
name = top;
position = "{386, 697}";
}
);
layerId = "F114AD5B-DC62-4E73-AD12-1938E40AC8EF";
paths = (
{
closed = 1;
nodes = (
"89 -165 OFFCURVE",
"140 -128 OFFCURVE",
"140 -50 CURVE SMOOTH",
"140 655 LINE",
"141 655 LINE",
"605 0 LINE",
"697 0 LINE",
"697 729 LINE",
"632 729 LINE",
"632 74 LINE",
"631 74 LINE",
"167 729 LINE",
"75 729 LINE",
"75 -33 LINE SMOOTH",
"75 -75 OFFCURVE",
"64 -111 OFFCURVE",
"1 -111 CURVE SMOOTH",
"-14 -111 OFFCURVE",
"-26 -110 OFFCURVE",
"-40 -107 CURVE",
"-40 -159 LINE",
"-26 -163 OFFCURVE",
"-4 -165 OFFCURVE",
"13 -165 CURVE SMOOTH"
);
}
);
width = 783;
},
{
anchors = (
{
name = bottom;
position = "{426, 0}";
},
{
name = top;
position = "{426, 729}";
}
);
layerId = "E787E54A-EE3E-475A-BF02-8501A6DA5144";
paths = (
{
closed = 1;
nodes = (
"191 -222 OFFCURVE",
"269 -166 OFFCURVE",
"269 -20 CURVE SMOOTH",
"269 515 LINE",
"226 505 LINE",
"492 0 LINE",
"729 0 LINE",
"729 729 LINE",
"541 729 LINE",
"541 171 LINE",
"583 181 LINE",
"306 729 LINE",
"79 729 LINE",
"79 -18 LINE SMOOTH",
"79 -52 OFFCURVE",
"58 -72 OFFCURVE",
"16 -72 CURVE SMOOTH",
"5 -72 OFFCURVE",
"-5 -71 OFFCURVE",
"-13 -70 CURVE",
"-13 -212 LINE",
"16 -220 OFFCURVE",
"35 -222 OFFCURVE",
"66 -222 CURVE SMOOTH"
);
}
);
width = 792;
},
{
anchors = (
{
name = bottom;
position = "{389, 0}";
},
{
name = top;
position = "{389, 707}";
}
);
layerId = "47995495-C855-4C5A-BA32-118EA0334940";
paths = (
{
closed = 1;
nodes = (
"112 -182 OFFCURVE",
"172 -140 OFFCURVE",
"172 -41 CURVE SMOOTH",
"172 649 LINE",
"146 642 LINE",
"558 0 LINE",
"698 0 LINE",
"698 729 LINE",
"595 729 LINE",
"595 69 LINE",
"621 77 LINE",
"208 729 LINE",
"68 729 LINE",
"68 -28 LINE SMOOTH",
"68 -68 OFFCURVE",
"54 -99 OFFCURVE",
"-2 -99 CURVE SMOOTH",
"-15 -99 OFFCURVE",
"-28 -98 OFFCURVE",
"-40 -95 CURVE",
"-40 -175 LINE",
"-21 -180 OFFCURVE",
"-4 -182 OFFCURVE",
"22 -182 CURVE SMOOTH"
);
}
);
width = 784;
}
);
leftKerningGroup = KO_l;
rightKerningGroup = KO_H;
rightMetricsKey = N;
unicode = 019D;
},
{
glyphname = Eng;
layers = (
{
anchors = (
{
name = bottom;
position = "{397, 0}";
},
{
name = top;
position = "{397, 697}";
}
);
layerId = "F114AD5B-DC62-4E73-AD12-1938E40AC8EF";
paths = (
{
closed = 1;
nodes = (
"151 0 LINE",
"151 655 LINE",
"152 655 LINE",
"616 0 LINE",
"644 0 LINE",
"644 -33 LINE SMOOTH",
"644 -75 OFFCURVE",
"633 -111 OFFCURVE",
"569 -111 CURVE SMOOTH",
"554 -111 OFFCURVE",
"542 -110 OFFCURVE",
"528 -107 CURVE",
"528 -159 LINE",
"542 -163 OFFCURVE",
"564 -165 OFFCURVE",
"581 -165 CURVE SMOOTH",
"657 -165 OFFCURVE",
"708 -128 OFFCURVE",
"708 -50 CURVE SMOOTH",
"708 729 LINE",
"643 729 LINE",
"643 74 LINE",
"642 74 LINE",
"178 729 LINE",
"86 729 LINE",
"86 0 LINE"
);
}
);
width = 794;
},
{
anchors = (
{
name = bottom;
position = "{388, 0}";
},
{
name = top;
position = "{388, 729}";
}
);
layerId = "E787E54A-EE3E-475A-BF02-8501A6DA5144";
paths = (
{
closed = 1;
nodes = (
"253 0 LINE",
"253 443 LINE",
"233 443 LINE",
"476 0 LINE",
"511 0 LINE",
"511 -18 LINE SMOOTH",
"511 -52 OFFCURVE",
"490 -72 OFFCURVE",
"447 -72 CURVE SMOOTH",
"436 -72 OFFCURVE",
"426 -71 OFFCURVE",
"418 -70 CURVE",
"418 -212 LINE",
"447 -220 OFFCURVE",
"466 -222 OFFCURVE",
"497 -222 CURVE SMOOTH",
"626 -222 OFFCURVE",
"713 -166 OFFCURVE",
"713 -20 CURVE SMOOTH",
"713 729 LINE",
"525 729 LINE",
"525 243 LINE",
"546 243 LINE",
"290 729 LINE",
"63 729 LINE",
"63 0 LINE"
);
}
);
width = 776;
},
{
anchors = (
{
name = bottom;
position = "{401, 0}";
},
{
name = top;
position = "{401, 707}";
}
);
layerId = "47995495-C855-4C5A-BA32-118EA0334940";
paths = (
{
closed = 1;
nodes = (
"190 0 LINE",
"190 610 LINE",
"182 610 LINE",
"576 0 LINE",
"610 0 LINE",
"610 -28 LINE SMOOTH",
"610 -73 OFFCURVE",
"592 -99 OFFCURVE",
"538 -99 CURVE SMOOTH",
"524 -99 OFFCURVE",
"513 -98 OFFCURVE",
"500 -95 CURVE",
"500 -175 LINE",
"518 -180 OFFCURVE",
"538 -182 OFFCURVE",
"561 -182 CURVE SMOOTH",
"654 -182 OFFCURVE",
"716 -140 OFFCURVE",
"716 -41 CURVE SMOOTH",
"716 729 LINE",
"613 729 LINE",
"613 106 LINE",
"622 106 LINE",
"226 729 LINE",
"86 729 LINE",
"86 0 LINE"
);
}
);
width = 802;
}
);
leftKerningGroup = KO_H;
leftMetricsKey = "=N";
rightKerningGroup = KO_H;
rightMetricsKey = "=N";
unicode = 014A;
},
{
color = 3;
glyphname = O;
layers = (
{
anchors = (
{
name = bottom;
position = "{373, 0}";
},
{
name = center;
position = "{373, 365}";
},
{
name = ogonek;
position = "{671, 10}";
},
{
name = top;
position = "{373, 729}";
},
{
name = topleft;
position = "{20, 729}";
},
{
name = topright;
position = "{493, 729}";
}
);
layerId = "F114AD5B-DC62-4E73-AD12-1938E40AC8EF";
paths = (
{
closed = 1;
nodes = (
"571 -10 OFFCURVE",
"704 125 OFFCURVE",
"704 365 CURVE SMOOTH",
"704 589 OFFCURVE",
"584 738 OFFCURVE",
"372 738 CURVE SMOOTH",
"173 738 OFFCURVE",
"41 603 OFFCURVE",
"41 364 CURVE SMOOTH",
"41 140 OFFCURVE",
"160 -10 OFFCURVE",
"372 -10 CURVE SMOOTH"
);
},
{
closed = 1;
nodes = (
"204 52 OFFCURVE",
"110 164 OFFCURVE",
"110 364 CURVE SMOOTH",
"110 564 OFFCURVE",
"204 676 OFFCURVE",
"372 676 CURVE SMOOTH",
"540 676 OFFCURVE",
"635 563 OFFCURVE",
"635 363 CURVE SMOOTH",
"635 164 OFFCURVE",
"540 52 OFFCURVE",
"372 52 CURVE SMOOTH"
);
}
);
width = 745;
},
{
anchors = (
{
name = bottom;
position = "{386, 0}";
},
{
name = center;
position = "{386, 365}";
},
{
name = ogonek;
position = "{694, 10}";
},
{
name = top;
position = "{386, 729}";
},
{
name = topleft;
position = "{20, 729}";
},
{
name = topright;
position = "{531, 729}";
}
);
layerId = "E787E54A-EE3E-475A-BF02-8501A6DA5144";
paths = (
{
closed = 1;
nodes = (
"622 -10 OFFCURVE",
"734 140 OFFCURVE",
"734 365 CURVE SMOOTH",
"734 619 OFFCURVE",
"594 738 OFFCURVE",
"385 738 CURVE SMOOTH",
"149 738 OFFCURVE",
"37 589 OFFCURVE",
"37 365 CURVE SMOOTH",
"37 110 OFFCURVE",
"176 -10 OFFCURVE",
"385 -10 CURVE SMOOTH"
);
},
{
closed = 1;
nodes = (
"281 161 OFFCURVE",
"241 243 OFFCURVE",
"241 365 CURVE SMOOTH",
"241 510 OFFCURVE",
"299 567 OFFCURVE",
"385 567 CURVE SMOOTH",
"490 567 OFFCURVE",
"531 486 OFFCURVE",
"531 365 CURVE SMOOTH",
"531 218 OFFCURVE",
"473 161 OFFCURVE",
"385 161 CURVE SMOOTH"
);
}
);
width = 771;
},
{
anchors = (
{
name = bottom;
position = "{378, 0}";
},
{
name = center;
position = "{378, 365}";
},
{
name = ogonek;
position = "{680, 10}";
},
{
name = top;
position = "{378, 729}";
},
{
name = topleft;
position = "{20, 729}";
},
{
name = topright;
position = "{526, 729}";
}
);
layerId = "47995495-C855-4C5A-BA32-118EA0334940";
paths = (
{
closed = 1;
nodes = (
"588 -10 OFFCURVE",
"715 130 OFFCURVE",
"715 365 CURVE SMOOTH",
"715 598 OFFCURVE",
"588 738 OFFCURVE",
"377 738 CURVE SMOOTH",
"167 738 OFFCURVE",
"41 599 OFFCURVE",
"41 364 CURVE SMOOTH",
"41 131 OFFCURVE",
"167 -10 OFFCURVE",
"377 -10 CURVE SMOOTH"
);
},
{
closed = 1;
nodes = (
"229 86 OFFCURVE",
"151 190 OFFCURVE",
"151 365 CURVE SMOOTH",
"151 548 OFFCURVE",
"235 643 OFFCURVE",
"377 643 CURVE SMOOTH",
"525 643 OFFCURVE",
"604 540 OFFCURVE",
"604 364 CURVE SMOOTH",
"604 181 OFFCURVE",
"520 86 OFFCURVE",
"377 86 CURVE SMOOTH"
);
}
);
width = 756;
}
);
leftKerningGroup = KO_O;
rightKerningGroup = KO_O;
rightMetricsKey = "=|";
unicode = 004F;
userData = {
KernOnName = O;
};
},
{
glyphname = OE;
layers = (
{
layerId = "F114AD5B-DC62-4E73-AD12-1938E40AC8EF";
paths = (
{
closed = 1;
nodes = (
"41 147 OFFCURVE",
"193 0 OFFCURVE",
"416 0 CURVE SMOOTH",
"943 0 LINE",
"943 65 LINE",
"529 65 LINE",
"529 336 LINE",
"839 336 LINE",
"839 395 LINE",
"529 395 LINE",
"529 666 LINE",
"943 666 LINE",
"943 729 LINE",
"417 729 LINE SMOOTH",
"192 729 OFFCURVE",
"41 581 OFFCURVE",
"41 365 CURVE SMOOTH"
);
},
{
closed = 1;
nodes = (
"110 543 OFFCURVE",
"231 666 OFFCURVE",
"416 666 CURVE SMOOTH",
"466 666 LINE",
"466 65 LINE",
"416 65 LINE SMOOTH",
"231 65 OFFCURVE",
"110 187 OFFCURVE",
"110 365 CURVE SMOOTH"
);
}
);
width = 971;
},
{
layerId = "E787E54A-EE3E-475A-BF02-8501A6DA5144";
paths = (
{
closed = 1;
nodes = (
"37 150 OFFCURVE",
"187 1 OFFCURVE",
"410 1 CURVE SMOOTH",
"947 1 LINE",
"947 172 LINE",
"639 172 LINE",
"639 282 LINE",
"851 282 LINE",
"851 442 LINE",
"639 442 LINE",
"639 557 LINE",
"947 557 LINE",
"947 728 LINE",
"409 728 LINE SMOOTH",
"186 728 OFFCURVE",
"37 580 OFFCURVE",
"37 365 CURVE SMOOTH"
);
},
{
closed = 1;
nodes = (
"251 476 OFFCURVE",
"314 555 OFFCURVE",
"410 555 CURVE SMOOTH",
"437 555 LINE",
"437 172 LINE",
"410 172 LINE SMOOTH",
"314 172 OFFCURVE",
"251 252 OFFCURVE",
"251 365 CURVE SMOOTH"
);
}
);
width = 984;
},
{
layerId = "47995495-C855-4C5A-BA32-118EA0334940";
paths = (
{
closed = 1;
nodes = (
"41 148 OFFCURVE",
"192 0 OFFCURVE",
"415 0 CURVE SMOOTH",
"946 0 LINE",
"946 98 LINE",
"565 98 LINE",
"565 319 LINE",
"844 319 LINE",
"844 410 LINE",
"565 410 LINE",
"565 633 LINE",
"946 633 LINE",
"946 729 LINE",
"416 729 LINE SMOOTH",
"191 729 OFFCURVE",
"41 581 OFFCURVE",
"41 365 CURVE SMOOTH"
);
},
{
closed = 1;
nodes = (
"155 522 OFFCURVE",
"258 632 OFFCURVE",
"415 632 CURVE SMOOTH",
"458 632 LINE",
"458 98 LINE",
"415 98 LINE SMOOTH",
"258 98 OFFCURVE",
"155 207 OFFCURVE",
"155 365 CURVE SMOOTH"
);
}
);
width = 974;
}
);
leftKerningGroup = KO_O;
leftMetricsKey = "=|D";
rightKerningGroup = KO_AE;
rightMetricsKey = "=E";
unicode = 0152;
},
{
color = 3;
glyphname = P;
layers = (
{
anchors = (
{
name = bottom;
position = "{343, 0}";
},
{
name = top;
position = "{343, 729}";
}
);
layerId = "F114AD5B-DC62-4E73-AD12-1938E40AC8EF";
paths = (
{
closed = 1;
nodes = (
"151 0 LINE",
"151 666 LINE",
"402 666 LINE SMOOTH",
"527 666 OFFCURVE",
"581 615 OFFCURVE",
"581 524 CURVE SMOOTH",
"581 424 OFFCURVE",
"520 377 OFFCURVE",
"402 377 CURVE SMOOTH",
"136 377 LINE",
"136 318 LINE",
"414 317 LINE SMOOTH",
"565 316 OFFCURVE",
"650 398 OFFCURVE",
"650 523 CURVE SMOOTH",
"650 655 OFFCURVE",
"556 729 OFFCURVE",
"414 729 CURVE SMOOTH",
"86 729 LINE",
"86 0 LINE"
);
}
);
width = 685;
},
{
anchors = (
{
name = bottom;
position = "{357, 0}";
},
{
name = top;
position = "{357, 729}";
}
);
layerId = "E787E54A-EE3E-475A-BF02-8501A6DA5144";
paths = (
{
closed = 1;
nodes = (
"256 0 LINE",
"256 567 LINE",
"389 567 LINE SMOOTH",
"453 567 OFFCURVE",
"487 530 OFFCURVE",
"487 474 CURVE SMOOTH",
"487 411 OFFCURVE",
"445 381 OFFCURVE",
"389 381 CURVE SMOOTH",
"240 381 LINE",
"240 225 LINE",
"397 225 LINE SMOOTH",
"568 225 OFFCURVE",
"682 316 OFFCURVE",
"682 477 CURVE SMOOTH",
"682 638 OFFCURVE",
"572 729 OFFCURVE",
"407 729 CURVE SMOOTH",
"63 729 LINE",
"63 0 LINE"
);
}
);
width = 714;
},
{
anchors = (
{
name = bottom;
position = "{351, 0}";
},
{
name = top;
position = "{351, 729}";
}
);
guideLines = (
{
angle = 90;
position = "{566, 515}";
}
);
layerId = "47995495-C855-4C5A-BA32-118EA0334940";
paths = (
{
closed = 1;
nodes = (
"190 0 LINE",
"190 635 LINE",
"426 635 LINE SMOOTH",
"505 635 OFFCURVE",
"557 594 OFFCURVE",
"557 510 CURVE SMOOTH",
"557 425 OFFCURVE",
"504 385 OFFCURVE",
"426 385 CURVE SMOOTH",
"174 385 LINE",
"174 292 LINE",
"417 292 LINE SMOOTH",
"575 292 OFFCURVE",
"666 378 OFFCURVE",
"666 510 CURVE SMOOTH",
"666 642 OFFCURVE",
"576 729 OFFCURVE",
"418 729 CURVE SMOOTH",
"86 729 LINE",
"86 0 LINE"
);
}
);
width = 701;
}
);
leftKerningGroup = KO_H;
leftMetricsKey = "=H";
rightKerningGroup = KO_P;
unicode = 0050;
},
{
glyphname = Thorn;
layers = (
{
anchors = (
{
name = bottom;
position = "{306, 0}";
},
{
name = top;
position = "{306, 729}";
}
);
layerId = "F114AD5B-DC62-4E73-AD12-1938E40AC8EF";
paths = (
{
closed = 1;
nodes = (
"149 0 LINE",
"149 149 LINE",
"346 149 LINE SMOOTH",
"505 149 OFFCURVE",
"611 226 OFFCURVE",
"611 370 CURVE SMOOTH",
"611 507 OFFCURVE",
"521 600 OFFCURVE",
"357 600 CURVE SMOOTH",
"149 600 LINE",
"149 750 LINE",
"86 750 LINE",
"86 0 LINE"
);
},
{
closed = 1;
nodes = (
"149 538 LINE",
"359 538 LINE SMOOTH",
"472 538 OFFCURVE",
"548 479 OFFCURVE",
"548 373 CURVE SMOOTH",
"548 274 OFFCURVE",
"479 209 OFFCURVE",
"359 209 CURVE SMOOTH",
"149 209 LINE"
);
}
);
width = 646;
},
{
anchors = (
{
name = bottom;
position = "{334, 0}";
},
{
name = top;
position = "{334, 729}";
}
);
layerId = "E787E54A-EE3E-475A-BF02-8501A6DA5144";
paths = (
{
closed = 1;
nodes = (
"256 0 LINE",
"256 118 LINE",
"382 118 LINE SMOOTH",
"549 118 OFFCURVE",
"663 201 OFFCURVE",
"663 378 CURVE SMOOTH",
"663 531 OFFCURVE",
"571 633 OFFCURVE",
"380 633 CURVE SMOOTH",
"256 633 LINE",
"256 750 LINE",
"63 750 LINE",
"63 0 LINE"
);
},
{
closed = 1;
nodes = (
"256 455 LINE",
"360 455 LINE SMOOTH",
"417 455 OFFCURVE",
"456 429 OFFCURVE",
"456 374 CURVE SMOOTH",
"456 323 OFFCURVE",
"425 289 OFFCURVE",
"360 289 CURVE SMOOTH",
"256 289 LINE"
);
}
);
width = 695;
},
{
anchors = (
{
name = bottom;
position = "{321, 0}";
},
{
name = top;
position = "{321, 729}";
}
);
layerId = "47995495-C855-4C5A-BA32-118EA0334940";
paths = (
{
closed = 1;
nodes = (
"189 0 LINE",
"189 140 LINE",
"364 140 LINE SMOOTH",
"525 140 OFFCURVE",
"634 218 OFFCURVE",
"634 373 CURVE SMOOTH",
"634 515 OFFCURVE",
"543 611 OFFCURVE",
"371 611 CURVE SMOOTH",
"189 611 LINE",
"189 750 LINE",
"86 750 LINE",
"86 0 LINE"
);
},
{
closed = 1;
nodes = (
"189 513 LINE",
"366 513 LINE SMOOTH",
"461 513 OFFCURVE",
"526 463 OFFCURVE",
"526 373 CURVE SMOOTH",
"526 289 OFFCURVE",
"469 234 OFFCURVE",
"366 234 CURVE SMOOTH",
"189 234 LINE"
);
}
);
width = 669;
}
);
leftKerningGroup = KO_H;
leftMetricsKey = "=H";
rightKerningGroup = KO_O;
rightMetricsKey = "=P";
unicode = 00DE;
},
{
color = 3;
glyphname = R;
layers = (
{
anchors = (
{
name = bottom;
position = "{355, 0}";
},
{
name = top;
position = "{355, 729}";
}
);
background = {
paths = (
{
closed = 1;
nodes = (
"151 0 LINE",
"151 340 LINE",
"457 340 LINE SMOOTH",
"541 340 OFFCURVE",
"563 308 OFFCURVE",
"563 214 CURVE SMOOTH",
"563 0 LINE",
"628 0 LINE",
"628 227 LINE SMOOTH",
"628 298 OFFCURVE",
"621 347 OFFCURVE",
"523 370 CURVE",
"599 397 OFFCURVE",
"644 461 OFFCURVE",
"644 539 CURVE SMOOTH",
"644 653 OFFCURVE",
"569 729 OFFCURVE",
"425 729 CURVE SMOOTH",
"86 729 LINE",
"86 0 LINE"
);
},
{
closed = 1;
nodes = (
"151 669 LINE",
"411 669 LINE SMOOTH",
"517 669 OFFCURVE",
"576 626 OFFCURVE",
"576 535 CURVE SMOOTH",
"576 447 OFFCURVE",
"523 398 OFFCURVE",
"411 398 CURVE SMOOTH",
"151 398 LINE"
);
}
);
};
layerId = "F114AD5B-DC62-4E73-AD12-1938E40AC8EF";
paths = (
{
closed = 1;
nodes = (
"151 0 LINE",
"151 683 LINE",
"136 668 LINE",
"411 668 LINE SMOOTH",
"517 668 OFFCURVE",
"576 627 OFFCURVE",
"576 536 CURVE SMOOTH",
"576 448 OFFCURVE",
"523 401 OFFCURVE",
"411 401 CURVE SMOOTH",
"136 401 LINE",
"136 340 LINE",
"457 340 LINE SMOOTH",
"541 340 OFFCURVE",
"563 308 OFFCURVE",
"563 214 CURVE SMOOTH",
"563 0 LINE",
"628 0 LINE",
"628 227 LINE SMOOTH",
"628 302 OFFCURVE",
"621 352 OFFCURVE",
"506 374 CURVE",
"506 365 LINE",
"592 388 OFFCURVE",
"644 455 OFFCURVE",
"644 539 CURVE SMOOTH",
"644 653 OFFCURVE",
"569 729 OFFCURVE",
"425 729 CURVE SMOOTH",
"86 729 LINE",
"86 0 LINE"
);
}
);
width = 710;
},
{
anchors = (
{
name = bottom;
position = "{372, 0}";
},
{
name = top;
position = "{372, 729}";
}
);
layerId = "E787E54A-EE3E-475A-BF02-8501A6DA5144";
paths = (
{
closed = 1;
nodes = (
"256 0 LINE",
"256 593 LINE",
"231 568 LINE",
"412 568 LINE SMOOTH",
"463 568 OFFCURVE",
"501 542 OFFCURVE",
"501 488 CURVE SMOOTH",
"501 441 OFFCURVE",
"469 408 OFFCURVE",
"409 408 CURVE SMOOTH",
"240 408 LINE",
"240 255 LINE",
"445 255 LINE SMOOTH",
"494 255 OFFCURVE",
"499 231 OFFCURVE",
"499 198 CURVE SMOOTH",
"499 0 LINE",
"692 0 LINE",
"692 217 LINE SMOOTH",
"692 296 OFFCURVE",
"676 345 OFFCURVE",
"552 360 CURVE",
"552 345 LINE",
"648 362 OFFCURVE",
"702 432 OFFCURVE",
"702 525 CURVE SMOOTH",
"702 656 OFFCURVE",
"603 729 OFFCURVE",
"461 729 CURVE SMOOTH",
"63 729 LINE",
"63 0 LINE"
);
}
);
width = 744;
},
{
anchors = (
{
name = bottom;
position = "{366, 0}";
},
{
name = top;
position = "{366, 729}";
}
);
background = {
paths = (
{
closed = 1;
nodes = (
"190 0 LINE",
"190 314 LINE",
"455 314 LINE SMOOTH",
"529 314 OFFCURVE",
"547 280 OFFCURVE",
"547 205 CURVE SMOOTH",
"547 0 LINE",
"651 0 LINE",
"651 223 LINE SMOOTH",
"651 295 OFFCURVE",
"639 338 OFFCURVE",
"541 359 CURVE",
"618 382 OFFCURVE",
"665 449 OFFCURVE",
"665 534 CURVE SMOOTH",
"665 651 OFFCURVE",
"581 729 OFFCURVE",
"432 729 CURVE SMOOTH",
"86 729 LINE",
"86 0 LINE"
);
},
{
closed = 1;
nodes = (
"190 637 LINE",
"423 637 LINE SMOOTH",
"507 637 OFFCURVE",
"555 595 OFFCURVE",
"555 519 CURVE SMOOTH",
"555 443 OFFCURVE",
"507 399 OFFCURVE",
"422 399 CURVE SMOOTH",
"190 399 LINE"
);
}
);
};
layerId = "47995495-C855-4C5A-BA32-118EA0334940";
paths = (
{
closed = 1;
nodes = (
"190 0 LINE",
"190 653 LINE",
"174 637 LINE",
"423 637 LINE SMOOTH",
"507 637 OFFCURVE",
"555 598 OFFCURVE",
"555 522 CURVE SMOOTH",
"555 446 OFFCURVE",
"507 405 OFFCURVE",
"422 405 CURVE SMOOTH",
"174 405 LINE",
"174 314 LINE",
"455 314 LINE SMOOTH",
"529 314 OFFCURVE",
"547 280 OFFCURVE",
"547 205 CURVE SMOOTH",
"547 0 LINE",
"651 0 LINE",
"651 223 LINE SMOOTH",
"651 299 OFFCURVE",
"637 343 OFFCURVE",
"524 362 CURVE",
"524 354 LINE",
"611 372 OFFCURVE",
"665 443 OFFCURVE",
"665 534 CURVE SMOOTH",
"665 651 OFFCURVE",
"581 729 OFFCURVE",
"432 729 CURVE SMOOTH",
"86 729 LINE",
"86 0 LINE"
);
}
);
width = 731;
}
);
leftKerningGroup = KO_H;
leftMetricsKey = "=H";
rightKerningGroup = KO_R;
unicode = 0052;
},
{
color = 3;
glyphname = S;
layers = (
{
anchors = (
{
name = bottom;
position = "{315, 0}";
},
{
name = top;
position = "{315, 729}";
}
);
layerId = "F114AD5B-DC62-4E73-AD12-1938E40AC8EF";
paths = (
{
closed = 1;
nodes = (
"576 520 LINE",
"570 651 OFFCURVE",
"475 739 OFFCURVE",
"312 739 CURVE SMOOTH",
"167 739 OFFCURVE",
"71 663 OFFCURVE",
"71 550 CURVE SMOOTH",
"71 450 OFFCURVE",
"124 387 OFFCURVE",
"314 347 CURVE SMOOTH",
"422 324 OFFCURVE",
"516 303 OFFCURVE",
"516 199 CURVE SMOOTH",
"516 98 OFFCURVE",
"438 50 OFFCURVE",
"321 50 CURVE SMOOTH",
"188 50 OFFCURVE",
"116 122 OFFCURVE",
"111 237 CURVE",
"43 231 LINE",
"45 83 OFFCURVE",
"154 -10 OFFCURVE",
"321 -10 CURVE SMOOTH",
"491 -10 OFFCURVE",
"586 74 OFFCURVE",
"586 201 CURVE SMOOTH",
"586 358 OFFCURVE",
"444 384 OFFCURVE",
"337 406 CURVE SMOOTH",
"203 433 OFFCURVE",
"139 467 OFFCURVE",
"139 550 CURVE SMOOTH",
"139 627 OFFCURVE",
"202 679 OFFCURVE",
"313 679 CURVE SMOOTH",
"439 679 OFFCURVE",
"500 613 OFFCURVE",
"508 514 CURVE"
);
}
);
width = 629;
},
{
anchors = (
{
name = bottom;
position = "{334, 0}";
},
{
name = top;
position = "{334, 729}";
}
);
background = {
paths = (
{
closed = 1;
nodes = (
"616 524 LINE",
"608 670 OFFCURVE",
"494 738 OFFCURVE",
"330 738 CURVE SMOOTH",
"160 738 OFFCURVE",
"47 646 OFFCURVE",
"47 511 CURVE SMOOTH",
"47 343 OFFCURVE",
"195 308 OFFCURVE",
"321 280 CURVE SMOOTH",
"373 268 OFFCURVE",
"428 257 OFFCURVE",
"428 203 CURVE SMOOTH",
"428 161 OFFCURVE",
"394 139 OFFCURVE",
"335 139 CURVE SMOOTH",
"272 139 OFFCURVE",
"224 168 OFFCURVE",
"223 251 CURVE",
"34 224 LINE",
"42 84 OFFCURVE",
"137 -10 OFFCURVE",
"327 -10 CURVE SMOOTH",
"509 -10 OFFCURVE",
"632 77 OFFCURVE",
"632 219 CURVE SMOOTH",
"632 345 OFFCURVE",
"558 414 OFFCURVE",
"421 443 CURVE SMOOTH",
"320 465 OFFCURVE",
"246 472 OFFCURVE",
"246 532 CURVE SMOOTH",
"246 566 OFFCURVE",
"272 590 OFFCURVE",
"326 590 CURVE SMOOTH",
"373 590 OFFCURVE",
"426 569 OFFCURVE",
"427 497 CURVE"
);
}
);
};
layerId = "E787E54A-EE3E-475A-BF02-8501A6DA5144";
paths = (
{
closed = 1;
nodes = (
"616 524 LINE",
"609 652 OFFCURVE",
"504 738 OFFCURVE",
"326 738 CURVE SMOOTH",
"160 738 OFFCURVE",
"47 646 OFFCURVE",
"47 511 CURVE SMOOTH",
"47 343 OFFCURVE",
"195 308 OFFCURVE",
"321 280 CURVE SMOOTH",
"373 268 OFFCURVE",
"428 257 OFFCURVE",
"428 203 CURVE SMOOTH",
"428 161 OFFCURVE",
"394 139 OFFCURVE",
"335 139 CURVE SMOOTH",
"272 139 OFFCURVE",
"224 168 OFFCURVE",
"223 251 CURVE",
"34 224 LINE",
"42 84 OFFCURVE",
"151 -10 OFFCURVE",
"335 -10 CURVE SMOOTH",
"522 -10 OFFCURVE",
"632 82 OFFCURVE",
"632 219 CURVE SMOOTH",
"632 345 OFFCURVE",
"558 414 OFFCURVE",
"421 443 CURVE SMOOTH",
"320 465 OFFCURVE",
"246 472 OFFCURVE",
"246 532 CURVE SMOOTH",
"246 566 OFFCURVE",
"272 590 OFFCURVE",
"326 590 CURVE SMOOTH",
"373 590 OFFCURVE",
"426 569 OFFCURVE",
"427 497 CURVE"
);
}
);
width = 667;
},
{
anchors = (
{
name = bottom;
position = "{323, 0}";
},
{
name = top;
position = "{323, 729}";
}
);
layerId = "47995495-C855-4C5A-BA32-118EA0334940";
paths = (
{
closed = 1;
nodes = (
"591 521 LINE",
"585 653 OFFCURVE",
"487 739 OFFCURVE",
"320 739 CURVE SMOOTH",
"167 739 OFFCURVE",
"66 657 OFFCURVE",
"66 538 CURVE SMOOTH",
"66 417 OFFCURVE",
"149 363 OFFCURVE",
"319 326 CURVE SMOOTH",
"412 306 OFFCURVE",
"492 288 OFFCURVE",
"492 200 CURVE SMOOTH",
"492 112 OFFCURVE",
"426 78 OFFCURVE",
"328 78 CURVE SMOOTH",
"218 78 OFFCURVE",
"150 136 OFFCURVE",
"146 241 CURVE",
"43 229 LINE",
"46 86 OFFCURVE",
"151 -10 OFFCURVE",
"325 -10 CURVE SMOOTH",
"503 -10 OFFCURVE",
"603 76 OFFCURVE",
"603 206 CURVE SMOOTH",
"603 351 OFFCURVE",
"487 393 OFFCURVE",
"368 417 CURVE SMOOTH",
"247 442 OFFCURVE",
"175 466 OFFCURVE",
"175 545 CURVE SMOOTH",
"175 608 OFFCURVE",
"226 651 OFFCURVE",
"320 651 CURVE SMOOTH",
"420 651 OFFCURVE",
"482 600 OFFCURVE",
"487 509 CURVE"
);
}
);
width = 646;
}
);
leftKerningGroup = KO_S;
rightKerningGroup = KO_S;
unicode = 0053;
userData = {
KernOnName = S;
};
},
{
glyphname = Germandbls;
layers = (
{
layerId = "F114AD5B-DC62-4E73-AD12-1938E40AC8EF";
paths = (
{
closed = 1;
nodes = (
"151 0 LINE",
"151 669 LINE",
"528 669 LINE",
"316 409 LINE",
"316 351 LINE",
"343 364 OFFCURVE",
"384 372 OFFCURVE",
"423 372 CURVE SMOOTH",
"528 372 OFFCURVE",
"598 315 OFFCURVE",
"598 213 CURVE SMOOTH",
"598 112 OFFCURVE",
"520 45 OFFCURVE",
"402 45 CURVE SMOOTH",
"359 45 OFFCURVE",
"316 53 OFFCURVE",
"291 66 CURVE",
"291 9 LINE",
"316 -3 OFFCURVE",
"361 -10 OFFCURVE",
"403 -10 CURVE SMOOTH",
"565 -10 OFFCURVE",
"664 87 OFFCURVE",
"664 215 CURVE SMOOTH",
"664 342 OFFCURVE",
"573 424 OFFCURVE",
"437 424 CURVE SMOOTH",
"412 424 OFFCURVE",
"383 421 OFFCURVE",
"359 412 CURVE",
"400 393 LINE",
"400 426 LINE",
"609 678 LINE",
"609 729 LINE",
"86 729 LINE",
"86 0 LINE"
);
}
);
width = 707;
},
{
layerId = "E787E54A-EE3E-475A-BF02-8501A6DA5144";
paths = (
{
closed = 1;
nodes = (
"256 0 LINE",
"256 567 LINE",
"461 567 LINE",
"354 404 LINE",
"354 319 LINE",
"367 328 OFFCURVE",
"393 334 OFFCURVE",
"419 334 CURVE SMOOTH",
"493 334 OFFCURVE",
"535 300 OFFCURVE",
"535 240 CURVE SMOOTH",
"535 180 OFFCURVE",
"496 141 OFFCURVE",
"413 141 CURVE SMOOTH",
"386 141 OFFCURVE",
"359 145 OFFCURVE",
"344 151 CURVE",
"344 7 LINE",
"366 -3 OFFCURVE",
"409 -10 OFFCURVE",
"459 -10 CURVE SMOOTH",
"618 -10 OFFCURVE",
"735 81 OFFCURVE",
"735 218 CURVE SMOOTH",
"735 344 OFFCURVE",
"653 425 OFFCURVE",
"530 425 CURVE SMOOTH",
"505 425 OFFCURVE",
"454 418 OFFCURVE",
"427 409 CURVE",
"567 386 LINE",
"567 425 LINE",
"675 588 LINE",
"675 729 LINE",
"63 729 LINE",
"63 0 LINE"
);
}
);
width = 770;
},
{
layerId = "47995495-C855-4C5A-BA32-118EA0334940";
paths = (
{
closed = 1;
nodes = (
"190 0 LINE",
"190 637 LINE",
"502 637 LINE",
"319 408 LINE",
"319 336 LINE",
"340 353 OFFCURVE",
"381 365 OFFCURVE",
"425 365 CURVE SMOOTH",
"529 365 OFFCURVE",
"579 307 OFFCURVE",
"579 227 CURVE SMOOTH",
"579 133 OFFCURVE",
"511 76 OFFCURVE",
"405 76 CURVE SMOOTH",
"367 76 OFFCURVE",
"329 83 OFFCURVE",
"308 96 CURVE",
"308 9 LINE",
"331 -3 OFFCURVE",
"377 -10 OFFCURVE",
"420 -10 CURVE SMOOTH",
"575 -10 OFFCURVE",
"684 85 OFFCURVE",
"684 223 CURVE SMOOTH",
"684 352 OFFCURVE",
"588 433 OFFCURVE",
"466 433 CURVE SMOOTH",
"441 433 OFFCURVE",
"413 429 OFFCURVE",
"395 420 CURVE",
"460 399 LINE",
"460 437 LINE",
"630 650 LINE",
"630 729 LINE",
"86 729 LINE",
"86 0 LINE"
);
}
);
width = 727;
}
);
leftKerningGroup = KO_H;
leftMetricsKey = "=H";
rightKerningGroup = KO_S;
rightMetricsKey = "=S";
unicode = 1E9E;
},
{
color = 3;
glyphname = T;
layers = (
{
anchors = (
{
name = bottom;
position = "{296, 0}";
},
{
name = center;
position = "{296, 365}";
},
{
name = top;
position = "{296, 729}";
}
);
layerId = "F114AD5B-DC62-4E73-AD12-1938E40AC8EF";
paths = (
{
closed = 1;
nodes = (
"330 0 LINE",
"330 685 LINE",
"265 685 LINE",
"265 0 LINE"
);
},
{
closed = 1;
nodes = (
"598 669 LINE",
"598 729 LINE",
"-6 729 LINE",
"-6 669 LINE"
);
}
);
width = 592;
},
{
anchors = (
{
name = bottom;
position = "{343, 0}";
},
{
name = center;
position = "{343, 365}";
},
{
name = top;
position = "{343, 729}";
}
);
layerId = "E787E54A-EE3E-475A-BF02-8501A6DA5144";
paths = (
{
closed = 1;
nodes = (
"439 0 LINE",
"439 583 LINE",
"246 583 LINE",
"246 0 LINE"
);
},
{
closed = 1;
nodes = (
"654 567 LINE",
"654 729 LINE",
"31 729 LINE",
"31 567 LINE"
);
}
);
width = 685;
},
{
anchors = (
{
name = bottom;
position = "{299, 0}";
},
{
name = center;
position = "{299, 365}";
},
{
name = top;
position = "{299, 729}";
}
);
layerId = "47995495-C855-4C5A-BA32-118EA0334940";
paths = (
{
closed = 1;
nodes = (
"353 0 LINE",
"353 653 LINE",
"248 653 LINE",
"248 0 LINE"
);
},
{
closed = 1;
nodes = (
"604 637 LINE",
"604 729 LINE",
"-6 729 LINE",
"-6 637 LINE"
);
}
);
width = 598;
}
);
leftKerningGroup = KO_T;
rightKerningGroup = KO_T;
rightMetricsKey = "=|";
unicode = 0054;
userData = {
KernOnName = T;
};
},
{
color = 3;
glyphname = U;
layers = (
{
anchors = (
{
name = bottom;
position = "{372, 0}";
},
{
name = ogonek;
position = "{470, 10}";
},
{
name = top;
position = "{372, 729}";
},
{
name = topright;
position = "{653, 729}";
}
);
layerId = "F114AD5B-DC62-4E73-AD12-1938E40AC8EF";
paths = (
{
closed = 1;
nodes = (
"78 86 OFFCURVE",
"192 -10 OFFCURVE",
"372 -10 CURVE SMOOTH",
"562 -10 OFFCURVE",
"666 97 OFFCURVE",
"666 257 CURVE SMOOTH",
"666 729 LINE",
"601 729 LINE",
"601 264 LINE SMOOTH",
"601 137 OFFCURVE",
"537 53 OFFCURVE",
"372 53 CURVE SMOOTH",
"235 53 OFFCURVE",
"143 112 OFFCURVE",
"143 264 CURVE SMOOTH",
"143 729 LINE",
"78 729 LINE",
"78 257 LINE SMOOTH"
);
}
);
width = 744;
},
{
anchors = (
{
name = bottom;
position = "{381, 0}";
},
{
name = ogonek;
position = "{505, 10}";
},
{
name = top;
position = "{381, 729}";
},
{
name = topright;
position = "{689, 729}";
}
);
layerId = "E787E54A-EE3E-475A-BF02-8501A6DA5144";
paths = (
{
closed = 1;
nodes = (
"54 89 OFFCURVE",
"174 -10 OFFCURVE",
"379 -10 CURVE SMOOTH",
"598 -10 OFFCURVE",
"707 100 OFFCURVE",
"707 264 CURVE SMOOTH",
"707 729 LINE",
"515 729 LINE",
"515 275 LINE SMOOTH",
"515 201 OFFCURVE",
"472 159 OFFCURVE",
"381 159 CURVE SMOOTH",
"300 159 OFFCURVE",
"246 193 OFFCURVE",
"246 275 CURVE SMOOTH",
"246 729 LINE",
"54 729 LINE",
"54 264 LINE SMOOTH"
);
}
);
width = 761;
},
{
anchors = (
{
name = bottom;
position = "{382, 0}";
},
{
name = ogonek;
position = "{488, 10}";
},
{
name = top;
position = "{382, 729}";
},
{
name = topright;
position = "{671, 729}";
}
);
layerId = "47995495-C855-4C5A-BA32-118EA0334940";
paths = (
{
closed = 1;
nodes = (
"78 87 OFFCURVE",
"194 -10 OFFCURVE",
"381 -10 CURVE SMOOTH",
"580 -10 OFFCURVE",
"686 98 OFFCURVE",
"686 260 CURVE SMOOTH",
"686 729 LINE",
"582 729 LINE",
"582 268 LINE SMOOTH",
"582 157 OFFCURVE",
"524 86 OFFCURVE",
"383 86 CURVE SMOOTH",
"263 86 OFFCURVE",
"183 137 OFFCURVE",
"183 268 CURVE SMOOTH",
"183 729 LINE",
"78 729 LINE",
"78 260 LINE SMOOTH"
);
}
);
width = 764;
}
);
leftKerningGroup = KO_U;
rightKerningGroup = KO_U;
rightMetricsKey = "=|";
unicode = 0055;
},
{
glyphname = Udieresisacute;
layers = (
{
components = (
{
name = U;
}
);
layerId = "F114AD5B-DC62-4E73-AD12-1938E40AC8EF";
paths = (
{
closed = 1;
nodes = (
"475 1003 LINE",
"406 1003 LINE",
"347 918 LINE",
"397 918 LINE",
"475 1001 LINE"
);
},
{
closed = 1;
nodes = (
"307 777 LINE",
"307 891 LINE",
"244 891 LINE",
"244 777 LINE"
);
},
{
closed = 1;
nodes = (
"499 777 LINE",
"499 891 LINE",
"436 891 LINE",
"436 777 LINE"
);
}
);
width = 757;
},
{
components = (
{
name = U;
}
);
layerId = "E787E54A-EE3E-475A-BF02-8501A6DA5144";
paths = (
{
closed = 1;
nodes = (
"556 1031 LINE",
"397 1031 LINE",
"338 931 LINE",
"452 931 LINE",
"556 1027 LINE"
);
},
{
closed = 1;
nodes = (
"348 786 LINE",
"348 900 LINE",
"186 900 LINE",
"186 786 LINE"
);
},
{
closed = 1;
nodes = (
"589 786 LINE",
"589 900 LINE",
"427 900 LINE",
"427 786 LINE"
);
}
);
width = 785;
},
{
components = (
{
alignment = -1;
name = U;
}
);
layerId = "47995495-C855-4C5A-BA32-118EA0334940";
paths = (
{
closed = 1;
nodes = (
"501 1012 LINE",
"404 1012 LINE",
"345 922 LINE",
"415 922 LINE",
"501 1009 LINE"
);
},
{
closed = 1;
nodes = (
"321 780 LINE",
"321 894 LINE",
"227 894 LINE",
"227 780 LINE"
);
},
{
closed = 1;
nodes = (
"527 780 LINE",
"527 894 LINE",
"434 894 LINE",
"434 780 LINE"
);
}
);
width = 777;
}
);
leftKerningGroup = KO_U;
rightKerningGroup = KO_C;
unicode = 01D7;
},
{
glyphname = Udieresiscaron;
layers = (
{
components = (
{
name = U;
}
);
layerId = "F114AD5B-DC62-4E73-AD12-1938E40AC8EF";
paths = (
{
closed = 1;
nodes = (
"235 998 LINE",
"350 918 LINE",
"392 918 LINE",
"507 998 LINE",
"507 1003 LINE",
"437 1003 LINE",
"371 954 LINE",
"305 1003 LINE",
"235 1003 LINE"
);
},
{
closed = 1;
nodes = (
"306 777 LINE",
"306 891 LINE",
"243 891 LINE",
"243 777 LINE"
);
},
{
closed = 1;
nodes = (
"498 777 LINE",
"498 891 LINE",
"435 891 LINE",
"435 777 LINE"
);
}
);
width = 757;
},
{
components = (
{
name = U;
}
);
layerId = "E787E54A-EE3E-475A-BF02-8501A6DA5144";
paths = (
{
closed = 1;
nodes = (
"188 1025 LINE",
"308 931 LINE",
"468 931 LINE",
"588 1025 LINE",
"588 1031 LINE",
"433 1031 LINE",
"388 994 LINE",
"343 1031 LINE",
"188 1031 LINE"
);
},
{
closed = 1;
nodes = (
"348 781 LINE",
"348 895 LINE",
"186 895 LINE",
"186 781 LINE"
);
},
{
closed = 1;
nodes = (
"589 781 LINE",
"589 895 LINE",
"427 895 LINE",
"427 781 LINE"
);
}
);
width = 785;
},
{
components = (
{
alignment = -1;
name = U;
}
);
layerId = "47995495-C855-4C5A-BA32-118EA0334940";
paths = (
{
closed = 1;
nodes = (
"221 1006 LINE",
"338 922 LINE",
"416 922 LINE",
"533 1006 LINE",
"533 1012 LINE",
"436 1012 LINE",
"377 966 LINE",
"318 1012 LINE",
"221 1012 LINE"
);
},
{
closed = 1;
nodes = (
"320 778 LINE",
"320 892 LINE",
"226 892 LINE",
"226 778 LINE"
);
},
{
closed = 1;
nodes = (
"527 778 LINE",
"527 892 LINE",
"434 892 LINE",
"434 778 LINE"
);
}
);
width = 777;
}
);
leftKerningGroup = KO_U;
rightKerningGroup = KO_C;
unicode = 01D9;
},
{
glyphname = Udieresisgrave;
layers = (
{
components = (
{
name = U;
}
);
layerId = "F114AD5B-DC62-4E73-AD12-1938E40AC8EF";
paths = (
{
closed = 1;
nodes = (
"354 918 LINE",
"404 918 LINE",
"345 1003 LINE",
"276 1003 LINE",
"276 1001 LINE"
);
},
{
closed = 1;
nodes = (
"306 777 LINE",
"306 891 LINE",
"243 891 LINE",
"243 777 LINE"
);
},
{
closed = 1;
nodes = (
"498 777 LINE",
"498 891 LINE",
"435 891 LINE",
"435 777 LINE"
);
}
);
width = 757;
},
{
components = (
{
name = U;
}
);
layerId = "E787E54A-EE3E-475A-BF02-8501A6DA5144";
paths = (
{
closed = 1;
nodes = (
"332 931 LINE",
"446 931 LINE",
"387 1031 LINE",
"228 1031 LINE",
"228 1027 LINE"
);
},
{
closed = 1;
nodes = (
"348 781 LINE",
"348 895 LINE",
"186 895 LINE",
"186 781 LINE"
);
},
{
closed = 1;
nodes = (
"589 781 LINE",
"589 895 LINE",
"427 895 LINE",
"427 781 LINE"
);
}
);
width = 785;
},
{
components = (
{
alignment = -1;
name = U;
}
);
layerId = "47995495-C855-4C5A-BA32-118EA0334940";
paths = (
{
closed = 1;
nodes = (
"348 922 LINE",
"418 922 LINE",
"359 1012 LINE",
"262 1012 LINE",
"262 1009 LINE"
);
},
{
closed = 1;
nodes = (
"320 778 LINE",
"320 892 LINE",
"226 892 LINE",
"226 778 LINE"
);
},
{
closed = 1;
nodes = (
"527 778 LINE",
"527 892 LINE",
"434 892 LINE",
"434 778 LINE"
);
}
);
width = 777;
}
);
leftKerningGroup = KO_U;
rightKerningGroup = KO_C;
unicode = 01DB;
},
{
glyphname = Udieresismacron;
layers = (
{
components = (
{
name = U;
}
);
layerId = "F114AD5B-DC62-4E73-AD12-1938E40AC8EF";
paths = (
{
closed = 1;
nodes = (
"492 948 LINE",
"492 993 LINE",
"260 993 LINE",
"260 948 LINE"
);
},
{
closed = 1;
nodes = (
"311 777 LINE",
"311 891 LINE",
"248 891 LINE",
"248 777 LINE"
);
},
{
closed = 1;
nodes = (
"503 777 LINE",
"503 891 LINE",
"440 891 LINE",
"440 777 LINE"
);
}
);
width = 744;
},
{
components = (
{
name = U;
}
);
layerId = "E787E54A-EE3E-475A-BF02-8501A6DA5144";
paths = (
{
closed = 1;
nodes = (
"551 931 LINE",
"551 1030 LINE",
"194 1030 LINE",
"194 931 LINE"
);
},
{
closed = 1;
nodes = (
"340 781 LINE",
"340 895 LINE",
"194 895 LINE",
"194 781 LINE"
);
},
{
closed = 1;
nodes = (
"551 781 LINE",
"551 895 LINE",
"405 895 LINE",
"405 781 LINE"
);
}
);
width = 785;
},
{
components = (
{
name = U;
}
);
layerId = "47995495-C855-4C5A-BA32-118EA0334940";
paths = (
{
closed = 1;
nodes = (
"544 943 LINE",
"544 1005 LINE",
"248 1005 LINE",
"248 943 LINE"
);
},
{
closed = 1;
nodes = (
"340 778 LINE",
"340 892 LINE",
"248 892 LINE",
"248 778 LINE"
);
},
{
closed = 1;
nodes = (
"544 778 LINE",
"544 892 LINE",
"452 892 LINE",
"452 778 LINE"
);
}
);
width = 764;
}
);
leftKerningGroup = KO_U;
rightKerningGroup = KO_C;
unicode = 01D5;
},
{
color = 3;
glyphname = V;
layers = (
{
anchors = (
{
name = bottom;
position = "{326, 0}";
},
{
name = top;
position = "{326, 729}";
}
);
layerId = "F114AD5B-DC62-4E73-AD12-1938E40AC8EF";
paths = (
{
closed = 1;
nodes = (
"-8 729 LINE",
"288 0 LINE",
"363 0 LINE",
"659 729 LINE",
"590 729 LINE",
"411 274 LINE SMOOTH",
"384 206 OFFCURVE",
"356 139 OFFCURVE",
"327 64 CURVE",
"325 64 LINE",
"296 139 OFFCURVE",
"268 206 OFFCURVE",
"241 275 CURVE SMOOTH",
"62 729 LINE"
);
}
);
width = 651;
},
{
anchors = (
{
name = bottom;
position = "{398, 0}";
},
{
name = top;
position = "{398, 729}";
}
);
layerId = "E787E54A-EE3E-475A-BF02-8501A6DA5144";
paths = (
{
closed = 1;
nodes = (
"25 729 LINE",
"294 0 LINE",
"502 0 LINE",
"770 729 LINE",
"572 729 LINE",
"462 403 LINE SMOOTH",
"434 320 OFFCURVE",
"407 251 OFFCURVE",
"399 217 CURVE",
"397 217 LINE",
"387 256 OFFCURVE",
"359 336 OFFCURVE",
"337 404 CURVE SMOOTH",
"230 729 LINE"
);
}
);
width = 795;
},
{
anchors = (
{
name = bottom;
position = "{338, 0}";
},
{
name = top;
position = "{338, 729}";
}
);
layerId = "47995495-C855-4C5A-BA32-118EA0334940";
paths = (
{
closed = 1;
nodes = (
"-8 729 LINE",
"280 0 LINE",
"396 0 LINE",
"683 729 LINE",
"574 729 LINE",
"416 314 LINE SMOOTH",
"389 242 OFFCURVE",
"361 174 OFFCURVE",
"339 112 CURVE",
"337 112 LINE",
"314 175 OFFCURVE",
"263 311 OFFCURVE",
"261 315 CURVE SMOOTH",
"104 729 LINE"
);
}
);
width = 675;
}
);
leftKerningGroup = KO_V;
rightKerningGroup = KO_V;
rightMetricsKey = "=|";
unicode = 0056;
userData = {
KernOnName = V;
};
},
{
color = 3;
glyphname = W;
layers = (
{
anchors = (
{
name = bottom;
position = "{455, 0}";
},
{
name = top;
position = "{455, 729}";
}
);
layerId = "F114AD5B-DC62-4E73-AD12-1938E40AC8EF";
paths = (
{
closed = 1;
nodes = (
"277 0 LINE",
"460 658 LINE",
"450 658 LINE",
"633 0 LINE",
"703 0 LINE",
"910 729 LINE",
"844 729 LINE",
"662 68 LINE",
"674 68 LINE",
"491 729 LINE",
"419 729 LINE",
"236 70 LINE",
"248 70 LINE",
"66 729 LINE",
"0 729 LINE",
"207 0 LINE"
);
}
);
width = 910;
},
{
anchors = (
{
name = bottom;
position = "{542, 0}";
},
{
name = top;
position = "{542, 729}";
}
);
layerId = "E787E54A-EE3E-475A-BF02-8501A6DA5144";
paths = (
{
closed = 1;
nodes = (
"446 0 LINE",
"549 441 LINE",
"535 441 LINE",
"638 0 LINE",
"846 0 LINE",
"1055 729 LINE",
"856 729 LINE",
"737 218 LINE",
"751 218 LINE",
"630 729 LINE",
"452 729 LINE",
"329 219 LINE",
"343 219 LINE",
"225 729 LINE",
"28 729 LINE",
"235 0 LINE"
);
}
);
width = 1083;
},
{
anchors = (
{
name = bottom;
position = "{479, 0}";
},
{
name = top;
position = "{479, 729}";
}
);
layerId = "47995495-C855-4C5A-BA32-118EA0334940";
paths = (
{
closed = 1;
nodes = (
"317 0 LINE",
"485 617 LINE",
"470 617 LINE",
"635 0 LINE",
"752 0 LINE",
"957 729 LINE",
"848 729 LINE",
"689 104 LINE",
"699 104 LINE",
"532 729 LINE",
"423 729 LINE",
"253 102 LINE",
"266 102 LINE",
"107 729 LINE",
"0 729 LINE",
"200 0 LINE"
);
}
);
width = 957;
}
);
leftKerningGroup = KO_W;
rightKerningGroup = KO_W;
rightMetricsKey = "=|";
unicode = 0057;
userData = {
KernOnName = W;
};
},
{
color = 3;
glyphname = X;
layers = (
{
anchors = (
{
name = bottom;
position = "{299, 0}";
},
{
name = top;
position = "{299, 729}";
}
);
layerId = "F114AD5B-DC62-4E73-AD12-1938E40AC8EF";
paths = (
{
closed = 1;
nodes = (
"63 0 LINE",
"302 340 LINE",
"531 0 LINE",
"611 0 LINE",
"344 390 LINE",
"588 729 LINE",
"510 729 LINE",
"305 436 LINE",
"105 729 LINE",
"28 729 LINE",
"265 388 LINE",
"-14 0 LINE"
);
}
);
width = 597;
},
{
anchors = (
{
name = bottom;
position = "{403, 0}";
},
{
name = top;
position = "{403, 729}";
}
);
layerId = "E787E54A-EE3E-475A-BF02-8501A6DA5144";
paths = (
{
closed = 1;
nodes = (
"247 0 LINE",
"401 244 LINE",
"555 0 LINE",
"787 0 LINE",
"525 384 LINE",
"756 729 LINE",
"530 729 LINE",
"405 517 LINE",
"278 729 LINE",
"47 729 LINE",
"281 380 LINE",
"18 0 LINE"
);
}
);
width = 805;
},
{
anchors = (
{
name = bottom;
position = "{316, 0}";
},
{
name = top;
position = "{316, 729}";
}
);
layerId = "47995495-C855-4C5A-BA32-118EA0334940";
paths = (
{
closed = 1;
nodes = (
"109 0 LINE",
"318 310 LINE",
"519 0 LINE",
"645 0 LINE",
"384 384 LINE",
"622 729 LINE",
"497 729 LINE",
"320 454 LINE",
"143 729 LINE",
"20 729 LINE",
"254 381 LINE",
"-14 0 LINE"
);
}
);
width = 631;
}
);
leftKerningGroup = KO_X;
rightKerningGroup = KO_K;
rightMetricsKey = "=|";
unicode = 0058;
},
{
color = 3;
glyphname = Y;
layers = (
{
anchors = (
{
name = bottom;
position = "{308, 0}";
},
{
name = top;
position = "{308, 729}";
},
{
name = topleft;
position = "{20, 729}";
}
);
layerId = "F114AD5B-DC62-4E73-AD12-1938E40AC8EF";
paths = (
{
closed = 1;
nodes = (
"340 0 LINE",
"340 323 LINE",
"627 729 LINE",
"550 729 LINE",
"308 379 LINE",
"67 729 LINE",
"-12 729 LINE",
"275 323 LINE",
"275 0 LINE"
);
}
);
width = 615;
},
{
anchors = (
{
name = bottom;
position = "{388, 0}";
},
{
name = top;
position = "{388, 729}";
},
{
name = topleft;
position = "{20, 729}";
}
);
layerId = "E787E54A-EE3E-475A-BF02-8501A6DA5144";
paths = (
{
closed = 1;
nodes = (
"484 0 LINE",
"484 324 LINE",
"751 729 LINE",
"525 729 LINE",
"390 495 LINE",
"256 729 LINE",
"24 729 LINE",
"291 324 LINE",
"291 0 LINE"
);
}
);
width = 775;
},
{
anchors = (
{
name = bottom;
position = "{318, 0}";
},
{
name = top;
position = "{318, 729}";
},
{
name = topleft;
position = "{20, 729}";
}
);
layerId = "47995495-C855-4C5A-BA32-118EA0334940";
paths = (
{
closed = 1;
nodes = (
"370 0 LINE",
"370 304 LINE",
"648 729 LINE",
"527 729 LINE",
"319 398 LINE",
"112 729 LINE",
"-12 729 LINE",
"266 304 LINE",
"266 0 LINE"
);
}
);
width = 636;
}
);
leftKerningGroup = KO_Y;
rightKerningGroup = KO_Y;
rightMetricsKey = "=|";
unicode = 0059;
},
{
color = 3;
glyphname = Z;
layers = (
{
anchors = (
{
name = bottom;
position = "{325, 0}";
},
{
name = center;
position = "{325, 365}";
},
{
name = top;
position = "{325, 729}";
}
);
layerId = "F114AD5B-DC62-4E73-AD12-1938E40AC8EF";
paths = (
{
closed = 1;
nodes = (
"633 0 LINE",
"633 64 LINE",
"110 64 LINE",
"617 677 LINE",
"617 729 LINE",
"31 729 LINE",
"31 666 LINE",
"523 666 LINE",
"16 52 LINE",
"16 0 LINE"
);
}
);
width = 649;
},
{
anchors = (
{
name = bottom;
position = "{348, 0}";
},
{
name = center;
position = "{348, 365}";
},
{
name = top;
position = "{348, 729}";
}
);
layerId = "E787E54A-EE3E-475A-BF02-8501A6DA5144";
paths = (
{
closed = 1;
nodes = (
"655 0 LINE",
"655 162 LINE",
"293 162 LINE",
"641 574 LINE",
"641 729 LINE",
"54 729 LINE",
"54 567 LINE",
"380 567 LINE",
"41 157 LINE",
"41 0 LINE"
);
}
);
width = 695;
},
{
anchors = (
{
name = bottom;
position = "{324, 0}";
},
{
name = center;
position = "{324, 365}";
},
{
name = top;
position = "{324, 729}";
}
);
layerId = "47995495-C855-4C5A-BA32-118EA0334940";
paths = (
{
closed = 1;
nodes = (
"632 0 LINE",
"632 95 LINE",
"159 95 LINE",
"617 645 LINE",
"617 729 LINE",
"30 729 LINE",
"30 635 LINE",
"471 635 LINE",
"16 85 LINE",
"16 0 LINE"
);
}
);
width = 648;
}
);
leftKerningGroup = KO_Z;
rightKerningGroup = KO_Z;
unicode = 005A;
},
{
color = 3;
glyphname = Q.SS01;
layers = (
{
layerId = "F114AD5B-DC62-4E73-AD12-1938E40AC8EF";
paths = (
{
closed = 1;
nodes = (
"692 -76 LINE",
"631 -52 LINE SMOOTH",
"553 -22 OFFCURVE",
"482 1 OFFCURVE",
"450 8 CURVE",
"450 4 LINE",
"606 32 OFFCURVE",
"704 155 OFFCURVE",
"704 365 CURVE SMOOTH",
"704 589 OFFCURVE",
"584 738 OFFCURVE",
"372 738 CURVE SMOOTH",
"173 738 OFFCURVE",
"41 603 OFFCURVE",
"41 364 CURVE SMOOTH",
"41 140 OFFCURVE",
"160 -10 OFFCURVE",
"372 -10 CURVE",
"668 -137 LINE"
);
},
{
closed = 1;
nodes = (
"204 53 OFFCURVE",
"110 165 OFFCURVE",
"110 365 CURVE SMOOTH",
"110 565 OFFCURVE",
"204 677 OFFCURVE",
"372 677 CURVE SMOOTH",
"540 677 OFFCURVE",
"635 564 OFFCURVE",
"635 364 CURVE SMOOTH",
"635 165 OFFCURVE",
"540 53 OFFCURVE",
"372 53 CURVE SMOOTH"
);
}
);
width = 745;
},
{
layerId = "E787E54A-EE3E-475A-BF02-8501A6DA5144";
paths = (
{
closed = 1;
nodes = (
"750 17 LINE",
"715 30 LINE SMOOTH",
"641 57 OFFCURVE",
"584 68 OFFCURVE",
"535 70 CURVE",
"535 46 LINE",
"664 86 OFFCURVE",
"734 222 OFFCURVE",
"734 365 CURVE SMOOTH",
"734 619 OFFCURVE",
"594 738 OFFCURVE",
"385 738 CURVE SMOOTH",
"149 738 OFFCURVE",
"37 589 OFFCURVE",
"37 365 CURVE SMOOTH",
"37 110 OFFCURVE",
"176 -10 OFFCURVE",
"385 -10 CURVE",
"689 -139 LINE"
);
},
{
closed = 1;
nodes = (
"281 161 OFFCURVE",
"241 243 OFFCURVE",
"241 365 CURVE SMOOTH",
"241 510 OFFCURVE",
"299 567 OFFCURVE",
"385 567 CURVE SMOOTH",
"490 567 OFFCURVE",
"531 486 OFFCURVE",
"531 365 CURVE SMOOTH",
"531 218 OFFCURVE",
"473 161 OFFCURVE",
"385 161 CURVE SMOOTH"
);
}
);
width = 793;
},
{
layerId = "47995495-C855-4C5A-BA32-118EA0334940";
paths = (
{
closed = 1;
nodes = (
"708 -42 LINE",
"666 -24 LINE SMOOTH",
"596 5 OFFCURVE",
"528 19 OFFCURVE",
"478 23 CURVE",
"478 18 LINE",
"627 47 OFFCURVE",
"715 178 OFFCURVE",
"715 365 CURVE SMOOTH",
"715 598 OFFCURVE",
"588 738 OFFCURVE",
"377 738 CURVE SMOOTH",
"167 738 OFFCURVE",
"41 599 OFFCURVE",
"41 364 CURVE SMOOTH",
"41 131 OFFCURVE",
"167 -10 OFFCURVE",
"377 -10 CURVE",
"671 -135 LINE"
);
},
{
closed = 1;
nodes = (
"229 86 OFFCURVE",
"151 190 OFFCURVE",
"151 365 CURVE SMOOTH",
"151 548 OFFCURVE",
"235 643 OFFCURVE",
"377 643 CURVE SMOOTH",
"525 643 OFFCURVE",
"604 540 OFFCURVE",
"604 364 CURVE SMOOTH",
"604 181 OFFCURVE",
"520 86 OFFCURVE",
"377 86 CURVE SMOOTH"
);
}
);
width = 756;
}
);
leftMetricsKey = "=O";
},
{
color = 3;
glyphname = R.calt;
layers = (
{
anchors = (
{
name = bottom;
position = "{348, 0}";
},
{
name = top;
position = "{348, 699}";
}
);
background = {
paths = (
{
closed = 1;
nodes = (
"151 0 LINE",
"151 340 LINE",
"437 340 LINE SMOOTH",
"521 340 OFFCURVE",
"563 308 OFFCURVE",
"563 214 CURVE SMOOTH",
"563 92 LINE SMOOTH",
"563 35 OFFCURVE",
"569 11 OFFCURVE",
"576 0 CURVE",
"649 0 LINE",
"649 9 LINE",
"641 14 OFFCURVE",
"628 28 OFFCURVE",
"628 69 CURVE SMOOTH",
"628 227 LINE SMOOTH",
"628 298 OFFCURVE",
"601 347 OFFCURVE",
"523 370 CURVE",
"599 397 OFFCURVE",
"644 461 OFFCURVE",
"644 539 CURVE SMOOTH",
"644 653 OFFCURVE",
"569 729 OFFCURVE",
"425 729 CURVE SMOOTH",
"86 729 LINE",
"86 0 LINE"
);
},
{
closed = 1;
nodes = (
"151 669 LINE",
"411 669 LINE SMOOTH",
"517 669 OFFCURVE",
"576 626 OFFCURVE",
"576 535 CURVE SMOOTH",
"576 447 OFFCURVE",
"523 398 OFFCURVE",
"411 398 CURVE SMOOTH",
"151 398 LINE"
);
}
);
};
layerId = "F114AD5B-DC62-4E73-AD12-1938E40AC8EF";
paths = (
{
closed = 1;
nodes = (
"151 0 LINE",
"151 340 LINE",
"457 340 LINE SMOOTH",
"541 340 OFFCURVE",
"563 308 OFFCURVE",
"563 214 CURVE SMOOTH",
"563 50 LINE SMOOTH",
"563 30 OFFCURVE",
"564 12 OFFCURVE",
"572 0 CURVE",
"641 0 LINE",
"641 6 LINE",
"630 13 OFFCURVE",
"628 23 OFFCURVE",
"628 46 CURVE SMOOTH",
"628 227 LINE SMOOTH",
"628 298 OFFCURVE",
"621 347 OFFCURVE",
"523 370 CURVE",
"599 397 OFFCURVE",
"644 461 OFFCURVE",
"644 539 CURVE SMOOTH",
"644 653 OFFCURVE",
"569 729 OFFCURVE",
"425 729 CURVE SMOOTH",
"86 729 LINE",
"86 0 LINE"
);
},
{
closed = 1;
nodes = (
"151 668 LINE",
"411 668 LINE SMOOTH",
"517 668 OFFCURVE",
"576 627 OFFCURVE",
"576 536 CURVE SMOOTH",
"576 448 OFFCURVE",
"523 401 OFFCURVE",
"411 401 CURVE SMOOTH",
"151 401 LINE"
);
}
);
width = 710;
},
{
anchors = (
{
name = bottom;
position = "{370, 0}";
},
{
name = top;
position = "{370, 729}";
}
);
background = {
paths = (
{
closed = 1;
nodes = (
"271 0 LINE",
"271 249 LINE",
"422 249 LINE SMOOTH",
"472 249 OFFCURVE",
"505 227 OFFCURVE",
"505 168 CURVE SMOOTH",
"505 90 LINE SMOOTH",
"505 46 OFFCURVE",
"510 18 OFFCURVE",
"518 0 CURVE",
"718 0 LINE",
"718 17 LINE",
"710 24 OFFCURVE",
"697 43 OFFCURVE",
"697 107 CURVE SMOOTH",
"697 201 LINE SMOOTH",
"697 290 OFFCURVE",
"651 350 OFFCURVE",
"510 340 CURVE",
"568 324 LINE",
"651 346 OFFCURVE",
"702 421 OFFCURVE",
"702 510 CURVE SMOOTH",
"702 641 OFFCURVE",
"612 729 OFFCURVE",
"451 729 CURVE SMOOTH",
"78 729 LINE",
"78 0 LINE"
);
},
{
closed = 1;
nodes = (
"271 567 LINE",
"412 567 LINE SMOOTH",
"463 567 OFFCURVE",
"501 541 OFFCURVE",
"501 485 CURVE SMOOTH",
"501 436 OFFCURVE",
"469 403 OFFCURVE",
"409 403 CURVE SMOOTH",
"271 403 LINE"
);
}
);
};
guideLines = (
{
position = "{78, 729}";
}
);
layerId = "E787E54A-EE3E-475A-BF02-8501A6DA5144";
paths = (
{
closed = 1;
nodes = (
"256 0 LINE",
"256 255 LINE",
"445 255 LINE SMOOTH",
"494 255 OFFCURVE",
"499 231 OFFCURVE",
"499 198 CURVE SMOOTH",
"499 61 LINE SMOOTH",
"499 33 OFFCURVE",
"503 14 OFFCURVE",
"508 0 CURVE",
"710 0 LINE",
"710 9 LINE",
"698 18 OFFCURVE",
"692 37 OFFCURVE",
"692 53 CURVE SMOOTH",
"692 217 LINE SMOOTH",
"692 288 OFFCURVE",
"679 335 OFFCURVE",
"587 354 CURVE",
"661 380 OFFCURVE",
"702 444 OFFCURVE",
"702 525 CURVE SMOOTH",
"702 656 OFFCURVE",
"603 729 OFFCURVE",
"461 729 CURVE SMOOTH",
"63 729 LINE",
"63 0 LINE"
);
},
{
closed = 1;
nodes = (
"256 568 LINE",
"412 568 LINE SMOOTH",
"463 568 OFFCURVE",
"501 542 OFFCURVE",
"501 488 CURVE SMOOTH",
"501 441 OFFCURVE",
"469 408 OFFCURVE",
"409 408 CURVE SMOOTH",
"256 408 LINE"
);
}
);
width = 750;
},
{
anchors = (
{
name = bottom;
position = "{357, 0}";
},
{
name = top;
position = "{357, 708}";
}
);
background = {
paths = (
{
closed = 1;
nodes = (
"190 0 LINE",
"190 314 LINE",
"435 314 LINE SMOOTH",
"509 314 OFFCURVE",
"547 280 OFFCURVE",
"547 205 CURVE SMOOTH",
"547 92 LINE SMOOTH",
"547 41 OFFCURVE",
"552 13 OFFCURVE",
"561 0 CURVE",
"675 0 LINE",
"675 13 LINE",
"665 18 OFFCURVE",
"651 33 OFFCURVE",
"651 76 CURVE SMOOTH",
"651 223 LINE SMOOTH",
"651 295 OFFCURVE",
"619 338 OFFCURVE",
"541 359 CURVE",
"618 382 OFFCURVE",
"665 449 OFFCURVE",
"665 534 CURVE SMOOTH",
"665 651 OFFCURVE",
"581 729 OFFCURVE",
"432 729 CURVE SMOOTH",
"86 729 LINE",
"86 0 LINE"
);
},
{
closed = 1;
nodes = (
"190 637 LINE",
"423 637 LINE SMOOTH",
"507 637 OFFCURVE",
"555 595 OFFCURVE",
"555 519 CURVE SMOOTH",
"555 443 OFFCURVE",
"507 399 OFFCURVE",
"422 399 CURVE SMOOTH",
"190 399 LINE"
);
}
);
};
layerId = "47995495-C855-4C5A-BA32-118EA0334940";
paths = (
{
closed = 1;
nodes = (
"190 0 LINE",
"190 314 LINE",
"455 314 LINE SMOOTH",
"529 314 OFFCURVE",
"547 280 OFFCURVE",
"547 205 CURVE SMOOTH",
"547 65 LINE SMOOTH",
"547 29 OFFCURVE",
"552 13 OFFCURVE",
"561 0 CURVE",
"668 0 LINE",
"668 11 LINE",
"653 16 OFFCURVE",
"651 33 OFFCURVE",
"651 49 CURVE SMOOTH",
"651 223 LINE SMOOTH",
"651 295 OFFCURVE",
"639 338 OFFCURVE",
"541 359 CURVE",
"618 382 OFFCURVE",
"665 449 OFFCURVE",
"665 534 CURVE SMOOTH",
"665 651 OFFCURVE",
"581 729 OFFCURVE",
"432 729 CURVE SMOOTH",
"86 729 LINE",
"86 0 LINE"
);
},
{
closed = 1;
nodes = (
"190 637 LINE",
"423 637 LINE SMOOTH",
"507 637 OFFCURVE",
"555 598 OFFCURVE",
"555 522 CURVE SMOOTH",
"555 446 OFFCURVE",
"507 405 OFFCURVE",
"422 405 CURVE SMOOTH",
"190 405 LINE"
);
}
);
width = 736;
}
);
leftKerningGroup = KO_H;
leftMetricsKey = "=H";
rightKerningGroup = KO_R.calt;
userData = {
KernOnName = R.calt;
};
},
{
glyphname = Adieresis.case;
layers = (
{
anchors = (
{
name = _top;
position = "{357, 699}";
}
);
components = (
{
name = A;
}
);
layerId = "F114AD5B-DC62-4E73-AD12-1938E40AC8EF";
paths = (
{
closed = 1;
nodes = (
"169 595 LINE",
"169 729 LINE",
"106 729 LINE",
"106 595 LINE"
);
},
{
closed = 1;
nodes = (
"609 595 LINE",
"609 729 LINE",
"546 729 LINE",
"546 595 LINE"
);
}
);
width = 713;
},
{
anchors = (
{
name = _top;
position = "{424, 729}";
}
);
components = (
{
name = A;
transform = "{1, 0, 0, 1, 29, 0}";
}
);
layerId = "E787E54A-EE3E-475A-BF02-8501A6DA5144";
paths = (
{
closed = 1;
nodes = (
"214 565 LINE",
"214 729 LINE",
"52 729 LINE",
"52 565 LINE"
);
},
{
closed = 1;
nodes = (
"795 565 LINE",
"795 729 LINE",
"633 729 LINE",
"633 565 LINE"
);
}
);
width = 850;
},
{
anchors = (
{
name = _top;
position = "{375, 708}";
}
);
components = (
{
name = A;
}
);
layerId = "47995495-C855-4C5A-BA32-118EA0334940";
paths = (
{
closed = 1;
nodes = (
"184 586 LINE",
"184 729 LINE",
"90 729 LINE",
"90 586 LINE"
);
},
{
closed = 1;
nodes = (
"658 586 LINE",
"658 729 LINE",
"565 729 LINE",
"565 586 LINE"
);
}
);
width = 738;
}
);
leftKerningGroup = KO_x;
rightKerningGroup = KO_E;
},
{
glyphname = Amacron.case;
layers = (
{
anchors = (
{
name = _top;
position = "{358, 699}";
}
);
components = (
{
name = A;
}
);
layerId = "F114AD5B-DC62-4E73-AD12-1938E40AC8EF";
paths = (
{
closed = 1;
nodes = (
"654 669 LINE",
"654 729 LINE",
"62 729 LINE",
"62 669 LINE"
);
}
);
width = 717;
},
{
anchors = (
{
name = _top;
position = "{414, 729}";
}
);
components = (
{
name = A;
transform = "{1, 0, 0, 1, 19, 0}";
}
);
layerId = "E787E54A-EE3E-475A-BF02-8501A6DA5144";
paths = (
{
closed = 1;
nodes = (
"744 565 LINE",
"744 729 LINE",
"83 729 LINE",
"83 565 LINE"
);
}
);
width = 830;
},
{
anchors = (
{
name = _top;
position = "{376, 708}";
}
);
components = (
{
name = A;
}
);
layerId = "47995495-C855-4C5A-BA32-118EA0334940";
paths = (
{
closed = 1;
nodes = (
"655 637 LINE",
"655 729 LINE",
"95 729 LINE",
"95 637 LINE"
);
}
);
width = 742;
}
);
leftKerningGroup = KO_x;
rightKerningGroup = KO_E;
userData = {
KernOnName = Amacron.case;
};
},
{
glyphname = R.ss01;
layers = (
{
anchors = (
{
name = bottom;
position = "{337, 0}";
},
{
name = top;
position = "{297, 729}";
}
);
background = {
paths = (
{
closed = 1;
nodes = (
"151 0 LINE",
"151 340 LINE",
"437 340 LINE SMOOTH",
"521 340 OFFCURVE",
"563 303 OFFCURVE",
"563 218 CURVE SMOOTH",
"563 92 LINE SMOOTH",
"563 35 OFFCURVE",
"569 11 OFFCURVE",
"576 0 CURVE",
"649 0 LINE",
"649 9 LINE",
"641 14 OFFCURVE",
"628 28 OFFCURVE",
"628 69 CURVE SMOOTH",
"628 226 LINE SMOOTH",
"628 308 OFFCURVE",
"589 348 OFFCURVE",
"530 368 CURVE",
"530 370 LINE",
"599 397 OFFCURVE",
"644 461 OFFCURVE",
"644 539 CURVE SMOOTH",
"644 653 OFFCURVE",
"569 729 OFFCURVE",
"425 729 CURVE SMOOTH",
"86 729 LINE",
"86 0 LINE"
);
},
{
closed = 1;
nodes = (
"151 669 LINE",
"411 669 LINE SMOOTH",
"517 669 OFFCURVE",
"576 626 OFFCURVE",
"576 535 CURVE SMOOTH",
"576 447 OFFCURVE",
"523 398 OFFCURVE",
"411 398 CURVE SMOOTH",
"151 398 LINE"
);
}
);
};
layerId = "F114AD5B-DC62-4E73-AD12-1938E40AC8EF";
paths = (
{
closed = 1;
nodes = (
"151 0 LINE",
"151 344 LINE",
"402 344 LINE",
"570 0 LINE",
"643 0 LINE",
"474 350 LINE",
"579 369 OFFCURVE",
"644 435 OFFCURVE",
"644 538 CURVE SMOOTH",
"644 660 OFFCURVE",
"556 729 OFFCURVE",
"425 729 CURVE SMOOTH",
"86 729 LINE",
"86 0 LINE"
);
},
{
closed = 1;
nodes = (
"151 668 LINE",
"411 668 LINE SMOOTH",
"510 668 OFFCURVE",
"576 632 OFFCURVE",
"576 538 CURVE SMOOTH",
"576 454 OFFCURVE",
"523 404 OFFCURVE",
"411 404 CURVE SMOOTH",
"151 404 LINE"
);
}
);
width = 710;
},
{
anchors = (
{
name = bottom;
position = "{383, 0}";
},
{
name = top;
position = "{319, 729}";
}
);
layerId = "E787E54A-EE3E-475A-BF02-8501A6DA5144";
paths = (
{
closed = 1;
nodes = (
"256 0 LINE",
"256 259 LINE",
"372 259 LINE",
"498 0 LINE",
"715 0 LINE",
"563 300 LINE",
"646 334 OFFCURVE",
"696 405 OFFCURVE",
"696 503 CURVE SMOOTH",
"696 639 OFFCURVE",
"608 729 OFFCURVE",
"423 729 CURVE SMOOTH",
"63 729 LINE",
"63 0 LINE"
);
},
{
closed = 1;
nodes = (
"256 562 LINE",
"395 562 LINE SMOOTH",
"450 562 OFFCURVE",
"486 541 OFFCURVE",
"486 487 CURVE SMOOTH",
"486 443 OFFCURVE",
"461 412 OFFCURVE",
"395 412 CURVE SMOOTH",
"256 412 LINE"
);
}
);
width = 754;
},
{
anchors = (
{
name = bottom;
position = "{358, 0}";
},
{
name = top;
position = "{311, 729}";
}
);
layerId = "47995495-C855-4C5A-BA32-118EA0334940";
paths = (
{
closed = 1;
nodes = (
"191 0 LINE",
"191 312 LINE",
"404 312 LINE",
"556 0 LINE",
"676 0 LINE",
"512 328 LINE",
"612 356 OFFCURVE",
"668 427 OFFCURVE",
"668 526 CURVE SMOOTH",
"668 650 OFFCURVE",
"583 729 OFFCURVE",
"435 729 CURVE SMOOTH",
"86 729 LINE",
"86 0 LINE"
);
},
{
closed = 1;
nodes = (
"191 636 LINE",
"421 636 LINE SMOOTH",
"511 636 OFFCURVE",
"554 591 OFFCURVE",
"554 520 CURVE SMOOTH",
"554 441 OFFCURVE",
"502 404 OFFCURVE",
"421 404 CURVE SMOOTH",
"191 404 LINE"
);
}
);
width = 742;
}
);
leftKerningGroup = KO_H;
leftMetricsKey = "=R";
rightKerningGroup = KO_R.ss01;
},
{
color = 1;
glyphname = R.ss03;
layers = (
{
anchors = (
{
name = bottom;
position = "{433, 0}";
},
{
name = top;
position = "{433, 729}";
}
);
layerId = "F114AD5B-DC62-4E73-AD12-1938E40AC8EF";
paths = (
{
closed = 1;
nodes = (
"58 664 LINE",
"378 664 LINE",
"378 177 LINE SMOOTH",
"378 110 OFFCURVE",
"331 65 OFFCURVE",
"249 65 CURVE SMOOTH",
"145 65 LINE SMOOTH",
"101 65 OFFCURVE",
"79 65 OFFCURVE",
"58 65 CURVE",
"58 0 LINE",
"83 0 OFFCURVE",
"111 0 OFFCURVE",
"135 0 CURVE SMOOTH",
"267 0 LINE SMOOTH",
"345 0 OFFCURVE",
"403 45 OFFCURVE",
"411 112 CURVE",
"435 29 OFFCURVE",
"508 -16 OFFCURVE",
"590 -16 CURVE SMOOTH",
"714 -16 OFFCURVE",
"787 68 OFFCURVE",
"787 203 CURVE SMOOTH",
"787 729 LINE",
"58 729 LINE"
);
},
{
closed = 1;
nodes = (
"727 664 LINE",
"727 227 LINE SMOOTH",
"727 122 OFFCURVE",
"687 52 OFFCURVE",
"583 52 CURVE SMOOTH",
"495 52 OFFCURVE",
"436 101 OFFCURVE",
"436 227 CURVE SMOOTH",
"436 664 LINE"
);
}
);
width = 865;
},
{
anchors = (
{
name = bottom;
position = "{421, 0}";
},
{
name = top;
position = "{421, 729}";
}
);
layerId = "E787E54A-EE3E-475A-BF02-8501A6DA5144";
paths = (
{
closed = 1;
nodes = (
"59 526 LINE",
"310 526 LINE",
"310 306 LINE SMOOTH",
"310 247 OFFCURVE",
"272 203 OFFCURVE",
"214 203 CURVE SMOOTH",
"149 203 LINE SMOOTH",
"105 203 OFFCURVE",
"76 203 OFFCURVE",
"59 203 CURVE",
"59 0 LINE",
"89 0 OFFCURVE",
"121 0 OFFCURVE",
"151 0 CURVE SMOOTH",
"246 0 LINE SMOOTH",
"321 0 OFFCURVE",
"381 49 OFFCURVE",
"397 122 CURVE",
"421 43 OFFCURVE",
"477 -10 OFFCURVE",
"582 -10 CURVE SMOOTH",
"706 -10 OFFCURVE",
"788 78 OFFCURVE",
"788 225 CURVE SMOOTH",
"788 729 LINE",
"59 729 LINE"
);
},
{
closed = 1;
nodes = (
"616 526 LINE",
"616 290 LINE SMOOTH",
"616 238 OFFCURVE",
"593 206 OFFCURVE",
"543 206 CURVE SMOOTH",
"499 206 OFFCURVE",
"470 235 OFFCURVE",
"470 297 CURVE SMOOTH",
"470 526 LINE"
);
}
);
width = 842;
},
{
anchors = (
{
name = bottom;
position = "{433, 0}";
},
{
name = top;
position = "{433, 729}";
}
);
layerId = "47995495-C855-4C5A-BA32-118EA0334940";
paths = (
{
closed = 1;
nodes = (
"58 621 LINE",
"356 621 LINE",
"356 217 LINE SMOOTH",
"356 153 OFFCURVE",
"313 108 OFFCURVE",
"237 108 CURVE SMOOTH",
"145 108 LINE SMOOTH",
"101 108 OFFCURVE",
"78 108 OFFCURVE",
"58 108 CURVE",
"58 0 LINE",
"84 0 OFFCURVE",
"114 0 OFFCURVE",
"139 0 CURVE SMOOTH",
"259 0 LINE SMOOTH",
"337 0 OFFCURVE",
"395 46 OFFCURVE",
"406 115 CURVE",
"430 33 OFFCURVE",
"498 -15 OFFCURVE",
"586 -15 CURVE SMOOTH",
"710 -15 OFFCURVE",
"787 71 OFFCURVE",
"787 210 CURVE SMOOTH",
"787 729 LINE",
"58 729 LINE"
);
},
{
closed = 1;
nodes = (
"692 621 LINE",
"692 247 LINE SMOOTH",
"692 159 OFFCURVE",
"657 100 OFFCURVE",
"570 100 CURVE SMOOTH",
"496 100 OFFCURVE",
"446 142 OFFCURVE",
"446 248 CURVE SMOOTH",
"446 621 LINE"
);
}
);
width = 865;
}
);
leftKerningGroup = KO_R.ss03;
rightKerningGroup = KO_J;
rightMetricsKey = J;
},
{
color = 3;
glyphname = O.ss06;
layers = (
{
anchors = (
{
name = bottom;
position = "{409, 0}";
},
{
name = center;
position = "{409, 365}";
},
{
name = ogonek;
position = "{736, 10}";
},
{
name = top;
position = "{409, 729}";
},
{
name = topleft;
position = "{20, 729}";
},
{
name = topright;
position = "{708, 729}";
}
);
layerId = "F114AD5B-DC62-4E73-AD12-1938E40AC8EF";
paths = (
{
closed = 1;
nodes = (
"364 340 OFFCURVE",
"386 319 OFFCURVE",
"410 320 CURVE SMOOTH",
"434 319 OFFCURVE",
"456 340 OFFCURVE",
"456 363 CURVE SMOOTH",
"456 388 OFFCURVE",
"435 409 OFFCURVE",
"410 409 CURVE SMOOTH",
"384 409 OFFCURVE",
"364 389 OFFCURVE",
"364 364 CURVE SMOOTH"
);
},
{
closed = 1;
nodes = (
"524 341 OFFCURVE",
"546 320 OFFCURVE",
"570 321 CURVE SMOOTH",
"594 320 OFFCURVE",
"616 341 OFFCURVE",
"616 364 CURVE SMOOTH",
"616 389 OFFCURVE",
"595 410 OFFCURVE",
"570 410 CURVE SMOOTH",
"544 410 OFFCURVE",
"524 390 OFFCURVE",
"524 365 CURVE SMOOTH"
);
},
{
closed = 1;
nodes = (
"685 341 OFFCURVE",
"707 320 OFFCURVE",
"731 321 CURVE SMOOTH",
"755 320 OFFCURVE",
"777 341 OFFCURVE",
"777 364 CURVE SMOOTH",
"777 389 OFFCURVE",
"756 410 OFFCURVE",
"731 410 CURVE SMOOTH",
"705 410 OFFCURVE",
"685 390 OFFCURVE",
"685 365 CURVE SMOOTH"
);
},
{
closed = 1;
nodes = (
"202 341 OFFCURVE",
"224 320 OFFCURVE",
"248 321 CURVE SMOOTH",
"272 320 OFFCURVE",
"294 341 OFFCURVE",
"294 364 CURVE SMOOTH",
"294 389 OFFCURVE",
"273 410 OFFCURVE",
"248 410 CURVE SMOOTH",
"222 410 OFFCURVE",
"202 390 OFFCURVE",
"202 365 CURVE SMOOTH"
);
},
{
closed = 1;
nodes = (
"41 341 OFFCURVE",
"63 320 OFFCURVE",
"87 321 CURVE SMOOTH",
"111 320 OFFCURVE",
"133 341 OFFCURVE",
"133 364 CURVE SMOOTH",
"133 389 OFFCURVE",
"112 410 OFFCURVE",
"87 410 CURVE SMOOTH",
"61 410 OFFCURVE",
"41 390 OFFCURVE",
"41 365 CURVE SMOOTH"
);
},
{
closed = 1;
nodes = (
"284 201 OFFCURVE",
"306 180 OFFCURVE",
"330 181 CURVE SMOOTH",
"354 180 OFFCURVE",
"376 201 OFFCURVE",
"376 224 CURVE SMOOTH",
"376 249 OFFCURVE",
"355 270 OFFCURVE",
"330 270 CURVE SMOOTH",
"304 270 OFFCURVE",
"284 250 OFFCURVE",
"284 225 CURVE SMOOTH"
);
},
{
closed = 1;
nodes = (
"444 202 OFFCURVE",
"466 181 OFFCURVE",
"490 182 CURVE SMOOTH",
"514 181 OFFCURVE",
"536 202 OFFCURVE",
"536 225 CURVE SMOOTH",
"536 250 OFFCURVE",
"515 271 OFFCURVE",
"490 271 CURVE SMOOTH",
"464 271 OFFCURVE",
"444 251 OFFCURVE",
"444 226 CURVE SMOOTH"
);
},
{
closed = 1;
nodes = (
"643 180 OFFCURVE",
"665 159 OFFCURVE",
"689 160 CURVE SMOOTH",
"713 159 OFFCURVE",
"735 180 OFFCURVE",
"735 203 CURVE SMOOTH",
"735 228 OFFCURVE",
"714 249 OFFCURVE",
"689 249 CURVE SMOOTH",
"663 249 OFFCURVE",
"643 229 OFFCURVE",
"643 204 CURVE SMOOTH"
);
},
{
closed = 1;
nodes = (
"524 62 OFFCURVE",
"546 41 OFFCURVE",
"570 42 CURVE SMOOTH",
"594 41 OFFCURVE",
"616 62 OFFCURVE",
"616 85 CURVE SMOOTH",
"616 110 OFFCURVE",
"595 131 OFFCURVE",
"570 131 CURVE SMOOTH",
"544 131 OFFCURVE",
"524 111 OFFCURVE",
"524 86 CURVE SMOOTH"
);
},
{
closed = 1;
nodes = (
"363 20 OFFCURVE",
"385 -1 OFFCURVE",
"409 0 CURVE SMOOTH",
"433 -1 OFFCURVE",
"455 20 OFFCURVE",
"455 43 CURVE SMOOTH",
"455 68 OFFCURVE",
"434 89 OFFCURVE",
"409 89 CURVE SMOOTH",
"383 89 OFFCURVE",
"363 69 OFFCURVE",
"363 44 CURVE SMOOTH"
);
},
{
closed = 1;
nodes = (
"203 62 OFFCURVE",
"225 41 OFFCURVE",
"249 42 CURVE SMOOTH",
"273 41 OFFCURVE",
"295 62 OFFCURVE",
"295 85 CURVE SMOOTH",
"295 110 OFFCURVE",
"274 131 OFFCURVE",
"249 131 CURVE SMOOTH",
"223 131 OFFCURVE",
"203 111 OFFCURVE",
"203 86 CURVE SMOOTH"
);
},
{
closed = 1;
nodes = (
"84 180 OFFCURVE",
"106 159 OFFCURVE",
"130 160 CURVE SMOOTH",
"154 159 OFFCURVE",
"176 180 OFFCURVE",
"176 203 CURVE SMOOTH",
"176 228 OFFCURVE",
"155 249 OFFCURVE",
"130 249 CURVE SMOOTH",
"104 249 OFFCURVE",
"84 229 OFFCURVE",
"84 204 CURVE SMOOTH"
);
},
{
closed = 1;
nodes = (
"85 500 OFFCURVE",
"107 479 OFFCURVE",
"131 480 CURVE SMOOTH",
"155 479 OFFCURVE",
"177 500 OFFCURVE",
"177 523 CURVE SMOOTH",
"177 548 OFFCURVE",
"156 569 OFFCURVE",
"131 569 CURVE SMOOTH",
"105 569 OFFCURVE",
"85 549 OFFCURVE",
"85 524 CURVE SMOOTH"
);
},
{
closed = 1;
nodes = (
"282 480 OFFCURVE",
"304 459 OFFCURVE",
"328 460 CURVE SMOOTH",
"352 459 OFFCURVE",
"374 480 OFFCURVE",
"374 503 CURVE SMOOTH",
"374 528 OFFCURVE",
"353 549 OFFCURVE",
"328 549 CURVE SMOOTH",
"302 549 OFFCURVE",
"282 529 OFFCURVE",
"282 504 CURVE SMOOTH"
);
},
{
closed = 1;
nodes = (
"444 480 OFFCURVE",
"466 459 OFFCURVE",
"490 460 CURVE SMOOTH",
"514 459 OFFCURVE",
"536 480 OFFCURVE",
"536 503 CURVE SMOOTH",
"536 528 OFFCURVE",
"515 549 OFFCURVE",
"490 549 CURVE SMOOTH",
"464 549 OFFCURVE",
"444 529 OFFCURVE",
"444 504 CURVE SMOOTH"
);
},
{
closed = 1;
nodes = (
"643 499 OFFCURVE",
"665 478 OFFCURVE",
"689 479 CURVE SMOOTH",
"713 478 OFFCURVE",
"735 499 OFFCURVE",
"735 522 CURVE SMOOTH",
"735 547 OFFCURVE",
"714 568 OFFCURVE",
"689 568 CURVE SMOOTH",
"663 568 OFFCURVE",
"643 548 OFFCURVE",
"643 523 CURVE SMOOTH"
);
},
{
closed = 1;
nodes = (
"524 618 OFFCURVE",
"546 597 OFFCURVE",
"570 598 CURVE SMOOTH",
"594 597 OFFCURVE",
"616 618 OFFCURVE",
"616 641 CURVE SMOOTH",
"616 666 OFFCURVE",
"595 687 OFFCURVE",
"570 687 CURVE SMOOTH",
"544 687 OFFCURVE",
"524 667 OFFCURVE",
"524 642 CURVE SMOOTH"
);
},
{
closed = 1;
nodes = (
"363 660 OFFCURVE",
"385 639 OFFCURVE",
"409 640 CURVE SMOOTH",
"433 639 OFFCURVE",
"455 660 OFFCURVE",
"455 683 CURVE SMOOTH",
"455 708 OFFCURVE",
"434 729 OFFCURVE",
"409 729 CURVE SMOOTH",
"383 729 OFFCURVE",
"363 709 OFFCURVE",
"363 684 CURVE SMOOTH"
);
},
{
closed = 1;
nodes = (
"202 619 OFFCURVE",
"224 598 OFFCURVE",
"248 599 CURVE SMOOTH",
"272 598 OFFCURVE",
"294 619 OFFCURVE",
"294 642 CURVE SMOOTH",
"294 667 OFFCURVE",
"273 688 OFFCURVE",
"248 688 CURVE SMOOTH",
"222 688 OFFCURVE",
"202 668 OFFCURVE",
"202 643 CURVE SMOOTH"
);
}
);
width = 818;
},
{
anchors = (
{
name = bottom;
position = "{412, 0}";
},
{
name = center;
position = "{412, 365}";
},
{
name = ogonek;
position = "{742, 10}";
},
{
name = top;
position = "{412, 729}";
},
{
name = topleft;
position = "{20, 729}";
},
{
name = topright;
position = "{764, 729}";
}
);
layerId = "E787E54A-EE3E-475A-BF02-8501A6DA5144";
paths = (
{
closed = 1;
nodes = (
"360 336 OFFCURVE",
"385 312 OFFCURVE",
"413 313 CURVE SMOOTH",
"440 312 OFFCURVE",
"466 336 OFFCURVE",
"466 363 CURVE SMOOTH",
"466 392 OFFCURVE",
"442 416 OFFCURVE",
"413 416 CURVE SMOOTH",
"383 416 OFFCURVE",
"360 393 OFFCURVE",
"360 364 CURVE SMOOTH"
);
},
{
closed = 1;
nodes = (
"520 337 OFFCURVE",
"545 313 OFFCURVE",
"573 314 CURVE SMOOTH",
"600 313 OFFCURVE",
"626 337 OFFCURVE",
"626 364 CURVE SMOOTH",
"626 393 OFFCURVE",
"602 417 OFFCURVE",
"573 417 CURVE SMOOTH",
"543 417 OFFCURVE",
"520 394 OFFCURVE",
"520 365 CURVE SMOOTH"
);
},
{
closed = 1;
nodes = (
"681 337 OFFCURVE",
"706 313 OFFCURVE",
"734 314 CURVE SMOOTH",
"761 313 OFFCURVE",
"787 337 OFFCURVE",
"787 364 CURVE SMOOTH",
"787 393 OFFCURVE",
"763 417 OFFCURVE",
"734 417 CURVE SMOOTH",
"704 417 OFFCURVE",
"681 394 OFFCURVE",
"681 365 CURVE SMOOTH"
);
},
{
closed = 1;
nodes = (
"198 337 OFFCURVE",
"223 313 OFFCURVE",
"251 314 CURVE SMOOTH",
"278 313 OFFCURVE",
"304 337 OFFCURVE",
"304 364 CURVE SMOOTH",
"304 393 OFFCURVE",
"280 417 OFFCURVE",
"251 417 CURVE SMOOTH",
"221 417 OFFCURVE",
"198 394 OFFCURVE",
"198 365 CURVE SMOOTH"
);
},
{
closed = 1;
nodes = (
"37 337 OFFCURVE",
"62 313 OFFCURVE",
"90 314 CURVE SMOOTH",
"117 313 OFFCURVE",
"143 337 OFFCURVE",
"143 364 CURVE SMOOTH",
"143 393 OFFCURVE",
"119 417 OFFCURVE",
"90 417 CURVE SMOOTH",
"60 417 OFFCURVE",
"37 394 OFFCURVE",
"37 365 CURVE SMOOTH"
);
},
{
closed = 1;
nodes = (
"280 197 OFFCURVE",
"305 173 OFFCURVE",
"333 174 CURVE SMOOTH",
"360 173 OFFCURVE",
"386 197 OFFCURVE",
"386 224 CURVE SMOOTH",
"386 253 OFFCURVE",
"362 277 OFFCURVE",
"333 277 CURVE SMOOTH",
"303 277 OFFCURVE",
"280 254 OFFCURVE",
"280 225 CURVE SMOOTH"
);
},
{
closed = 1;
nodes = (
"440 198 OFFCURVE",
"465 174 OFFCURVE",
"493 175 CURVE SMOOTH",
"520 174 OFFCURVE",
"546 198 OFFCURVE",
"546 225 CURVE SMOOTH",
"546 254 OFFCURVE",
"522 278 OFFCURVE",
"493 278 CURVE SMOOTH",
"463 278 OFFCURVE",
"440 255 OFFCURVE",
"440 226 CURVE SMOOTH"
);
},
{
closed = 1;
nodes = (
"639 176 OFFCURVE",
"664 152 OFFCURVE",
"692 153 CURVE SMOOTH",
"719 152 OFFCURVE",
"745 176 OFFCURVE",
"745 203 CURVE SMOOTH",
"745 232 OFFCURVE",
"721 256 OFFCURVE",
"692 256 CURVE SMOOTH",
"662 256 OFFCURVE",
"639 233 OFFCURVE",
"639 204 CURVE SMOOTH"
);
},
{
closed = 1;
nodes = (
"520 58 OFFCURVE",
"545 34 OFFCURVE",
"573 35 CURVE SMOOTH",
"600 34 OFFCURVE",
"626 58 OFFCURVE",
"626 85 CURVE SMOOTH",
"626 114 OFFCURVE",
"602 138 OFFCURVE",
"573 138 CURVE SMOOTH",
"543 138 OFFCURVE",
"520 115 OFFCURVE",
"520 86 CURVE SMOOTH"
);
},
{
closed = 1;
nodes = (
"359 16 OFFCURVE",
"384 -8 OFFCURVE",
"412 -7 CURVE SMOOTH",
"439 -8 OFFCURVE",
"465 16 OFFCURVE",
"465 43 CURVE SMOOTH",
"465 72 OFFCURVE",
"441 96 OFFCURVE",
"412 96 CURVE SMOOTH",
"382 96 OFFCURVE",
"359 73 OFFCURVE",
"359 44 CURVE SMOOTH"
);
},
{
closed = 1;
nodes = (
"199 58 OFFCURVE",
"224 34 OFFCURVE",
"252 35 CURVE SMOOTH",
"279 34 OFFCURVE",
"305 58 OFFCURVE",
"305 85 CURVE SMOOTH",
"305 114 OFFCURVE",
"281 138 OFFCURVE",
"252 138 CURVE SMOOTH",
"222 138 OFFCURVE",
"199 115 OFFCURVE",
"199 86 CURVE SMOOTH"
);
},
{
closed = 1;
nodes = (
"80 176 OFFCURVE",
"105 152 OFFCURVE",
"133 153 CURVE SMOOTH",
"160 152 OFFCURVE",
"186 176 OFFCURVE",
"186 203 CURVE SMOOTH",
"186 232 OFFCURVE",
"162 256 OFFCURVE",
"133 256 CURVE SMOOTH",
"103 256 OFFCURVE",
"80 233 OFFCURVE",
"80 204 CURVE SMOOTH"
);
},
{
closed = 1;
nodes = (
"81 496 OFFCURVE",
"106 472 OFFCURVE",
"134 473 CURVE SMOOTH",
"161 472 OFFCURVE",
"187 496 OFFCURVE",
"187 523 CURVE SMOOTH",
"187 552 OFFCURVE",
"163 576 OFFCURVE",
"134 576 CURVE SMOOTH",
"104 576 OFFCURVE",
"81 553 OFFCURVE",
"81 524 CURVE SMOOTH"
);
},
{
closed = 1;
nodes = (
"278 476 OFFCURVE",
"303 452 OFFCURVE",
"331 453 CURVE SMOOTH",
"358 452 OFFCURVE",
"384 476 OFFCURVE",
"384 503 CURVE SMOOTH",
"384 532 OFFCURVE",
"360 556 OFFCURVE",
"331 556 CURVE SMOOTH",
"301 556 OFFCURVE",
"278 533 OFFCURVE",
"278 504 CURVE SMOOTH"
);
},
{
closed = 1;
nodes = (
"440 476 OFFCURVE",
"465 452 OFFCURVE",
"493 453 CURVE SMOOTH",
"520 452 OFFCURVE",
"546 476 OFFCURVE",
"546 503 CURVE SMOOTH",
"546 532 OFFCURVE",
"522 556 OFFCURVE",
"493 556 CURVE SMOOTH",
"463 556 OFFCURVE",
"440 533 OFFCURVE",
"440 504 CURVE SMOOTH"
);
},
{
closed = 1;
nodes = (
"639 495 OFFCURVE",
"664 471 OFFCURVE",
"692 472 CURVE SMOOTH",
"719 471 OFFCURVE",
"745 495 OFFCURVE",
"745 522 CURVE SMOOTH",
"745 551 OFFCURVE",
"721 575 OFFCURVE",
"692 575 CURVE SMOOTH",
"662 575 OFFCURVE",
"639 552 OFFCURVE",
"639 523 CURVE SMOOTH"
);
},
{
closed = 1;
nodes = (
"520 614 OFFCURVE",
"545 590 OFFCURVE",
"573 591 CURVE SMOOTH",
"600 590 OFFCURVE",
"626 614 OFFCURVE",
"626 641 CURVE SMOOTH",
"626 670 OFFCURVE",
"602 694 OFFCURVE",
"573 694 CURVE SMOOTH",
"543 694 OFFCURVE",
"520 671 OFFCURVE",
"520 642 CURVE SMOOTH"
);
},
{
closed = 1;
nodes = (
"359 656 OFFCURVE",
"384 632 OFFCURVE",
"412 633 CURVE SMOOTH",
"439 632 OFFCURVE",
"465 656 OFFCURVE",
"465 683 CURVE SMOOTH",
"465 712 OFFCURVE",
"441 736 OFFCURVE",
"412 736 CURVE SMOOTH",
"382 736 OFFCURVE",
"359 713 OFFCURVE",
"359 684 CURVE SMOOTH"
);
},
{
closed = 1;
nodes = (
"198 615 OFFCURVE",
"223 591 OFFCURVE",
"251 592 CURVE SMOOTH",
"278 591 OFFCURVE",
"304 615 OFFCURVE",
"304 642 CURVE SMOOTH",
"304 671 OFFCURVE",
"280 695 OFFCURVE",
"251 695 CURVE SMOOTH",
"221 695 OFFCURVE",
"198 672 OFFCURVE",
"198 643 CURVE SMOOTH"
);
}
);
width = 824;
},
{
anchors = (
{
name = bottom;
position = "{411, 0}";
},
{
name = center;
position = "{411, 365}";
},
{
name = ogonek;
position = "{740, 10}";
},
{
name = top;
position = "{411, 729}";
},
{
name = topleft;
position = "{20, 729}";
},
{
name = topright;
position = "{722, 729}";
}
);
layerId = "47995495-C855-4C5A-BA32-118EA0334940";
paths = (
{
closed = 1;
nodes = (
"364 339 OFFCURVE",
"387 318 OFFCURVE",
"412 318 CURVE SMOOTH",
"437 318 OFFCURVE",
"460 339 OFFCURVE",
"460 363 CURVE SMOOTH",
"460 389 OFFCURVE",
"438 411 OFFCURVE",
"412 411 CURVE SMOOTH",
"385 411 OFFCURVE",
"364 390 OFFCURVE",
"364 364 CURVE SMOOTH"
);
},
{
closed = 1;
nodes = (
"524 340 OFFCURVE",
"547 319 OFFCURVE",
"572 319 CURVE SMOOTH",
"597 319 OFFCURVE",
"620 340 OFFCURVE",
"620 364 CURVE SMOOTH",
"620 390 OFFCURVE",
"598 412 OFFCURVE",
"572 412 CURVE SMOOTH",
"545 412 OFFCURVE",
"524 391 OFFCURVE",
"524 365 CURVE SMOOTH"
);
},
{
closed = 1;
nodes = (
"685 340 OFFCURVE",
"708 319 OFFCURVE",
"733 319 CURVE SMOOTH",
"758 319 OFFCURVE",
"781 340 OFFCURVE",
"781 364 CURVE SMOOTH",
"781 390 OFFCURVE",
"759 412 OFFCURVE",
"733 412 CURVE SMOOTH",
"706 412 OFFCURVE",
"685 391 OFFCURVE",
"685 365 CURVE SMOOTH"
);
},
{
closed = 1;
nodes = (
"202 340 OFFCURVE",
"225 319 OFFCURVE",
"250 319 CURVE SMOOTH",
"275 319 OFFCURVE",
"298 340 OFFCURVE",
"298 364 CURVE SMOOTH",
"298 390 OFFCURVE",
"276 412 OFFCURVE",
"250 412 CURVE SMOOTH",
"223 412 OFFCURVE",
"202 391 OFFCURVE",
"202 365 CURVE SMOOTH"
);
},
{
closed = 1;
nodes = (
"41 340 OFFCURVE",
"64 319 OFFCURVE",
"89 319 CURVE SMOOTH",
"114 319 OFFCURVE",
"137 340 OFFCURVE",
"137 364 CURVE SMOOTH",
"137 390 OFFCURVE",
"115 412 OFFCURVE",
"89 412 CURVE SMOOTH",
"62 412 OFFCURVE",
"41 391 OFFCURVE",
"41 365 CURVE SMOOTH"
);
},
{
closed = 1;
nodes = (
"284 200 OFFCURVE",
"307 179 OFFCURVE",
"332 179 CURVE SMOOTH",
"357 179 OFFCURVE",
"380 200 OFFCURVE",
"380 224 CURVE SMOOTH",
"380 250 OFFCURVE",
"358 272 OFFCURVE",
"332 272 CURVE SMOOTH",
"305 272 OFFCURVE",
"284 251 OFFCURVE",
"284 225 CURVE SMOOTH"
);
},
{
closed = 1;
nodes = (
"444 201 OFFCURVE",
"467 180 OFFCURVE",
"492 180 CURVE SMOOTH",
"517 180 OFFCURVE",
"540 201 OFFCURVE",
"540 225 CURVE SMOOTH",
"540 251 OFFCURVE",
"518 273 OFFCURVE",
"492 273 CURVE SMOOTH",
"465 273 OFFCURVE",
"444 252 OFFCURVE",
"444 226 CURVE SMOOTH"
);
},
{
closed = 1;
nodes = (
"643 179 OFFCURVE",
"666 158 OFFCURVE",
"691 158 CURVE SMOOTH",
"716 158 OFFCURVE",
"739 179 OFFCURVE",
"739 203 CURVE SMOOTH",
"739 229 OFFCURVE",
"717 251 OFFCURVE",
"691 251 CURVE SMOOTH",
"664 251 OFFCURVE",
"643 230 OFFCURVE",
"643 204 CURVE SMOOTH"
);
},
{
closed = 1;
nodes = (
"524 61 OFFCURVE",
"547 40 OFFCURVE",
"572 40 CURVE SMOOTH",
"597 40 OFFCURVE",
"620 61 OFFCURVE",
"620 85 CURVE SMOOTH",
"620 111 OFFCURVE",
"598 133 OFFCURVE",
"572 133 CURVE SMOOTH",
"545 133 OFFCURVE",
"524 112 OFFCURVE",
"524 86 CURVE SMOOTH"
);
},
{
closed = 1;
nodes = (
"363 19 OFFCURVE",
"386 -2 OFFCURVE",
"411 -2 CURVE SMOOTH",
"436 -2 OFFCURVE",
"459 19 OFFCURVE",
"459 43 CURVE SMOOTH",
"459 69 OFFCURVE",
"437 91 OFFCURVE",
"411 91 CURVE SMOOTH",
"384 91 OFFCURVE",
"363 70 OFFCURVE",
"363 44 CURVE SMOOTH"
);
},
{
closed = 1;
nodes = (
"203 61 OFFCURVE",
"226 40 OFFCURVE",
"251 40 CURVE SMOOTH",
"276 40 OFFCURVE",
"299 61 OFFCURVE",
"299 85 CURVE SMOOTH",
"299 111 OFFCURVE",
"277 133 OFFCURVE",
"251 133 CURVE SMOOTH",
"224 133 OFFCURVE",
"203 112 OFFCURVE",
"203 86 CURVE SMOOTH"
);
},
{
closed = 1;
nodes = (
"84 179 OFFCURVE",
"107 158 OFFCURVE",
"132 158 CURVE SMOOTH",
"157 158 OFFCURVE",
"180 179 OFFCURVE",
"180 203 CURVE SMOOTH",
"180 229 OFFCURVE",
"158 251 OFFCURVE",
"132 251 CURVE SMOOTH",
"105 251 OFFCURVE",
"84 230 OFFCURVE",
"84 204 CURVE SMOOTH"
);
},
{
closed = 1;
nodes = (
"85 499 OFFCURVE",
"108 478 OFFCURVE",
"133 478 CURVE SMOOTH",
"158 478 OFFCURVE",
"181 499 OFFCURVE",
"181 523 CURVE SMOOTH",
"181 549 OFFCURVE",
"159 571 OFFCURVE",
"133 571 CURVE SMOOTH",
"106 571 OFFCURVE",
"85 550 OFFCURVE",
"85 524 CURVE SMOOTH"
);
},
{
closed = 1;
nodes = (
"282 479 OFFCURVE",
"305 458 OFFCURVE",
"330 458 CURVE SMOOTH",
"355 458 OFFCURVE",
"378 479 OFFCURVE",
"378 503 CURVE SMOOTH",
"378 529 OFFCURVE",
"356 551 OFFCURVE",
"330 551 CURVE SMOOTH",
"303 551 OFFCURVE",
"282 530 OFFCURVE",
"282 504 CURVE SMOOTH"
);
},
{
closed = 1;
nodes = (
"444 479 OFFCURVE",
"467 458 OFFCURVE",
"492 458 CURVE SMOOTH",
"517 458 OFFCURVE",
"540 479 OFFCURVE",
"540 503 CURVE SMOOTH",
"540 529 OFFCURVE",
"518 551 OFFCURVE",
"492 551 CURVE SMOOTH",
"465 551 OFFCURVE",
"444 530 OFFCURVE",
"444 504 CURVE SMOOTH"
);
},
{
closed = 1;
nodes = (
"643 498 OFFCURVE",
"666 477 OFFCURVE",
"691 477 CURVE SMOOTH",
"716 477 OFFCURVE",
"739 498 OFFCURVE",
"739 522 CURVE SMOOTH",
"739 548 OFFCURVE",
"717 570 OFFCURVE",
"691 570 CURVE SMOOTH",
"664 570 OFFCURVE",
"643 549 OFFCURVE",
"643 523 CURVE SMOOTH"
);
},
{
closed = 1;
nodes = (
"524 617 OFFCURVE",
"547 596 OFFCURVE",
"572 596 CURVE SMOOTH",
"597 596 OFFCURVE",
"620 617 OFFCURVE",
"620 641 CURVE SMOOTH",
"620 667 OFFCURVE",
"598 689 OFFCURVE",
"572 689 CURVE SMOOTH",
"545 689 OFFCURVE",
"524 668 OFFCURVE",
"524 642 CURVE SMOOTH"
);
},
{
closed = 1;
nodes = (
"363 659 OFFCURVE",
"386 638 OFFCURVE",
"411 638 CURVE SMOOTH",
"436 638 OFFCURVE",
"459 659 OFFCURVE",
"459 683 CURVE SMOOTH",
"459 709 OFFCURVE",
"437 731 OFFCURVE",
"411 731 CURVE SMOOTH",
"384 731 OFFCURVE",
"363 710 OFFCURVE",
"363 684 CURVE SMOOTH"
);
},
{
closed = 1;
nodes = (
"202 618 OFFCURVE",
"225 597 OFFCURVE",
"250 597 CURVE SMOOTH",
"275 597 OFFCURVE",
"298 618 OFFCURVE",
"298 642 CURVE SMOOTH",
"298 668 OFFCURVE",
"276 690 OFFCURVE",
"250 690 CURVE SMOOTH",
"223 690 OFFCURVE",
"202 669 OFFCURVE",
"202 643 CURVE SMOOTH"
);
}
);
width = 822;
}
);
leftKerningGroup = KO_O.ss06;
leftMetricsKey = O;
rightKerningGroup = KO_O.ss06;
rightMetricsKey = O;
},
{
color = 3;
glyphname = a;
layers = (
{
anchors = (
{
name = bottom;
position = "{276, 0}";
},
{
name = ogonek;
position = "{546, 0}";
},
{
name = top;
position = "{276, 557}";
}
);
background = {
paths = (
{
closed = 1;
nodes = (
"542 50 LINE",
"535 48 OFFCURVE",
"530 47 OFFCURVE",
"521 47 CURVE SMOOTH",
"494 47 OFFCURVE",
"487 64 OFFCURVE",
"487 89 CURVE SMOOTH",
"487 413 LINE SMOOTH",
"487 505 OFFCURVE",
"423 567 OFFCURVE",
"287 567 CURVE SMOOTH",
"146 567 OFFCURVE",
"63 499 OFFCURVE",
"63 397 CURVE",
"125 392 LINE",
"125 463 OFFCURVE",
"176 511 OFFCURVE",
"285 511 CURVE SMOOTH",
"387 511 OFFCURVE",
"424 472 OFFCURVE",
"424 408 CURVE SMOOTH",
"424 370 OFFCURVE",
"411 346 OFFCURVE",
"350 335 CURVE SMOOTH",
"205 309 LINE SMOOTH",
"101 290 OFFCURVE",
"42 236 OFFCURVE",
"42 142 CURVE SMOOTH",
"42 51 OFFCURVE",
"112 -10 OFFCURVE",
"224 -10 CURVE SMOOTH",
"311 -10 OFFCURVE",
"388 24 OFFCURVE",
"426 95 CURVE",
"426 75 LINE SMOOTH",
"426 63 OFFCURVE",
"426 -6 OFFCURVE",
"505 -6 CURVE SMOOTH",
"521 -6 OFFCURVE",
"538 -3 OFFCURVE",
"546 0 CURVE",
"546 50 LINE"
);
},
{
closed = 1;
nodes = (
"108 204 OFFCURVE",
"143 246 OFFCURVE",
"232 261 CURVE SMOOTH",
"327 277 LINE SMOOTH",
"379 286 OFFCURVE",
"410 296 OFFCURVE",
"425 307 CURVE",
"425 172 LINE",
"410 96 OFFCURVE",
"335 45 OFFCURVE",
"238 45 CURVE SMOOTH",
"150 45 OFFCURVE",
"108 87 OFFCURVE",
"108 149 CURVE SMOOTH"
);
}
);
};
layerId = "F114AD5B-DC62-4E73-AD12-1938E40AC8EF";
paths = (
{
closed = 1;
nodes = (
"311 -10 OFFCURVE",
"388 24 OFFCURVE",
"426 95 CURVE",
"426 75 LINE SMOOTH",
"426 26 OFFCURVE",
"451 -6 OFFCURVE",
"505 -6 CURVE SMOOTH",
"521 -6 OFFCURVE",
"538 -3 OFFCURVE",
"546 0 CURVE",
"546 50 LINE",
"542 50 LINE",
"535 48 OFFCURVE",
"530 47 OFFCURVE",
"521 47 CURVE SMOOTH",
"494 47 OFFCURVE",
"487 64 OFFCURVE",
"487 89 CURVE SMOOTH",
"487 413 LINE SMOOTH",
"487 505 OFFCURVE",
"423 567 OFFCURVE",
"287 567 CURVE SMOOTH",
"146 567 OFFCURVE",
"63 499 OFFCURVE",
"63 397 CURVE",
"125 392 LINE",
"125 463 OFFCURVE",
"176 511 OFFCURVE",
"285 511 CURVE SMOOTH",
"387 511 OFFCURVE",
"424 472 OFFCURVE",
"424 408 CURVE SMOOTH",
"424 370 OFFCURVE",
"411 346 OFFCURVE",
"350 335 CURVE SMOOTH",
"205 309 LINE SMOOTH",
"101 290 OFFCURVE",
"42 236 OFFCURVE",
"42 142 CURVE SMOOTH",
"42 51 OFFCURVE",
"112 -10 OFFCURVE",
"224 -10 CURVE SMOOTH"
);
},
{
closed = 1;
nodes = (
"150 45 OFFCURVE",
"108 87 OFFCURVE",
"108 149 CURVE SMOOTH",
"108 204 OFFCURVE",
"143 246 OFFCURVE",
"232 261 CURVE SMOOTH",
"327 277 LINE SMOOTH",
"385 287 OFFCURVE",
"416 298 OFFCURVE",
"429 310 CURVE",
"425 313 LINE",
"425 172 LINE",
"410 96 OFFCURVE",
"335 45 OFFCURVE",
"238 45 CURVE SMOOTH"
);
}
);
width = 552;
},
{
anchors = (
{
name = bottom;
position = "{290, 0}";
},
{
name = ogonek;
position = "{574, 0}";
},
{
name = top;
position = "{290, 563}";
}
);
background = {
paths = (
{
closed = 1;
nodes = (
"319 -10 OFFCURVE",
"399 32 OFFCURVE",
"427 95 CURVE",
"427 77 LINE SMOOTH",
"427 19 OFFCURVE",
"466 -8 OFFCURVE",
"523 -8 CURVE SMOOTH",
"534 -8 OFFCURVE",
"560 -6 OFFCURVE",
"574 0 CURVE",
"574 73 LINE",
"568 73 LINE",
"566 72 OFFCURVE",
"562 71 OFFCURVE",
"551 71 CURVE SMOOTH",
"533 71 OFFCURVE",
"516 79 OFFCURVE",
"516 119 CURVE SMOOTH",
"516 403 LINE SMOOTH",
"516 517 OFFCURVE",
"438 573 OFFCURVE",
"298 573 CURVE SMOOTH",
"158 573 OFFCURVE",
"64 511 OFFCURVE",
"62 401 CURVE",
"159 391 LINE",
"158 460 OFFCURVE",
"213 493 OFFCURVE",
"298 493 CURVE SMOOTH",
"386 493 OFFCURVE",
"414 458 OFFCURVE",
"414 411 CURVE SMOOTH",
"414 375 OFFCURVE",
"401 354 OFFCURVE",
"341 343 CURVE SMOOTH",
"223 321 LINE SMOOTH",
"127 303 OFFCURVE",
"42 259 OFFCURVE",
"42 147 CURVE SMOOTH",
"42 54 OFFCURVE",
"109 -10 OFFCURVE",
"227 -10 CURVE SMOOTH"
);
},
{
closed = 1;
nodes = (
"192 72 OFFCURVE",
"147 98 OFFCURVE",
"147 155 CURVE SMOOTH",
"147 193 OFFCURVE",
"167 230 OFFCURVE",
"251 247 CURVE SMOOTH",
"334 264 LINE SMOOTH",
"386 275 OFFCURVE",
"413 281 OFFCURVE",
"421 294 CURVE",
"415 298 LINE",
"415 169 LINE",
"395 108 OFFCURVE",
"333 72 OFFCURVE",
"253 72 CURVE SMOOTH"
);
}
);
};
guideLines = (
{
angle = 190.8865;
position = "{334, 267}";
}
);
layerId = "47995495-C855-4C5A-BA32-118EA0334940";
paths = (
{
closed = 1;
nodes = (
"319 -10 OFFCURVE",
"399 32 OFFCURVE",
"427 95 CURVE",
"427 77 LINE SMOOTH",
"427 19 OFFCURVE",
"466 -8 OFFCURVE",
"523 -8 CURVE SMOOTH",
"534 -8 OFFCURVE",
"560 -6 OFFCURVE",
"574 0 CURVE",
"574 73 LINE",
"568 73 LINE",
"566 72 OFFCURVE",
"562 71 OFFCURVE",
"551 71 CURVE SMOOTH",
"533 71 OFFCURVE",
"516 79 OFFCURVE",
"516 119 CURVE SMOOTH",
"516 403 LINE SMOOTH",
"516 517 OFFCURVE",
"438 573 OFFCURVE",
"298 573 CURVE SMOOTH",
"158 573 OFFCURVE",
"64 511 OFFCURVE",
"62 401 CURVE",
"159 391 LINE",
"158 460 OFFCURVE",
"213 493 OFFCURVE",
"298 493 CURVE SMOOTH",
"386 493 OFFCURVE",
"414 458 OFFCURVE",
"414 411 CURVE SMOOTH",
"414 375 OFFCURVE",
"401 354 OFFCURVE",
"341 343 CURVE SMOOTH",
"223 321 LINE SMOOTH",
"127 303 OFFCURVE",
"42 259 OFFCURVE",
"42 147 CURVE SMOOTH",
"42 54 OFFCURVE",
"109 -10 OFFCURVE",
"227 -10 CURVE SMOOTH"
);
},
{
closed = 1;
nodes = (
"192 72 OFFCURVE",
"147 98 OFFCURVE",
"147 155 CURVE SMOOTH",
"147 193 OFFCURVE",
"167 230 OFFCURVE",
"251 247 CURVE SMOOTH",
"334 264 LINE SMOOTH",
"386 275 OFFCURVE",
"413 281 OFFCURVE",
"426 294 CURVE",
"415 298 LINE",
"415 169 LINE",
"395 108 OFFCURVE",
"333 72 OFFCURVE",
"253 72 CURVE SMOOTH"
);
}
);
width = 580;
},
{
associatedMasterId = "47995495-C855-4C5A-BA32-118EA0334940";
background = {
paths = (
{
closed = 1;
nodes = (
"330 -10 OFFCURVE",
"415 38 OFFCURVE",
"434 100 CURVE",
"427 100 LINE",
"427 90 LINE SMOOTH",
"427 57 OFFCURVE",
"432 19 OFFCURVE",
"437 0 CURVE",
"528 0 LINE",
"528 5 LINE",
"523 12 OFFCURVE",
"516 88 OFFCURVE",
"516 133 CURVE SMOOTH",
"516 397 LINE SMOOTH",
"516 517 OFFCURVE",
"439 573 OFFCURVE",
"298 573 CURVE SMOOTH",
"140 573 OFFCURVE",
"64 502 OFFCURVE",
"62 397 CURVE",
"159 387 LINE",
"158 462 OFFCURVE",
"213 495 OFFCURVE",
"298 495 CURVE SMOOTH",
"387 495 OFFCURVE",
"414 458 OFFCURVE",
"414 407 CURVE SMOOTH",
"414 368 OFFCURVE",
"399 348 OFFCURVE",
"341 337 CURVE SMOOTH",
"216 314 LINE SMOOTH",
"128 298 OFFCURVE",
"42 259 OFFCURVE",
"42 143 CURVE SMOOTH",
"42 51 OFFCURVE",
"108.553 -10 OFFCURVE",
"226.869 -10 CURVE SMOOTH"
);
},
{
closed = 1;
nodes = (
"190 64 OFFCURVE",
"147 92 OFFCURVE",
"147 152 CURVE SMOOTH",
"147 197 OFFCURVE",
"171 233 OFFCURVE",
"251 248 CURVE SMOOTH",
"334 264 LINE SMOOTH",
"372 271 OFFCURVE",
"405 280 OFFCURVE",
"415 289 CURVE",
"415 156 LINE",
"396 99 OFFCURVE",
"324 64 OFFCURVE",
"253 64 CURVE SMOOTH"
);
}
);
};
layerId = "63943EC2-331D-4B51-9A5E-A986501536CA";
name = "[720]";
paths = (
{
closed = 1;
nodes = (
"328 -10 OFFCURVE",
"416 41 OFFCURVE",
"434 115 CURVE",
"426 115 LINE",
"427 87 LINE SMOOTH",
"429 41 OFFCURVE",
"433 14 OFFCURVE",
"437 0 CURVE",
"528 0 LINE",
"528 5 LINE",
"523 12 OFFCURVE",
"516 88 OFFCURVE",
"516 133 CURVE SMOOTH",
"516 397 LINE SMOOTH",
"516 517 OFFCURVE",
"439 573 OFFCURVE",
"298 573 CURVE SMOOTH",
"140 573 OFFCURVE",
"64 502 OFFCURVE",
"62 397 CURVE",
"159 387 LINE",
"158 462 OFFCURVE",
"213 495 OFFCURVE",
"298 495 CURVE SMOOTH",
"386 495 OFFCURVE",
"413 459 OFFCURVE",
"414 409 CURVE SMOOTH",
"413 374 OFFCURVE",
"400 354 OFFCURVE",
"341 343 CURVE SMOOTH",
"223 321 LINE SMOOTH",
"127 303 OFFCURVE",
"42 259 OFFCURVE",
"42 147 CURVE SMOOTH",
"42 54 OFFCURVE",
"109 -10 OFFCURVE",
"227 -10 CURVE SMOOTH"
);
},
{
closed = 1;
nodes = (
"192 72 OFFCURVE",
"147 98 OFFCURVE",
"147 155 CURVE SMOOTH",
"147 193 OFFCURVE",
"167 230 OFFCURVE",
"251 247 CURVE SMOOTH",
"334 264 LINE SMOOTH",
"375 272 OFFCURVE",
"400 278 OFFCURVE",
"415 286 CURVE",
"415 169 LINE",
"395 108 OFFCURVE",
"333 72 OFFCURVE",
"253 72 CURVE SMOOTH"
);
}
);
width = 579;
},
{
anchors = (
{
name = bottom;
position = "{320, 0}";
},
{
name = ogonek;
position = "{625, 10}";
},
{
name = top;
position = "{320, 584}";
}
);
background = {
paths = (
{
closed = 1;
nodes = (
"304 -10 OFFCURVE",
"366 20 OFFCURVE",
"403 79 CURVE",
"405 72 LINE SMOOTH",
"420 20 OFFCURVE",
"466 -7 OFFCURVE",
"535 -7 CURVE SMOOTH",
"567 -7 OFFCURVE",
"603 -2 OFFCURVE",
"625 10 CURVE",
"625 142 LINE",
"619 142 LINE",
"615 140 OFFCURVE",
"609 139 OFFCURVE",
"603 139 CURVE SMOOTH",
"584 139 OFFCURVE",
"569 146 OFFCURVE",
"569 176 CURVE SMOOTH",
"569 400 LINE SMOOTH",
"569 516 OFFCURVE",
"497.04 594 OFFCURVE",
"312 594 CURVE SMOOTH",
"150 594 OFFCURVE",
"47 519 OFFCURVE",
"50 395 CURVE",
"223 374 LINE",
"223 430 OFFCURVE",
"250 457 OFFCURVE",
"307 457 CURVE SMOOTH",
"350 457 OFFCURVE",
"378 443 OFFCURVE",
"378 407 CURVE SMOOTH",
"378 378.163 OFFCURVE",
"362.96 362.163 OFFCURVE",
"331 357 CURVE SMOOTH",
"201 336 LINE SMOOTH",
"87.88 317.727 OFFCURVE",
"28 253 OFFCURVE",
"28 158 CURVE SMOOTH",
"28 56 OFFCURVE",
"105 -10 OFFCURVE",
"224 -10 CURVE SMOOTH"
);
},
{
closed = 1;
nodes = (
"243 122 OFFCURVE",
"220 144 OFFCURVE",
"220 176 CURVE SMOOTH",
"220 202 OFFCURVE",
"236 223 OFFCURVE",
"270 229 CURVE SMOOTH",
"339 241 LINE SMOOTH",
"357 244 OFFCURVE",
"376 250 OFFCURVE",
"393 258 CURVE",
"384 263 LINE",
"384 202 LINE",
"379 151 OFFCURVE",
"343 122 OFFCURVE",
"287 122 CURVE SMOOTH"
);
}
);
};
layerId = "E787E54A-EE3E-475A-BF02-8501A6DA5144";
paths = (
{
closed = 1;
nodes = (
"304 -10 OFFCURVE",
"366 20 OFFCURVE",
"403 79 CURVE",
"405 72 LINE SMOOTH",
"420 20 OFFCURVE",
"466 -7 OFFCURVE",
"535 -7 CURVE SMOOTH",
"567 -7 OFFCURVE",
"603 -2 OFFCURVE",
"625 10 CURVE",
"625 142 LINE",
"619 142 LINE",
"615 140 OFFCURVE",
"609 139 OFFCURVE",
"603 139 CURVE SMOOTH",
"584 139 OFFCURVE",
"569 146 OFFCURVE",
"569 176 CURVE SMOOTH",
"569 400 LINE SMOOTH",
"569 516 OFFCURVE",
"497.04 594 OFFCURVE",
"312 594 CURVE SMOOTH",
"150 594 OFFCURVE",
"47 519 OFFCURVE",
"50 395 CURVE",
"223 374 LINE",
"223 430 OFFCURVE",
"250 457 OFFCURVE",
"307 457 CURVE SMOOTH",
"350 457 OFFCURVE",
"378 443 OFFCURVE",
"378 407 CURVE SMOOTH",
"378 378.163 OFFCURVE",
"362.96 362.163 OFFCURVE",
"331 357 CURVE SMOOTH",
"201 336 LINE SMOOTH",
"87.88 317.727 OFFCURVE",
"28 253 OFFCURVE",
"28 158 CURVE SMOOTH",
"28 56 OFFCURVE",
"105 -10 OFFCURVE",
"224 -10 CURVE SMOOTH"
);
},
{
closed = 1;
nodes = (
"243 122 OFFCURVE",
"220 144 OFFCURVE",
"220 176 CURVE SMOOTH",
"220 202 OFFCURVE",
"236 223 OFFCURVE",
"270 229 CURVE SMOOTH",
"339 241 LINE SMOOTH",
"357 244 OFFCURVE",
"376 250 OFFCURVE",
"393 258 CURVE",
"384 263 LINE",
"384 202 LINE",
"379 151 OFFCURVE",
"343 122 OFFCURVE",
"287 122 CURVE SMOOTH"
);
}
);
width = 639;
},
{
associatedMasterId = "F114AD5B-DC62-4E73-AD12-1938E40AC8EF";
background = {
paths = (
{
closed = 1;
nodes = (
"537 51 LINE",
"530 49 OFFCURVE",
"526 48 OFFCURVE",
"519 48 CURVE SMOOTH",
"497 48 OFFCURVE",
"482 54 OFFCURVE",
"482 93 CURVE SMOOTH",
"482 424 LINE SMOOTH",
"482 504 OFFCURVE",
"416 567 OFFCURVE",
"275 567 CURVE SMOOTH",
"143 567 OFFCURVE",
"56 510 OFFCURVE",
"58 389 CURVE",
"120 384 LINE",
"118 471 OFFCURVE",
"169 512 OFFCURVE",
"279 512 CURVE SMOOTH",
"363 512 OFFCURVE",
"419 482 OFFCURVE",
"419 417 CURVE SMOOTH",
"419 377 OFFCURVE",
"411 350 OFFCURVE",
"358 341 CURVE SMOOTH",
"197 314 LINE SMOOTH",
"105 299 OFFCURVE",
"38 246 OFFCURVE",
"38 155 CURVE SMOOTH",
"38 54 OFFCURVE",
"111 -10 OFFCURVE",
"223 -10 CURVE SMOOTH",
"305 -10 OFFCURVE",
"381 24 OFFCURVE",
"421 97 CURVE",
"421 80 LINE SMOOTH",
"421 28 OFFCURVE",
"442 -6 OFFCURVE",
"501 -6 CURVE SMOOTH",
"517 -6 OFFCURVE",
"531 -3 OFFCURVE",
"541 0 CURVE",
"541 51 LINE"
);
},
{
closed = 1;
nodes = (
"103 219 OFFCURVE",
"147 253 OFFCURVE",
"227 265 CURVE SMOOTH",
"322 279 LINE SMOOTH",
"367 286 OFFCURVE",
"403 295 OFFCURVE",
"420 309 CURVE",
"420 211 LINE",
"413 112 OFFCURVE",
"345 46 OFFCURVE",
"233 46 CURVE SMOOTH",
"150 46 OFFCURVE",
"103 85 OFFCURVE",
"103 156 CURVE SMOOTH"
);
}
);
};
hints = (
{
horizontal = 1;
origin = "{0, 7}";
target = "{1, 13}";
type = TTStem;
options = 4;
},
{
horizontal = 1;
origin = "{0, 16}";
target = "{0, 23}";
type = TTStem;
options = 4;
},
{
horizontal = 1;
origin = "{1, 13}";
target = "{0, 36}";
type = TTStem;
options = 4;
}
);
layerId = "4290CB9E-415F-4167-A081-78A4428B9D3A";
name = "[720]";
paths = (
{
closed = 1;
nodes = (
"309 -10 OFFCURVE",
"387 27 OFFCURVE",
"426 107 CURVE",
"422 107 LINE",
"422 97 LINE SMOOTH",
"422 59 OFFCURVE",
"425 18 OFFCURVE",
"430 0 CURVE",
"491 0 LINE",
"491 2 LINE",
"485 14 OFFCURVE",
"482 54 OFFCURVE",
"482 113 CURVE SMOOTH",
"482 417 LINE SMOOTH",
"482 507 OFFCURVE",
"407 567 OFFCURVE",
"275 567 CURVE SMOOTH",
"143 567 OFFCURVE",
"56 496 OFFCURVE",
"58 389 CURVE",
"120 384 LINE",
"118 461 OFFCURVE",
"169 512 OFFCURVE",
"279 512 CURVE SMOOTH",
"363 512 OFFCURVE",
"419 478 OFFCURVE",
"419 415 CURVE SMOOTH",
"419 377 OFFCURVE",
"404 349 OFFCURVE",
"345 339 CURVE SMOOTH",
"197 314 LINE SMOOTH",
"105 298 OFFCURVE",
"38 246 OFFCURVE",
"38 155 CURVE SMOOTH",
"38 54 OFFCURVE",
"111 -10 OFFCURVE",
"223 -10 CURVE SMOOTH"
);
},
{
closed = 1;
nodes = (
"150 46 OFFCURVE",
"103 85 OFFCURVE",
"103 156 CURVE SMOOTH",
"103 219 OFFCURVE",
"147 253 OFFCURVE",
"227 265 CURVE SMOOTH",
"322 279 LINE SMOOTH",
"367 286 OFFCURVE",
"403 295 OFFCURVE",
"420 309 CURVE",
"420 211 LINE",
"413 112 OFFCURVE",
"345 46 OFFCURVE",
"233 46 CURVE SMOOTH"
);
}
);
width = 552;
},
{
associatedMasterId = "E787E54A-EE3E-475A-BF02-8501A6DA5144";
background = {
paths = (
{
closed = 1;
nodes = (
"302 -10 OFFCURVE",
"381 31 OFFCURVE",
"395 94 CURVE",
"388 95 LINE",
"389 78 LINE SMOOTH",
"391 47 OFFCURVE",
"394 16 OFFCURVE",
"397 0 CURVE",
"581 0 LINE",
"581 6 LINE",
"574 14 OFFCURVE",
"569 47 OFFCURVE",
"569 111 CURVE SMOOTH",
"569 407 LINE SMOOTH",
"569 527 OFFCURVE",
"485 594 OFFCURVE",
"327 594 CURVE SMOOTH",
"160 594 OFFCURVE",
"61 531 OFFCURVE",
"50 399 CURVE",
"223 378 LINE",
"223 433 OFFCURVE",
"250 460 OFFCURVE",
"307 460 CURVE SMOOTH",
"347 460 OFFCURVE",
"378 446 OFFCURVE",
"378 404 CURVE SMOOTH",
"378 375 OFFCURVE",
"363 357 OFFCURVE",
"331 351 CURVE SMOOTH",
"212 329 LINE SMOOTH",
"79 304 OFFCURVE",
"28 237 OFFCURVE",
"28 146 CURVE SMOOTH",
"28 52 OFFCURVE",
"101 -10 OFFCURVE",
"211 -10 CURVE SMOOTH"
);
},
{
closed = 1;
nodes = (
"241 120 OFFCURVE",
"220 140 OFFCURVE",
"220 171 CURVE SMOOTH",
"220 200 OFFCURVE",
"238 218 OFFCURVE",
"280 226 CURVE SMOOTH",
"339 237 LINE SMOOTH",
"356 240 OFFCURVE",
"375 245 OFFCURVE",
"384 250 CURVE",
"384 183 LINE",
"380 147 OFFCURVE",
"339 120 OFFCURVE",
"287 120 CURVE SMOOTH"
);
}
);
};
layerId = "FB852309-AE4A-4FFD-BE60-D7BEE0A87FF0";
name = "[720]";
paths = (
{
closed = 1;
nodes = (
"303 -10 OFFCURVE",
"366 20 OFFCURVE",
"403 80 CURVE",
"390 80 LINE",
"391 55 LINE SMOOTH",
"392 32 OFFCURVE",
"394 12 OFFCURVE",
"397 0 CURVE",
"581 0 LINE",
"581 6 LINE",
"574 14 OFFCURVE",
"569 47 OFFCURVE",
"569 111 CURVE SMOOTH",
"569 407 LINE SMOOTH",
"569 527 OFFCURVE",
"485 594 OFFCURVE",
"327 594 CURVE SMOOTH",
"160 594 OFFCURVE",
"61 531 OFFCURVE",
"50 399 CURVE",
"223 378 LINE",
"223 433 OFFCURVE",
"250 460 OFFCURVE",
"307 460 CURVE SMOOTH",
"347 460 OFFCURVE",
"377 446 OFFCURVE",
"378 406 CURVE SMOOTH",
"377 377 OFFCURVE",
"362 362 OFFCURVE",
"331 357 CURVE SMOOTH",
"201 336 LINE SMOOTH",
"88 318 OFFCURVE",
"28 253 OFFCURVE",
"28 158 CURVE SMOOTH",
"28 56 OFFCURVE",
"105 -10 OFFCURVE",
"224 -10 CURVE SMOOTH"
);
},
{
closed = 1;
nodes = (
"243 122 OFFCURVE",
"220 144 OFFCURVE",
"220 176 CURVE SMOOTH",
"220 202 OFFCURVE",
"236 223 OFFCURVE",
"270 229 CURVE SMOOTH",
"339 241 LINE SMOOTH",
"354 243 OFFCURVE",
"369 248 OFFCURVE",
"384 254 CURVE",
"384 207 LINE SMOOTH",
"381 153 OFFCURVE",
"344 122 OFFCURVE",
"287 122 CURVE SMOOTH"
);
}
);
width = 616;
}
);
leftKerningGroup = KO_a;
rightKerningGroup = KO_a;
unicode = 0061;
userData = {
KernOnName = a;
};
},
{
glyphname = ae;
layers = (
{
anchors = (
{
name = top;
position = "{473.16, 557}";
}
);
layerId = "F114AD5B-DC62-4E73-AD12-1938E40AC8EF";
paths = (
{
closed = 1;
nodes = (
"42.16 50 OFFCURVE",
"112.16 -10 OFFCURVE",
"224.16 -10 CURVE SMOOTH",
"336.16 -10 OFFCURVE",
"426.16 53 OFFCURVE",
"448.16 139 CURVE",
"475.16 49 OFFCURVE",
"560.16 -9 OFFCURVE",
"676.16 -9 CURVE SMOOTH",
"796.16 -9 OFFCURVE",
"883.16 54 OFFCURVE",
"904.16 160 CURVE",
"842.16 166 LINE",
"828.16 98 OFFCURVE",
"771.16 47 OFFCURVE",
"670.16 47 CURVE SMOOTH",
"544.16 47 OFFCURVE",
"490.16 128 OFFCURVE",
"495.16 266 CURVE",
"902.16 266 LINE",
"903.16 277 OFFCURVE",
"905.16 300 OFFCURVE",
"905.16 323 CURVE SMOOTH",
"905.16 476 OFFCURVE",
"812.16 567 OFFCURVE",
"672.16 567 CURVE SMOOTH",
"587.16 567 OFFCURVE",
"516.16 533 OFFCURVE",
"473.16 467 CURVE",
"449.16 530 OFFCURVE",
"378.16 566 OFFCURVE",
"285.16 566 CURVE SMOOTH",
"150.16 566 OFFCURVE",
"60.16 496 OFFCURVE",
"65.16 371 CURVE",
"124.16 365 LINE",
"117.16 462 OFFCURVE",
"179.16 514 OFFCURVE",
"285.16 514 CURVE SMOOTH",
"367.16 514 OFFCURVE",
"422.16 475 OFFCURVE",
"422.16 399 CURVE SMOOTH",
"422.16 354 OFFCURVE",
"391.16 326 OFFCURVE",
"345.16 320 CURVE SMOOTH",
"215.16 305 LINE SMOOTH",
"122.16 294 OFFCURVE",
"42.16 247 OFFCURVE",
"42.16 140 CURVE SMOOTH"
);
},
{
closed = 1;
nodes = (
"498.16 440 OFFCURVE",
"561.16 508 OFFCURVE",
"669.16 508 CURVE SMOOTH",
"776.16 508 OFFCURVE",
"846.16 440 OFFCURVE",
"842.16 318 CURVE",
"494.16 318 LINE"
);
},
{
closed = 1;
nodes = (
"107.16 216 OFFCURVE",
"154.16 246 OFFCURVE",
"238.16 256 CURVE SMOOTH",
"359.16 271 LINE SMOOTH",
"390.16 274 OFFCURVE",
"415.16 283 OFFCURVE",
"422.16 293 CURVE",
"422.16 192 LINE",
"406.16 104 OFFCURVE",
"339.16 46 OFFCURVE",
"224.16 46 CURVE SMOOTH",
"154.16 46 OFFCURVE",
"107.16 82 OFFCURVE",
"107.16 147 CURVE SMOOTH"
);
}
);
width = 932.16;
},
{
anchors = (
{
name = top;
position = "{486, 584}";
}
);
layerId = "E787E54A-EE3E-475A-BF02-8501A6DA5144";
paths = (
{
closed = 1;
nodes = (
"28 56 OFFCURVE",
"102 -10 OFFCURVE",
"225 -10 CURVE SMOOTH",
"324 -10 OFFCURVE",
"402 26 OFFCURVE",
"440 92 CURVE",
"480 27 OFFCURVE",
"554 -10 OFFCURVE",
"654 -10 CURVE SMOOTH",
"797 -10 OFFCURVE",
"899 60 OFFCURVE",
"915 174 CURVE",
"742 199 LINE",
"734 159 OFFCURVE",
"702 132 OFFCURVE",
"656 132 CURVE SMOOTH",
"602 132 OFFCURVE",
"559 162 OFFCURVE",
"559 247 CURVE",
"908 247 LINE",
"912 262 OFFCURVE",
"915 291 OFFCURVE",
"915 322 CURVE SMOOTH",
"915 494 OFFCURVE",
"823 594 OFFCURVE",
"662 594 CURVE SMOOTH",
"586 594 OFFCURVE",
"522 572 OFFCURVE",
"486 532 CURVE",
"452 569 OFFCURVE",
"385 594 OFFCURVE",
"308 594 CURVE SMOOTH",
"135 594 OFFCURVE",
"55 516 OFFCURVE",
"51 395 CURVE",
"224 371 LINE",
"226 418 OFFCURVE",
"250 450 OFFCURVE",
"310 450 CURVE SMOOTH",
"353 450 OFFCURVE",
"381 432 OFFCURVE",
"381 395 CURVE SMOOTH",
"381 370 OFFCURVE",
"363 352 OFFCURVE",
"326 347 CURVE SMOOTH",
"199 330 LINE SMOOTH",
"90 316 OFFCURVE",
"28 248 OFFCURVE",
"28 159 CURVE SMOOTH"
);
},
{
closed = 1;
nodes = (
"565 428 OFFCURVE",
"597 453 OFFCURVE",
"649 453 CURVE SMOOTH",
"692 453 OFFCURVE",
"729 434 OFFCURVE",
"729 357 CURVE",
"559 357 LINE"
);
},
{
closed = 1;
nodes = (
"220 206 OFFCURVE",
"256 213 OFFCURVE",
"279 216 CURVE SMOOTH",
"331 223 LINE SMOOTH",
"355 226 OFFCURVE",
"369 230 OFFCURVE",
"381 237 CURVE",
"381 190 LINE",
"374 152 OFFCURVE",
"336 127 OFFCURVE",
"284 127 CURVE SMOOTH",
"248 127 OFFCURVE",
"220 141 OFFCURVE",
"220 171 CURVE SMOOTH"
);
}
);
width = 946;
},
{
anchors = (
{
name = top;
position = "{481, 565}";
}
);
layerId = "47995495-C855-4C5A-BA32-118EA0334940";
paths = (
{
closed = 1;
nodes = (
"42 52 OFFCURVE",
"113 -10 OFFCURVE",
"229 -10 CURVE SMOOTH",
"337 -10 OFFCURVE",
"423 45 OFFCURVE",
"450 124 CURVE",
"482 41 OFFCURVE",
"564 -9 OFFCURVE",
"673 -9 CURVE SMOOTH",
"805 -9 OFFCURVE",
"893 59 OFFCURVE",
"912 164 CURVE",
"815 177 LINE",
"803 117 OFFCURVE",
"754 74 OFFCURVE",
"670 74 CURVE SMOOTH",
"570 74 OFFCURVE",
"515 135 OFFCURVE",
"519 261 CURVE",
"909 261 LINE",
"910 273 OFFCURVE",
"913 300 OFFCURVE",
"913 323 CURVE SMOOTH",
"913 481 OFFCURVE",
"820 575 OFFCURVE",
"673 575 CURVE SMOOTH",
"594 575 OFFCURVE",
"524 547 OFFCURVE",
"481 487 CURVE",
"454 542 OFFCURVE",
"385 575 OFFCURVE",
"297 575 CURVE SMOOTH",
"156 575 OFFCURVE",
"63 508 OFFCURVE",
"65 379 CURVE",
"160 367 LINE",
"155 453 OFFCURVE",
"211 494 OFFCURVE",
"297 494 CURVE SMOOTH",
"366 494 OFFCURVE",
"414 462 OFFCURVE",
"414 398 CURVE SMOOTH",
"414 359 OFFCURVE",
"387 333 OFFCURVE",
"344 328 CURVE SMOOTH",
"215 313 LINE SMOOTH",
"115 301 OFFCURVE",
"42 246 OFFCURVE",
"42 146 CURVE SMOOTH"
);
},
{
closed = 1;
nodes = (
"523 436 OFFCURVE",
"577 491 OFFCURVE",
"668 491 CURVE SMOOTH",
"757 491 OFFCURVE",
"814 436 OFFCURVE",
"811 330 CURVE",
"519 330 LINE"
);
},
{
closed = 1;
nodes = (
"147 213 OFFCURVE",
"190 236 OFFCURVE",
"255 244 CURVE SMOOTH",
"355 256 LINE SMOOTH",
"384 260 OFFCURVE",
"404 266 OFFCURVE",
"414 276 CURVE",
"414 192 LINE",
"401 120 OFFCURVE",
"344 71 OFFCURVE",
"247 71 CURVE SMOOTH",
"187 71 OFFCURVE",
"147 101 OFFCURVE",
"147 155 CURVE SMOOTH"
);
}
);
width = 940;
}
);
leftKerningGroup = KO_a;
leftMetricsKey = "=a";
rightKerningGroup = KO_ae;
rightMetricsKey = "=e";
unicode = 00E6;
},
{
color = 3;
glyphname = b;
layers = (
{
anchors = (
{
name = bottom;
position = "{306, 0}";
},
{
name = top;
position = "{306, 790}";
}
);
layerId = "F114AD5B-DC62-4E73-AD12-1938E40AC8EF";
paths = (
{
closed = 1;
nodes = (
"129 0 LINE",
"135 105 LINE",
"167 34 OFFCURVE",
"240 -10 OFFCURVE",
"332 -10 CURVE SMOOTH",
"480 -10 OFFCURVE",
"571 100 OFFCURVE",
"571 274 CURVE SMOOTH",
"571 453 OFFCURVE",
"477 567 OFFCURVE",
"330 567 CURVE SMOOTH",
"239 567 OFFCURVE",
"170 526 OFFCURVE",
"133 455 CURVE",
"133 790 LINE",
"71 790 LINE",
"71 0 LINE"
);
},
{
closed = 1;
nodes = (
"133 314 LINE SMOOTH",
"133 429 OFFCURVE",
"209 507 OFFCURVE",
"323 507 CURVE SMOOTH",
"440 507 OFFCURVE",
"506 423 OFFCURVE",
"506 273 CURVE SMOOTH",
"506 130 OFFCURVE",
"440 49 OFFCURVE",
"325 49 CURVE SMOOTH",
"214 49 OFFCURVE",
"133 124 OFFCURVE",
"133 227 CURVE SMOOTH"
);
}
);
width = 612;
},
{
anchors = (
{
name = bottom;
position = "{341, 0}";
},
{
name = top;
position = "{341, 790}";
}
);
layerId = "E787E54A-EE3E-475A-BF02-8501A6DA5144";
paths = (
{
closed = 1;
nodes = (
"229 0 LINE",
"238 76 LINE",
"267 20 OFFCURVE",
"334 -10 OFFCURVE",
"407 -10 CURVE SMOOTH",
"557 -10 OFFCURVE",
"652 106 OFFCURVE",
"652 290 CURVE SMOOTH",
"652 476 OFFCURVE",
"555 594 OFFCURVE",
"402 594 CURVE SMOOTH",
"333 594 OFFCURVE",
"276 569 OFFCURVE",
"244 515 CURVE",
"244 790 LINE",
"53 790 LINE",
"53 0 LINE"
);
},
{
closed = 1;
nodes = (
"244 302 LINE SMOOTH",
"244 394 OFFCURVE",
"280 441 OFFCURVE",
"350 441 CURVE SMOOTH",
"421 441 OFFCURVE",
"458 389 OFFCURVE",
"458 292 CURVE SMOOTH",
"458 195 OFFCURVE",
"420 143 OFFCURVE",
"350 143 CURVE SMOOTH",
"280 143 OFFCURVE",
"244 189 OFFCURVE",
"244 281 CURVE SMOOTH"
);
}
);
width = 682;
},
{
anchors = (
{
name = bottom;
position = "{322, 0}";
},
{
name = top;
position = "{322, 790}";
}
);
layerId = "47995495-C855-4C5A-BA32-118EA0334940";
paths = (
{
closed = 1;
nodes = (
"165 0 LINE",
"172 96 LINE",
"204 30 OFFCURVE",
"275 -10 OFFCURVE",
"360 -10 CURVE SMOOTH",
"509 -10 OFFCURVE",
"602 102 OFFCURVE",
"602 278 CURVE SMOOTH",
"602 458 OFFCURVE",
"506 573 OFFCURVE",
"358 573 CURVE SMOOTH",
"277 573 OFFCURVE",
"211 540 OFFCURVE",
"173 472 CURVE",
"173 790 LINE",
"71 790 LINE",
"71 0 LINE"
);
},
{
closed = 1;
nodes = (
"173 309 LINE SMOOTH",
"173 416 OFFCURVE",
"237 485 OFFCURVE",
"337 485 CURVE SMOOTH",
"440 485 OFFCURVE",
"497 410 OFFCURVE",
"497 278 CURVE SMOOTH",
"497 151 OFFCURVE",
"439 78 OFFCURVE",
"338 78 CURVE SMOOTH",
"240 78 OFFCURVE",
"173 144 OFFCURVE",
"173 243 CURVE SMOOTH"
);
}
);
width = 643;
}
);
leftKerningGroup = KO_l;
leftMetricsKey = "=h";
rightKerningGroup = KO_p;
rightMetricsKey = "=o";
unicode = 0062;
},
{
color = 3;
glyphname = c;
layers = (
{
anchors = (
{
name = bottom;
position = "{279, 0}";
},
{
name = top;
position = "{279, 557}";
}
);
layerId = "F114AD5B-DC62-4E73-AD12-1938E40AC8EF";
paths = (
{
closed = 1;
nodes = (
"419 -9 OFFCURVE",
"503 59 OFFCURVE",
"521 170 CURVE",
"457 176 LINE",
"443 97 OFFCURVE",
"384 51 OFFCURVE",
"295 51 CURVE SMOOTH",
"178 51 OFFCURVE",
"106 137 OFFCURVE",
"106 279 CURVE SMOOTH",
"106 421 OFFCURVE",
"178 507 OFFCURVE",
"295 507 CURVE SMOOTH",
"387 507 OFFCURVE",
"448 457 OFFCURVE",
"458 372 CURVE",
"523 378 LINE",
"508 495 OFFCURVE",
"422 567 OFFCURVE",
"298 567 CURVE SMOOTH",
"142 567 OFFCURVE",
"41 453 OFFCURVE",
"41 279 CURVE SMOOTH",
"41 105 OFFCURVE",
"142 -9 OFFCURVE",
"297 -9 CURVE SMOOTH"
);
}
);
width = 557;
},
{
anchors = (
{
name = bottom;
position = "{319, 0}";
},
{
name = top;
position = "{319, 584}";
}
);
background = {
paths = (
{
closed = 1;
nodes = (
"493 -10 OFFCURVE",
"605 80 OFFCURVE",
"613 215 CURVE",
"433 241 LINE",
"432 179 OFFCURVE",
"392 144 OFFCURVE",
"332 144 CURVE SMOOTH",
"264 144 OFFCURVE",
"226 203 OFFCURVE",
"226 292 CURVE SMOOTH",
"226 387 OFFCURVE",
"268 440 OFFCURVE",
"335 440 CURVE SMOOTH",
"385 440 OFFCURVE",
"423 417 OFFCURVE",
"429 358 CURVE",
"606 384 LINE",
"594 510 OFFCURVE",
"495 594 OFFCURVE",
"334 594 CURVE SMOOTH",
"153 594 OFFCURVE",
"32 473 OFFCURVE",
"32 292 CURVE SMOOTH",
"32 111 OFFCURVE",
"150 -10 OFFCURVE",
"330 -10 CURVE SMOOTH"
);
}
);
};
layerId = "E787E54A-EE3E-475A-BF02-8501A6DA5144";
paths = (
{
closed = 1;
nodes = (
"493 -10 OFFCURVE",
"605 80 OFFCURVE",
"613 215 CURVE",
"433 241 LINE",
"432 179 OFFCURVE",
"392 141 OFFCURVE",
"331 141 CURVE SMOOTH",
"260 141 OFFCURVE",
"218 195 OFFCURVE",
"218 292 CURVE SMOOTH",
"218 389 OFFCURVE",
"260 443 OFFCURVE",
"331 443 CURVE SMOOTH",
"385 443 OFFCURVE",
"423 417 OFFCURVE",
"429 358 CURVE",
"606 384 LINE",
"594 510 OFFCURVE",
"495 594 OFFCURVE",
"331 594 CURVE SMOOTH",
"148 594 OFFCURVE",
"30 473 OFFCURVE",
"30 292 CURVE SMOOTH",
"30 111 OFFCURVE",
"148 -10 OFFCURVE",
"331 -10 CURVE SMOOTH"
);
}
);
width = 638;
},
{
anchors = (
{
name = bottom;
position = "{291, 0}";
},
{
name = top;
position = "{291, 563}";
}
);
layerId = "47995495-C855-4C5A-BA32-118EA0334940";
paths = (
{
closed = 1;
nodes = (
"437 -9 OFFCURVE",
"532 60 OFFCURVE",
"548 183 CURVE",
"448 195 LINE",
"440 122 OFFCURVE",
"386 80 OFFCURVE",
"307 80 CURVE SMOOTH",
"207 80 OFFCURVE",
"146 157 OFFCURVE",
"146 282 CURVE SMOOTH",
"146 408 OFFCURVE",
"208 484 OFFCURVE",
"307 484 CURVE SMOOTH",
"385 484 OFFCURVE",
"440 446 OFFCURVE",
"448 367 CURVE",
"548 379 LINE",
"533 495 OFFCURVE",
"446 573 OFFCURVE",
"310 573 CURVE SMOOTH",
"148 573 OFFCURVE",
"41 458 OFFCURVE",
"41 282 CURVE SMOOTH",
"41 107 OFFCURVE",
"146 -9 OFFCURVE",
"308 -9 CURVE SMOOTH"
);
}
);
width = 582;
}
);
leftKerningGroup = KO_e;
leftMetricsKey = o;
rightKerningGroup = KO_c;
unicode = 0063;
},
{
color = 3;
glyphname = d;
layers = (
{
anchors = (
{
name = bottom;
position = "{307, 0}";
},
{
name = center;
position = "{479, 689}";
},
{
name = top;
position = "{307, 790}";
},
{
name = topright;
position = "{594, 790}";
}
);
layerId = "F114AD5B-DC62-4E73-AD12-1938E40AC8EF";
paths = (
{
closed = 1;
nodes = (
"41 100 OFFCURVE",
"132 -10 OFFCURVE",
"280 -10 CURVE SMOOTH",
"372 -10 OFFCURVE",
"445 34 OFFCURVE",
"477 105 CURVE",
"483 0 LINE",
"541 0 LINE",
"541 790 LINE",
"479 790 LINE",
"479 455 LINE",
"443 525 OFFCURVE",
"372 567 OFFCURVE",
"282 567 CURVE SMOOTH",
"135 567 OFFCURVE",
"41 453 OFFCURVE",
"41 274 CURVE SMOOTH"
);
},
{
closed = 1;
nodes = (
"106 423 OFFCURVE",
"172 507 OFFCURVE",
"289 507 CURVE SMOOTH",
"403 507 OFFCURVE",
"479 429 OFFCURVE",
"479 314 CURVE SMOOTH",
"479 237 LINE SMOOTH",
"479 126 OFFCURVE",
"400 49 OFFCURVE",
"287 49 CURVE SMOOTH",
"172 49 OFFCURVE",
"106 130 OFFCURVE",
"106 273 CURVE SMOOTH"
);
}
);
width = 614;
},
{
anchors = (
{
name = bottom;
position = "{341, 0}";
},
{
name = center;
position = "{517, 689}";
},
{
name = top;
position = "{341, 790}";
},
{
name = topright;
position = "{662, 790}";
}
);
layerId = "E787E54A-EE3E-475A-BF02-8501A6DA5144";
paths = (
{
closed = 1;
nodes = (
"30 106 OFFCURVE",
"125 -10 OFFCURVE",
"275 -10 CURVE SMOOTH",
"348 -10 OFFCURVE",
"415 20 OFFCURVE",
"444 76 CURVE",
"453 0 LINE",
"629 0 LINE",
"629 790 LINE",
"438 790 LINE",
"438 515 LINE",
"406 570 OFFCURVE",
"351 594 OFFCURVE",
"280 594 CURVE SMOOTH",
"127 594 OFFCURVE",
"30 476 OFFCURVE",
"30 290 CURVE SMOOTH"
);
},
{
closed = 1;
nodes = (
"224 389 OFFCURVE",
"261 441 OFFCURVE",
"332 441 CURVE SMOOTH",
"402 441 OFFCURVE",
"438 394 OFFCURVE",
"438 302 CURVE SMOOTH",
"438 281 LINE SMOOTH",
"438 189 OFFCURVE",
"402 143 OFFCURVE",
"332 143 CURVE SMOOTH",
"262 143 OFFCURVE",
"224 195 OFFCURVE",
"224 292 CURVE SMOOTH"
);
}
);
width = 682;
},
{
anchors = (
{
name = bottom;
position = "{323, 0}";
},
{
name = center;
position = "{480, 689}";
},
{
name = top;
position = "{323, 790}";
},
{
name = topright;
position = "{625, 790}";
}
);
layerId = "47995495-C855-4C5A-BA32-118EA0334940";
paths = (
{
closed = 1;
nodes = (
"41 102 OFFCURVE",
"133 -10 OFFCURVE",
"282 -10 CURVE SMOOTH",
"368 -10 OFFCURVE",
"438 30 OFFCURVE",
"470 96 CURVE",
"477 0 LINE",
"572 0 LINE",
"572 790 LINE",
"470 790 LINE",
"470 472 LINE",
"434 537 OFFCURVE",
"370 573 OFFCURVE",
"285 573 CURVE SMOOTH",
"137 573 OFFCURVE",
"41 458 OFFCURVE",
"41 278 CURVE SMOOTH"
);
},
{
closed = 1;
nodes = (
"146 410 OFFCURVE",
"203 485 OFFCURVE",
"305 485 CURVE SMOOTH",
"406 485 OFFCURVE",
"470 416 OFFCURVE",
"470 309 CURVE SMOOTH",
"470 249 LINE SMOOTH",
"470 146 OFFCURVE",
"404 78 OFFCURVE",
"304 78 CURVE SMOOTH",
"203 78 OFFCURVE",
"146 150 OFFCURVE",
"146 278 CURVE SMOOTH"
);
}
);
width = 645;
}
);
leftKerningGroup = KO_d;
leftMetricsKey = "=o";
rightKerningGroup = KO_l;
rightMetricsKey = l;
unicode = 0064;
},
{
glyphname = eth;
layers = (
{
anchors = (
{
name = bottom;
position = "{297, 0}";
},
{
name = center;
position = "{297, 255}";
},
{
name = ogonek;
position = "{528, 10}";
},
{
name = top;
position = "{297, 511}";
},
{
name = topright;
position = "{565, 511}";
}
);
layerId = "F114AD5B-DC62-4E73-AD12-1938E40AC8EF";
paths = (
{
closed = 1;
nodes = (
"407 603 OFFCURVE",
"209 790 CURVE",
"129 790 LINE",
"129 785 LINE",
"250 666 OFFCURVE",
"331 589 OFFCURVE",
"399 508 CURVE",
"373 525 OFFCURVE",
"335 535 OFFCURVE",
"297 535 CURVE SMOOTH",
"140 535 OFFCURVE",
"41 431 OFFCURVE",
"41 267 CURVE SMOOTH",
"41 109 OFFCURVE",
"145 0 OFFCURVE",
"296 0 CURVE SMOOTH",
"452 0 OFFCURVE",
"551 105 OFFCURVE",
"551 272 CURVE SMOOTH",
"551 446 OFFCURVE"
);
},
{
closed = 1;
nodes = (
"106 404 OFFCURVE",
"177 482 OFFCURVE",
"297 482 CURVE SMOOTH",
"416 482 OFFCURVE",
"486 404 OFFCURVE",
"486 272 CURVE SMOOTH",
"486 138 OFFCURVE",
"416 59 OFFCURVE",
"296 59 CURVE SMOOTH",
"176 59 OFFCURVE",
"106 138 OFFCURVE",
"106 272 CURVE SMOOTH"
);
},
{
closed = 1;
nodes = (
"164 624 LINE",
"186 583 LINE",
"295 638 LINE",
"259 672 LINE"
);
},
{
closed = 1;
nodes = (
"447 714 LINE",
"425 755 LINE",
"293 689 LINE",
"328 655 LINE"
);
}
);
width = 592;
},
{
anchors = (
{
name = bottom;
position = "{324, 0}";
},
{
name = center;
position = "{324, 270}";
},
{
name = ogonek;
position = "{562, 10}";
},
{
name = top;
position = "{324, 540}";
},
{
name = topright;
position = "{600, 540}";
}
);
layerId = "E787E54A-EE3E-475A-BF02-8501A6DA5144";
paths = (
{
closed = 1;
nodes = (
"491 640 OFFCURVE",
"309 790 CURVE",
"140 790 LINE",
"140 779 LINE",
"239 670 OFFCURVE",
"301 594 OFFCURVE",
"347 519 CURVE",
"330 526 OFFCURVE",
"309 529 OFFCURVE",
"285 529 CURVE SMOOTH",
"132 529 OFFCURVE",
"30 420 OFFCURVE",
"30 256 CURVE SMOOTH",
"30 97 OFFCURVE",
"143 -9 OFFCURVE",
"314 -9 CURVE SMOOTH",
"491 -9 OFFCURVE",
"612 107 OFFCURVE",
"612 286 CURVE SMOOTH",
"612 444 OFFCURVE"
);
},
{
closed = 1;
nodes = (
"223 354 OFFCURVE",
"258 399 OFFCURVE",
"323 399 CURVE SMOOTH",
"387 399 OFFCURVE",
"422 354 OFFCURVE",
"422 273 CURVE SMOOTH",
"422 190 OFFCURVE",
"386 144 OFFCURVE",
"322 144 CURVE SMOOTH",
"259 144 OFFCURVE",
"223 191 OFFCURVE",
"223 273 CURVE SMOOTH"
);
},
{
closed = 1;
nodes = (
"164 639 LINE",
"199 557 LINE",
"312 600 LINE",
"254 674 LINE"
);
},
{
closed = 1;
nodes = (
"509 676 LINE",
"474 758 LINE",
"364 715 LINE",
"434 647 LINE"
);
}
);
width = 642;
},
{
anchors = (
{
name = bottom;
position = "{310, 0}";
},
{
name = center;
position = "{310, 260}";
},
{
name = ogonek;
position = "{543, 10}";
},
{
name = top;
position = "{310, 520}";
},
{
name = topright;
position = "{580, 520}";
}
);
layerId = "47995495-C855-4C5A-BA32-118EA0334940";
paths = (
{
closed = 1;
nodes = (
"431 626 OFFCURVE",
"244 790 CURVE",
"143 790 LINE",
"143 784 LINE",
"247 680 OFFCURVE",
"340 574 OFFCURVE",
"387 512 CURVE",
"364 525 OFFCURVE",
"333 534 OFFCURVE",
"298 534 CURVE SMOOTH",
"141 534 OFFCURVE",
"41 427 OFFCURVE",
"41 263 CURVE SMOOTH",
"41 105 OFFCURVE",
"148 -3 OFFCURVE",
"306 -3 CURVE SMOOTH",
"468 -3 OFFCURVE",
"574 105 OFFCURVE",
"574 283 CURVE SMOOTH",
"574 443 OFFCURVE"
);
},
{
closed = 1;
nodes = (
"146 388 OFFCURVE",
"206 457 OFFCURVE",
"309 457 CURVE SMOOTH",
"411 457 OFFCURVE",
"470 387 OFFCURVE",
"470 272 CURVE SMOOTH",
"470 154 OFFCURVE",
"410 86 OFFCURVE",
"308 86 CURVE SMOOTH",
"206 86 OFFCURVE",
"146 154 OFFCURVE",
"146 272 CURVE SMOOTH"
);
},
{
closed = 1;
nodes = (
"169 629 LINE",
"195 575 LINE",
"307 626 LINE",
"270 672 LINE"
);
},
{
closed = 1;
nodes = (
"471 702 LINE",
"445 756 LINE",
"317 695 LINE",
"363 651 LINE"
);
}
);
width = 615;
}
);
leftKerningGroup = KO_e;
leftMetricsKey = "=o";
rightKerningGroup = KO_o;
rightMetricsKey = "=o";
unicode = 00F0;
},
{
color = 3;
glyphname = e;
layers = (
{
anchors = (
{
name = "#entry";
position = "{99, 0}";
},
{
name = bottom;
position = "{278, 0}";
},
{
name = ogonek;
position = "{500, 10}";
},
{
name = top;
position = "{278, 557}";
}
);
background = {
anchors = (
{
name = "#entry";
position = "{106, 0}";
},
{
name = bottom;
position = "{278, 0}";
},
{
name = ogonek;
position = "{500, 10}";
},
{
name = top;
position = "{278, 557}";
}
);
paths = (
{
closed = 1;
nodes = (
"93 266 LINE",
"527 266 LINE",
"537 460 OFFCURVE",
"440 567 OFFCURVE",
"288 567 CURVE SMOOTH",
"131 567 OFFCURVE",
"41 451 OFFCURVE",
"41 278 CURVE SMOOTH",
"41 96 OFFCURVE",
"141 -10 OFFCURVE",
"295 -10 CURVE SMOOTH",
"413 -10 OFFCURVE",
"502 50 OFFCURVE",
"524 157 CURVE",
"461 170 LINE",
"448 95 OFFCURVE",
"390 50 OFFCURVE",
"296 50 CURVE SMOOTH",
"175 50 OFFCURVE",
"98 134 OFFCURVE",
"107 283 CURVE",
"106 302 LINE",
"105 435 OFFCURVE",
"177 510 OFFCURVE",
"289 510 CURVE SMOOTH",
"400 510 OFFCURVE",
"462 433 OFFCURVE",
"462 318 CURVE",
"93 318 LINE"
);
}
);
};
layerId = "F114AD5B-DC62-4E73-AD12-1938E40AC8EF";
paths = (
{
closed = 1;
nodes = (
"413 -10 OFFCURVE",
"502 50 OFFCURVE",
"524 157 CURVE",
"461 170 LINE",
"448 95 OFFCURVE",
"390 50 OFFCURVE",
"296 50 CURVE SMOOTH",
"175 50 OFFCURVE",
"104 127 OFFCURVE",
"104 282 CURVE SMOOTH",
"104 438 OFFCURVE",
"177 510 OFFCURVE",
"289 510 CURVE SMOOTH",
"407 510 OFFCURVE",
"470 422 OFFCURVE",
"461 294 CURVE",
"491 318 LINE",
"93 318 LINE",
"93 266 LINE",
"527 266 LINE",
"537 460 OFFCURVE",
"440 567 OFFCURVE",
"288 567 CURVE SMOOTH",
"131 567 OFFCURVE",
"41 451 OFFCURVE",
"41 278 CURVE SMOOTH",
"41 96 OFFCURVE",
"141 -10 OFFCURVE",
"295 -10 CURVE SMOOTH"
);
}
);
width = 555;
},
{
anchors = (
{
name = "#entry";
position = "{198, 0}";
},
{
name = bottom;
position = "{324, 0}";
},
{
name = ogonek;
position = "{582, 10}";
},
{
name = top;
position = "{324, 584}";
}
);
background = {
paths = (
{
closed = 1;
nodes = (
"208 236 LINE",
"613 236 LINE",
"636 460 OFFCURVE",
"521 594 OFFCURVE",
"331 594 CURVE SMOOTH",
"152 594 OFFCURVE",
"30 475 OFFCURVE",
"30 290 CURVE SMOOTH",
"30 98 OFFCURVE",
"162 -10 OFFCURVE",
"335 -10 CURVE SMOOTH",
"475 -10 OFFCURVE",
"586 58 OFFCURVE",
"612 160 CURVE",
"450 203 LINE",
"439 158 OFFCURVE",
"396 132 OFFCURVE",
"340 132 CURVE SMOOTH",
"258 132 OFFCURVE",
"204 186 OFFCURVE",
"231 306 CURVE SMOOTH",
"207 387 OFFCURVE",
"248 453 OFFCURVE",
"324 453 CURVE SMOOTH",
"379 453 OFFCURVE",
"420 416 OFFCURVE",
"421 355 CURVE",
"208 355 LINE"
);
}
);
};
layerId = "E787E54A-EE3E-475A-BF02-8501A6DA5144";
paths = (
{
closed = 1;
nodes = (
"475 -10 OFFCURVE",
"586 58 OFFCURVE",
"612 160 CURVE",
"450 203 LINE",
"439 158 OFFCURVE",
"397 132 OFFCURVE",
"338 132 CURVE SMOOTH",
"262 132 OFFCURVE",
"217 175 OFFCURVE",
"217 296 CURVE SMOOTH",
"217 395 OFFCURVE",
"252 453 OFFCURVE",
"328 453 CURVE SMOOTH",
"397 453 OFFCURVE",
"434 402 OFFCURVE",
"417 306 CURVE",
"464 355 LINE",
"178 355 LINE",
"178 236 LINE",
"613 236 LINE",
"636 460 OFFCURVE",
"521 594 OFFCURVE",
"331 594 CURVE SMOOTH",
"152 594 OFFCURVE",
"30 475 OFFCURVE",
"30 290 CURVE SMOOTH",
"30 98 OFFCURVE",
"162 -10 OFFCURVE",
"335 -10 CURVE SMOOTH"
);
}
);
width = 647;
},
{
anchors = (
{
name = "#entry";
position = "{136, 0}";
},
{
name = bottom;
position = "{292, 0}";
},
{
name = ogonek;
position = "{526, 10}";
},
{
name = top;
position = "{292, 563}";
}
);
background = {
anchors = (
{
name = "#entry";
position = "{230, 0}";
},
{
name = bottom;
position = "{292, 0}";
},
{
name = ogonek;
position = "{526, 10}";
},
{
name = top;
position = "{292, 563}";
}
);
paths = (
{
closed = 1;
nodes = (
"130 256 LINE",
"556 256 LINE",
"568 472 OFFCURVE",
"465 573 OFFCURVE",
"301 573 CURVE SMOOTH",
"140 573 OFFCURVE",
"41 457 OFFCURVE",
"41 281 CURVE SMOOTH",
"41 97 OFFCURVE",
"149 -10 OFFCURVE",
"308 -10 CURVE SMOOTH",
"439 -10 OFFCURVE",
"528 56 OFFCURVE",
"549 160 CURVE",
"458 181 LINE",
"446 114 OFFCURVE",
"394 75 OFFCURVE",
"310 75 CURVE SMOOTH",
"206 75 OFFCURVE",
"138 143 OFFCURVE",
"147 277 CURVE",
"145 313 LINE",
"146 429 OFFCURVE",
"213 492 OFFCURVE",
"303 492 CURVE SMOOTH",
"399 492 OFFCURVE",
"453 429 OFFCURVE",
"451 333 CURVE",
"130 333 LINE"
);
}
);
};
layerId = "47995495-C855-4C5A-BA32-118EA0334940";
paths = (
{
closed = 1;
nodes = (
"439 -10 OFFCURVE",
"529 58 OFFCURVE",
"549 160 CURVE",
"458 181 LINE",
"446 114 OFFCURVE",
"393 75 OFFCURVE",
"311 75 CURVE SMOOTH",
"203 75 OFFCURVE",
"142 143 OFFCURVE",
"142 283 CURVE SMOOTH",
"142 431 OFFCURVE",
"210 492 OFFCURVE",
"304 492 CURVE SMOOTH",
"410 492 OFFCURVE",
"465 413 OFFCURVE",
"448 297 CURVE",
"495 333 LINE",
"130 333 LINE",
"130 256 LINE",
"556 256 LINE",
"569 468 OFFCURVE",
"465 573 OFFCURVE",
"306 573 CURVE SMOOTH",
"138 573 OFFCURVE",
"41 457 OFFCURVE",
"41 281 CURVE SMOOTH",
"41 97 OFFCURVE",
"148 -10 OFFCURVE",
"310 -10 CURVE SMOOTH"
);
}
);
width = 584;
}
);
leftKerningGroup = KO_e;
rightKerningGroup = KO_e;
unicode = 0065;
userData = {
KernOnName = e;
};
},
{
glyphname = eogonek;
layers = (
{
layerId = "F114AD5B-DC62-4E73-AD12-1938E40AC8EF";
paths = (
{
closed = 1;
nodes = (
"413 -10 OFFCURVE",
"502 50 OFFCURVE",
"524 157 CURVE",
"461 170 LINE",
"448 95 OFFCURVE",
"390 50 OFFCURVE",
"296 50 CURVE SMOOTH",
"180 50 OFFCURVE",
"104 128 OFFCURVE",
"106 266 CURVE",
"527 266 LINE",
"537 460 OFFCURVE",
"440 567 OFFCURVE",
"288 567 CURVE SMOOTH",
"131 567 OFFCURVE",
"41 451 OFFCURVE",
"41 278 CURVE SMOOTH",
"41 96 OFFCURVE",
"141 -10 OFFCURVE",
"295 -10 CURVE SMOOTH"
);
},
{
closed = 1;
nodes = (
"440 -166 LINE",
"440 -115 LINE",
"401 -115 LINE SMOOTH",
"362 -115 OFFCURVE",
"342 -103 OFFCURVE",
"342 -80 CURVE SMOOTH",
"342 -43 OFFCURVE",
"372 -12 OFFCURVE",
"440 30 CURVE",
"413 33 LINE",
"309 -18 OFFCURVE",
"282 -62 OFFCURVE",
"284 -104 CURVE SMOOTH",
"286 -149 OFFCURVE",
"338 -166 OFFCURVE",
"388 -166 CURVE SMOOTH"
);
},
{
closed = 1;
nodes = (
"111 441 OFFCURVE",
"182 510 OFFCURVE",
"289 510 CURVE SMOOTH",
"400 510 OFFCURVE",
"462 433 OFFCURVE",
"462 318 CURVE",
"106 318 LINE"
);
}
);
width = 555;
},
{
layerId = "E787E54A-EE3E-475A-BF02-8501A6DA5144";
paths = (
{
closed = 1;
nodes = (
"475 -10 OFFCURVE",
"586 58 OFFCURVE",
"612 160 CURVE",
"450 203 LINE",
"439 158 OFFCURVE",
"396 132 OFFCURVE",
"340 132 CURVE SMOOTH",
"276 132 OFFCURVE",
"229 165 OFFCURVE",
"224 236 CURVE",
"613 236 LINE",
"636 460 OFFCURVE",
"521 594 OFFCURVE",
"331 594 CURVE SMOOTH",
"152 594 OFFCURVE",
"30 475 OFFCURVE",
"30 290 CURVE SMOOTH",
"30 98 OFFCURVE",
"162 -10 OFFCURVE",
"335 -10 CURVE SMOOTH"
);
},
{
closed = 1;
nodes = (
"526 -167 LINE",
"526 -87 LINE",
"485 -87 LINE SMOOTH",
"449 -87 OFFCURVE",
"432 -77 OFFCURVE",
"432 -58 CURVE SMOOTH",
"432 -19 OFFCURVE",
"472 3 OFFCURVE",
"526 43 CURVE",
"472 33 LINE",
"370 -11 OFFCURVE",
"301 -39 OFFCURVE",
"301 -99 CURVE SMOOTH",
"301 -152 OFFCURVE",
"358 -167 OFFCURVE",
"432 -167 CURVE SMOOTH"
);
},
{
closed = 1;
nodes = (
"226 412 OFFCURVE",
"264 453 OFFCURVE",
"324 453 CURVE SMOOTH",
"379 453 OFFCURVE",
"420 416 OFFCURVE",
"421 355 CURVE",
"224 355 LINE"
);
}
);
width = 647;
},
{
layerId = "47995495-C855-4C5A-BA32-118EA0334940";
paths = (
{
closed = 1;
nodes = (
"439 -10 OFFCURVE",
"528 56 OFFCURVE",
"549 160 CURVE",
"458 181 LINE",
"446 114 OFFCURVE",
"394 75 OFFCURVE",
"310 75 CURVE SMOOTH",
"212 75 OFFCURVE",
"146 136 OFFCURVE",
"146 256 CURVE",
"556 256 LINE",
"568 472 OFFCURVE",
"465 573 OFFCURVE",
"301 573 CURVE SMOOTH",
"140 573 OFFCURVE",
"41 457 OFFCURVE",
"41 281 CURVE SMOOTH",
"41 97 OFFCURVE",
"149 -10 OFFCURVE",
"308 -10 CURVE SMOOTH"
);
},
{
closed = 1;
nodes = (
"454 -167 LINE",
"454 -109 LINE",
"415 -109 LINE SMOOTH",
"377 -109 OFFCURVE",
"362 -97 OFFCURVE",
"362 -77 CURVE SMOOTH",
"362 -43 OFFCURVE",
"388 -19 OFFCURVE",
"457 28 CURVE",
"427 30 LINE",
"322 -11 OFFCURVE",
"283 -55 OFFCURVE",
"283 -101 CURVE SMOOTH",
"283 -148 OFFCURVE",
"336 -167 OFFCURVE",
"393 -167 CURVE SMOOTH"
);
},
{
closed = 1;
nodes = (
"154 436 OFFCURVE",
"218 492 OFFCURVE",
"303 492 CURVE SMOOTH",
"399 492 OFFCURVE",
"453 429 OFFCURVE",
"451 333 CURVE",
"146 333 LINE"
);
}
);
width = 584;
}
);
leftKerningGroup = KO_e;
rightKerningGroup = KO_e;
unicode = 0119;
},
{
color = 3;
glyphname = f;
layers = (
{
anchors = (
{
name = bottom;
position = "{128, 0}";
},
{
name = top;
position = "{128, 790}";
}
);
layerId = "F114AD5B-DC62-4E73-AD12-1938E40AC8EF";
paths = (
{
closed = 1;
nodes = (
"147 0 LINE",
"147 674 LINE SMOOTH",
"147 716 OFFCURVE",
"165 738 OFFCURVE",
"208 738 CURVE SMOOTH",
"220 738 OFFCURVE",
"230 736 OFFCURVE",
"234 734 CURVE",
"238 734 LINE",
"238 790 LINE",
"227 794 OFFCURVE",
"210 796 OFFCURVE",
"195 796 CURVE SMOOTH",
"137 796 OFFCURVE",
"85 766 OFFCURVE",
"85 681 CURVE SMOOTH",
"85 0 LINE"
);
},
{
closed = 1;
nodes = (
"117 503 LINE",
"117 557 LINE",
"7 557 LINE",
"7 503 LINE"
);
},
{
closed = 1;
nodes = (
"240 503 LINE",
"240 557 LINE",
"117 557 LINE",
"117 503 LINE"
);
}
);
width = 255;
},
{
anchors = (
{
name = bottom;
position = "{208, 0}";
},
{
name = top;
position = "{208, 790}";
}
);
layerId = "E787E54A-EE3E-475A-BF02-8501A6DA5144";
paths = (
{
closed = 1;
nodes = (
"292 0 LINE",
"292 607 LINE SMOOTH",
"292 648 OFFCURVE",
"312 659 OFFCURVE",
"353 659 CURVE SMOOTH",
"366 659 OFFCURVE",
"380 656 OFFCURVE",
"384 654 CURVE",
"391 654 LINE",
"391 789 LINE",
"370 795 OFFCURVE",
"332 800 OFFCURVE",
"297 800 CURVE SMOOTH",
"171 800 OFFCURVE",
"106 740 OFFCURVE",
"106 636 CURVE SMOOTH",
"106 0 LINE"
);
},
{
closed = 1;
nodes = (
"199 461 LINE",
"199 574 LINE",
"23 584 LINE",
"23 451 LINE"
);
},
{
closed = 1;
nodes = (
"393 451 LINE",
"393 584 LINE",
"199 574 LINE",
"199 461 LINE"
);
}
);
width = 416;
},
{
anchors = (
{
name = bottom;
position = "{161, 0}";
},
{
name = top;
position = "{161, 790}";
}
);
layerId = "47995495-C855-4C5A-BA32-118EA0334940";
paths = (
{
closed = 1;
nodes = (
"190 0 LINE",
"190 631 LINE SMOOTH",
"190 689 OFFCURVE",
"216 708 OFFCURVE",
"264 708 CURVE SMOOTH",
"278 708 OFFCURVE",
"291 706 OFFCURVE",
"299 702 CURVE",
"305 702 LINE",
"305 789 LINE",
"291 793 OFFCURVE",
"269 795 OFFCURVE",
"251 795 CURVE SMOOTH",
"143 795 OFFCURVE",
"89 737 OFFCURVE",
"89 647 CURVE SMOOTH",
"89 0 LINE"
);
},
{
closed = 1;
nodes = (
"140 483 LINE",
"140 563 LINE",
"7 563 LINE",
"7 483 LINE"
);
},
{
closed = 1;
nodes = (
"307 483 LINE",
"307 563 LINE",
"140 563 LINE",
"140 483 LINE"
);
}
);
width = 322;
}
);
leftKerningGroup = KO_f;
rightKerningGroup = KO_f;
unicode = 0066;
userData = {
KernOnName = f;
};
},
{
glyphname = g;
layers = (
{
anchors = (
{
name = bottom;
position = "{293, -210}";
},
{
name = top;
position = "{293, 557}";
}
);
background = {
paths = (
{
closed = 1;
nodes = (
"439 -181 OFFCURVE",
"515 -101 OFFCURVE",
"515 19 CURVE SMOOTH",
"515 557 LINE",
"457 557 LINE",
"451 452 LINE",
"420 523 OFFCURVE",
"351 567 OFFCURVE",
"265 567 CURVE SMOOTH",
"125 567 OFFCURVE",
"41 455 OFFCURVE",
"41 304 CURVE SMOOTH",
"41 150 OFFCURVE",
"128 36 OFFCURVE",
"269 36 CURVE SMOOTH",
"352 36 OFFCURVE",
"418 77 OFFCURVE",
"453 148 CURVE",
"453 19 LINE SMOOTH",
"453 -85 OFFCURVE",
"384 -125 OFFCURVE",
"280 -125 CURVE SMOOTH",
"182 -125 OFFCURVE",
"127 -85 OFFCURVE",
"114 -26 CURVE",
"53 -36 LINE",
"70 -123 OFFCURVE",
"145 -181 OFFCURVE",
"276 -181 CURVE SMOOTH"
);
},
{
closed = 1;
nodes = (
"170 96 OFFCURVE",
"106 174 OFFCURVE",
"106 303 CURVE SMOOTH",
"106 427 OFFCURVE",
"166 508 OFFCURVE",
"272 508 CURVE SMOOTH",
"377 508 OFFCURVE",
"453 431 OFFCURVE",
"453 328 CURVE SMOOTH",
"453 281 LINE SMOOTH",
"453 176 OFFCURVE",
"382 96 OFFCURVE",
"275 96 CURVE SMOOTH"
);
}
);
};
layerId = "F114AD5B-DC62-4E73-AD12-1938E40AC8EF";
paths = (
{
closed = 1;
nodes = (
"419 -181 OFFCURVE",
"515 -106 OFFCURVE",
"515 33 CURVE SMOOTH",
"515 557 LINE",
"457 557 LINE",
"451 452 LINE",
"420 523 OFFCURVE",
"351 567 OFFCURVE",
"265 567 CURVE SMOOTH",
"125 567 OFFCURVE",
"41 455 OFFCURVE",
"41 304 CURVE SMOOTH",
"41 150 OFFCURVE",
"128 36 OFFCURVE",
"269 36 CURVE SMOOTH",
"352 36 OFFCURVE",
"418 77 OFFCURVE",
"453 148 CURVE",
"453 33 LINE SMOOTH",
"453 -63 OFFCURVE",
"403 -125 OFFCURVE",
"275 -125 CURVE SMOOTH",
"195 -125 OFFCURVE",
"125 -99 OFFCURVE",
"114 -10 CURVE",
"53 -24 LINE",
"65 -115 OFFCURVE",
"140 -181 OFFCURVE",
"276 -181 CURVE SMOOTH"
);
},
{
closed = 1;
nodes = (
"170 96 OFFCURVE",
"106 174 OFFCURVE",
"106 303 CURVE SMOOTH",
"106 427 OFFCURVE",
"166 508 OFFCURVE",
"272 508 CURVE SMOOTH",
"377 508 OFFCURVE",
"453 431 OFFCURVE",
"453 328 CURVE SMOOTH",
"453 281 LINE SMOOTH",
"453 176 OFFCURVE",
"382 96 OFFCURVE",
"275 96 CURVE SMOOTH"
);
}
);
width = 585;
},
{
anchors = (
{
name = bottom;
position = "{328, -210}";
},
{
name = top;
position = "{328, 584}";
}
);
background = {
paths = (
{
closed = 1;
nodes = (
"481 -177 OFFCURVE",
"606 -106 OFFCURVE",
"606 45 CURVE SMOOTH",
"606 584 LINE",
"430 584 LINE",
"422 512 LINE",
"395 564 OFFCURVE",
"330 593 OFFCURVE",
"261 593 CURVE SMOOTH",
"121 593 OFFCURVE",
"30 486 OFFCURVE",
"30 321 CURVE SMOOTH",
"30 154 OFFCURVE",
"123 46 OFFCURVE",
"266 46 CURVE SMOOTH",
"331 46 OFFCURVE",
"386 70 OFFCURVE",
"416 121 CURVE",
"416 34 LINE SMOOTH",
"416 -16 OFFCURVE",
"381 -44 OFFCURVE",
"319 -44 CURVE SMOOTH",
"276 -44 OFFCURVE",
"244 -29 OFFCURVE",
"238 12 CURVE",
"52 -14 LINE",
"70 -116 OFFCURVE",
"162 -177 OFFCURVE",
"310 -177 CURVE SMOOTH"
);
},
{
closed = 1;
nodes = (
"257 189 OFFCURVE",
"222 236 OFFCURVE",
"222 320 CURVE SMOOTH",
"222 404 OFFCURVE",
"257 450 OFFCURVE",
"320 450 CURVE SMOOTH",
"382 450 OFFCURVE",
"416 408 OFFCURVE",
"416 330 CURVE SMOOTH",
"416 310 LINE SMOOTH",
"416 233 OFFCURVE",
"381 189 OFFCURVE",
"320 189 CURVE SMOOTH"
);
}
);
};
layerId = "E787E54A-EE3E-475A-BF02-8501A6DA5144";
paths = (
{
closed = 1;
nodes = (
"522 -177 OFFCURVE",
"606 -88 OFFCURVE",
"606 45 CURVE SMOOTH",
"606 584 LINE",
"430 584 LINE",
"422 512 LINE",
"395 564 OFFCURVE",
"330 593 OFFCURVE",
"261 593 CURVE SMOOTH",
"121 593 OFFCURVE",
"30 486 OFFCURVE",
"30 321 CURVE SMOOTH",
"30 154 OFFCURVE",
"123 46 OFFCURVE",
"266 46 CURVE SMOOTH",
"331 46 OFFCURVE",
"386 70 OFFCURVE",
"416 121 CURVE",
"416 34 LINE SMOOTH",
"416 -22 OFFCURVE",
"381 -50 OFFCURVE",
"319 -50 CURVE SMOOTH",
"273 -50 OFFCURVE",
"241 -36 OFFCURVE",
"238 15 CURVE",
"52 -14 LINE",
"65 -112 OFFCURVE",
"157 -177 OFFCURVE",
"306 -177 CURVE SMOOTH"
);
},
{
closed = 1;
nodes = (
"257 189 OFFCURVE",
"222 236 OFFCURVE",
"222 320 CURVE SMOOTH",
"222 404 OFFCURVE",
"257 450 OFFCURVE",
"320 450 CURVE SMOOTH",
"382 450 OFFCURVE",
"416 408 OFFCURVE",
"416 330 CURVE SMOOTH",
"416 310 LINE SMOOTH",
"416 233 OFFCURVE",
"381 189 OFFCURVE",
"320 189 CURVE SMOOTH"
);
}
);
width = 656;
},
{
anchors = (
{
name = bottom;
position = "{310, -210}";
},
{
name = top;
position = "{310, 563}";
}
);
background = {
paths = (
{
closed = 1;
nodes = (
"467 -176 OFFCURVE",
"550 -92 OFFCURVE",
"550 33 CURVE SMOOTH",
"550 563 LINE",
"455 563 LINE",
"449 470 LINE",
"419 534 OFFCURVE",
"351 573 OFFCURVE",
"268 573 CURVE SMOOTH",
"128 573 OFFCURVE",
"41 464 OFFCURVE",
"41 312 CURVE SMOOTH",
"41 158 OFFCURVE",
"130 46 OFFCURVE",
"273 46 CURVE SMOOTH",
"353 46 OFFCURVE",
"414 82 OFFCURVE",
"449 143 CURVE",
"449 31 LINE SMOOTH",
"449 -61 OFFCURVE",
"388 -98 OFFCURVE",
"296 -98 CURVE SMOOTH",
"225 -98 OFFCURVE",
"170 -75 OFFCURVE",
"156 -15 CURVE",
"59 -30 LINE",
"74 -118 OFFCURVE",
"151 -176 OFFCURVE",
"291 -176 CURVE SMOOTH"
);
},
{
closed = 1;
nodes = (
"197 131 OFFCURVE",
"146 205 OFFCURVE",
"146 311 CURVE SMOOTH",
"146 418 OFFCURVE",
"198 488 OFFCURVE",
"292 488 CURVE SMOOTH",
"385 488 OFFCURVE",
"449 422 OFFCURVE",
"449 331 CURVE SMOOTH",
"449 293 LINE SMOOTH",
"449 201 OFFCURVE",
"387 131 OFFCURVE",
"295 131 CURVE SMOOTH"
);
}
);
};
layerId = "47995495-C855-4C5A-BA32-118EA0334940";
paths = (
{
closed = 1;
nodes = (
"467 -176 OFFCURVE",
"550 -88 OFFCURVE",
"550 43 CURVE SMOOTH",
"550 563 LINE",
"455 563 LINE",
"449 470 LINE",
"419 534 OFFCURVE",
"351 573 OFFCURVE",
"268 573 CURVE SMOOTH",
"128 573 OFFCURVE",
"41 464 OFFCURVE",
"41 312 CURVE SMOOTH",
"41 158 OFFCURVE",
"130 56 OFFCURVE",
"273 56 CURVE SMOOTH",
"353 56 OFFCURVE",
"414 82 OFFCURVE",
"449 143 CURVE",
"449 41 LINE SMOOTH",
"449 -58 OFFCURVE",
"388 -98 OFFCURVE",
"296 -98 CURVE SMOOTH",
"225 -98 OFFCURVE",
"167 -72 OFFCURVE",
"160 2 CURVE",
"67 -20 LINE",
"78 -114 OFFCURVE",
"159 -176 OFFCURVE",
"291 -176 CURVE SMOOTH"
);
},
{
closed = 1;
nodes = (
"197 131 OFFCURVE",
"146 205 OFFCURVE",
"146 311 CURVE SMOOTH",
"146 418 OFFCURVE",
"198 488 OFFCURVE",
"292 488 CURVE SMOOTH",
"385 488 OFFCURVE",
"449 422 OFFCURVE",
"449 331 CURVE SMOOTH",
"449 293 LINE SMOOTH",
"449 201 OFFCURVE",
"387 131 OFFCURVE",
"295 131 CURVE SMOOTH"
);
}
);
width = 620;
}
);
leftKerningGroup = KO_g;
leftMetricsKey = c;
rightKerningGroup = KO_g;
unicode = 0067;
userData = {
KernOnName = g;
};
},
{
color = 3;
glyphname = h;
layers = (
{
anchors = (
{
name = bottom;
position = "{296, 0}";
},
{
name = center;
position = "{134, 689}";
},
{
name = top;
position = "{296, 790}";
}
);
layerId = "F114AD5B-DC62-4E73-AD12-1938E40AC8EF";
paths = (
{
closed = 1;
nodes = (
"134 0 LINE",
"134 313 LINE SMOOTH",
"134 435 OFFCURVE",
"206 507 OFFCURVE",
"315 507 CURVE SMOOTH",
"400 507 OFFCURVE",
"457 463 OFFCURVE",
"457 370 CURVE SMOOTH",
"457 0 LINE",
"520 0 LINE",
"520 379 LINE SMOOTH",
"520 492 OFFCURVE",
"450 567 OFFCURVE",
"327 567 CURVE SMOOTH",
"247 567 OFFCURVE",
"180 538 OFFCURVE",
"134 461 CURVE",
"134 790 LINE",
"71 790 LINE",
"71 0 LINE"
);
}
);
width = 591;
},
{
anchors = (
{
name = bottom;
position = "{325, 0}";
},
{
name = center;
position = "{165, 689}";
},
{
name = top;
position = "{325, 790}";
}
);
background = {
paths = (
{
closed = 1;
nodes = (
"239 0 LINE",
"239 314 LINE SMOOTH",
"239 393 OFFCURVE",
"272 430 OFFCURVE",
"341 430 CURVE SMOOTH",
"399 430 OFFCURVE",
"422 392 OFFCURVE",
"422 336 CURVE SMOOTH",
"422 0 LINE",
"613 0 LINE",
"613 383 LINE SMOOTH",
"613 518 OFFCURVE",
"529 594 OFFCURVE",
"403 594 CURVE SMOOTH",
"331 594 OFFCURVE",
"275 571 OFFCURVE",
"229 518 CURVE",
"224 584 LINE",
"48 584 LINE",
"48 0 LINE"
);
}
);
};
layerId = "E787E54A-EE3E-475A-BF02-8501A6DA5144";
paths = (
{
closed = 1;
nodes = (
"244 0 LINE",
"244 344 LINE",
"251 396 OFFCURVE",
"285 430 OFFCURVE",
"331 430 CURVE SMOOTH",
"377 430 OFFCURVE",
"407 408 OFFCURVE",
"407 361 CURVE SMOOTH",
"407 0 LINE",
"598 0 LINE",
"598 396 LINE SMOOTH",
"598 522 OFFCURVE",
"525 594 OFFCURVE",
"404 594 CURVE SMOOTH",
"332 594 OFFCURVE",
"284 573 OFFCURVE",
"244 523 CURVE",
"244 790 LINE",
"53 790 LINE",
"53 0 LINE"
);
}
);
width = 650;
},
{
anchors = (
{
name = bottom;
position = "{310, 0}";
},
{
name = center;
position = "{164, 689}";
},
{
name = top;
position = "{310, 790}";
}
);
layerId = "47995495-C855-4C5A-BA32-118EA0334940";
paths = (
{
closed = 1;
nodes = (
"174 0 LINE",
"174 336 LINE SMOOTH",
"174 428 OFFCURVE",
"243 483 OFFCURVE",
"326 483 CURVE SMOOTH",
"407 483 OFFCURVE",
"447 438 OFFCURVE",
"447 368 CURVE SMOOTH",
"447 0 LINE",
"549 0 LINE",
"549 378 LINE SMOOTH",
"549 511 OFFCURVE",
"468 575 OFFCURVE",
"355 575 CURVE SMOOTH",
"279 575 OFFCURVE",
"221 546 OFFCURVE",
"174 484 CURVE",
"174 790 LINE",
"71 790 LINE",
"71 0 LINE"
);
}
);
width = 620;
}
);
leftKerningGroup = KO_l;
leftMetricsKey = l;
rightKerningGroup = KO_n;
rightMetricsKey = "=n";
unicode = 0068;
},
{
color = 3;
glyphname = i;
layers = (
{
anchors = (
{
name = bottom;
position = "{12, 0}";
}
);
components = (
{
name = idotless;
},
{
name = dotaccentcomb;
transform = "{1, 0, 0, 1, 26, 0}";
}
);
layerId = "F114AD5B-DC62-4E73-AD12-1938E40AC8EF";
width = 205;
},
{
anchors = (
{
name = bottom;
position = "{89, 0}";
}
);
components = (
{
name = idotless;
},
{
name = dotaccentcomb;
transform = "{1, 0, 0, 1, 3, 0}";
}
);
layerId = "E787E54A-EE3E-475A-BF02-8501A6DA5144";
width = 295;
},
{
anchors = (
{
name = bottom;
position = "{32, 0}";
}
);
background = {
paths = (
{
closed = 1;
nodes = (
"83 662 LINE",
"83 790 LINE",
"-19 790 LINE",
"-19 662 LINE"
);
},
{
closed = 1;
nodes = (
"83 0 LINE",
"83 563 LINE",
"-19 563 LINE",
"-19 0 LINE"
);
}
);
};
components = (
{
name = idotless;
},
{
name = dotaccentcomb;
transform = "{1, 0, 0, 1, 31, 0}";
}
);
layerId = "47995495-C855-4C5A-BA32-118EA0334940";
width = 245;
}
);
leftKerningGroup = KO_i;
leftMetricsKey = d;
rightKerningGroup = KO_i;
rightMetricsKey = b;
unicode = 0069;
userData = {
KernOnName = i;
};
},
{
glyphname = idotless;
layers = (
{
anchors = (
{
name = bottom;
position = "{103, 0}";
},
{
name = ogonek;
position = "{129, 0}";
},
{
name = top;
position = "{103, 557}";
}
);
layerId = "F114AD5B-DC62-4E73-AD12-1938E40AC8EF";
paths = (
{
closed = 1;
nodes = (
"134 0 LINE",
"134 557 LINE",
"71 557 LINE",
"71 0 LINE"
);
}
);
width = 205;
},
{
anchors = (
{
name = bottom;
position = "{148, 0}";
},
{
name = ogonek;
position = "{244, 0}";
},
{
name = top;
position = "{148, 584}";
}
);
layerId = "E787E54A-EE3E-475A-BF02-8501A6DA5144";
paths = (
{
closed = 1;
nodes = (
"242 0 LINE",
"242 584 LINE",
"53 584 LINE",
"53 0 LINE"
);
}
);
width = 295;
},
{
anchors = (
{
name = bottom;
position = "{130, 0}";
},
{
name = ogonek;
position = "{170, 0}";
},
{
name = top;
position = "{123, 563}";
}
);
layerId = "47995495-C855-4C5A-BA32-118EA0334940";
paths = (
{
closed = 1;
nodes = (
"174 0 LINE",
"174 563 LINE",
"71 563 LINE",
"71 0 LINE"
);
}
);
width = 245;
}
);
leftKerningGroup = KO_n;
leftMetricsKey = "=n";
rightKerningGroup = KO_u;
rightMetricsKey = "=|n";
unicode = 0131;
},
{
color = 3;
glyphname = j;
layers = (
{
layerId = "F114AD5B-DC62-4E73-AD12-1938E40AC8EF";
paths = (
{
closed = 1;
nodes = (
"55 -172 OFFCURVE",
"103 -130 OFFCURVE",
"103 -52 CURVE SMOOTH",
"103 557 LINE",
"41 557 LINE",
"41 -32 LINE SMOOTH",
"41 -89 OFFCURVE",
"16 -115 OFFCURVE",
"-37 -115 CURVE SMOOTH",
"-52 -115 OFFCURVE",
"-68 -113 OFFCURVE",
"-77 -110 CURVE",
"-77 -166 LINE",
"-64 -170 OFFCURVE",
"-47 -172 OFFCURVE",
"-30 -172 CURVE SMOOTH"
);
},
{
closed = 1;
nodes = (
"103 656 LINE",
"103 790 LINE",
"41 790 LINE",
"41 656 LINE"
);
}
);
width = 174;
},
{
layerId = "E787E54A-EE3E-475A-BF02-8501A6DA5144";
paths = (
{
closed = 1;
nodes = (
"148 -177 OFFCURVE",
"219 -121 OFFCURVE",
"219 -2 CURVE SMOOTH",
"219 584 LINE",
"30 584 LINE",
"30 14 LINE SMOOTH",
"30 -20 OFFCURVE",
"16 -36 OFFCURVE",
"-15 -36 CURVE SMOOTH",
"-30 -36 OFFCURVE",
"-40 -34 OFFCURVE",
"-50 -31 CURVE",
"-50 -165 LINE",
"-35 -172 OFFCURVE",
"-5 -177 OFFCURVE",
"23 -177 CURVE SMOOTH"
);
},
{
closed = 1;
nodes = (
"219 656 LINE",
"219 790 LINE",
"30 790 LINE",
"30 656 LINE"
);
}
);
width = 267;
},
{
layerId = "47995495-C855-4C5A-BA32-118EA0334940";
paths = (
{
closed = 1;
nodes = (
"80 -173 OFFCURVE",
"136 -125 OFFCURVE",
"136 -29 CURVE SMOOTH",
"136 563 LINE",
"35 563 LINE",
"35 -11 LINE SMOOTH",
"35 -65 OFFCURVE",
"13 -90 OFFCURVE",
"-38 -90 CURVE SMOOTH",
"-51 -90 OFFCURVE",
"-68 -89 OFFCURVE",
"-77 -86 CURVE",
"-77 -166 LINE",
"-63 -170 OFFCURVE",
"-43 -173 OFFCURVE",
"-19 -173 CURVE SMOOTH"
);
},
{
closed = 1;
nodes = (
"137 662 LINE",
"137 790 LINE",
"35 790 LINE",
"35 662 LINE"
);
}
);
width = 208;
}
);
leftKerningGroup = KO_j;
rightKerningGroup = KO_i;
rightMetricsKey = "=i";
unicode = 006A;
userData = {
KernOnName = j;
};
},
{
glyphname = jdotless;
layers = (
{
anchors = (
{
name = top;
position = "{72, 557}";
}
);
layerId = "F114AD5B-DC62-4E73-AD12-1938E40AC8EF";
paths = (
{
closed = 1;
nodes = (
"55 -172 OFFCURVE",
"103 -130 OFFCURVE",
"103 -52 CURVE SMOOTH",
"103 557 LINE",
"41 557 LINE",
"41 -32 LINE SMOOTH",
"41 -89 OFFCURVE",
"16 -115 OFFCURVE",
"-37 -115 CURVE SMOOTH",
"-52 -115 OFFCURVE",
"-68 -113 OFFCURVE",
"-77 -110 CURVE",
"-77 -166 LINE",
"-64 -170 OFFCURVE",
"-47 -172 OFFCURVE",
"-30 -172 CURVE SMOOTH"
);
}
);
width = 174;
},
{
anchors = (
{
name = top;
position = "{125, 584}";
}
);
background = {
paths = (
{
closed = 1;
nodes = (
"139 -187 OFFCURVE",
"219 -134 OFFCURVE",
"219 0 CURVE SMOOTH",
"219 584 LINE",
"30 584 LINE",
"30 31 LINE SMOOTH",
"30 -19 OFFCURVE",
"11 -45 OFFCURVE",
"-31 -45 CURVE SMOOTH",
"-46 -45 OFFCURVE",
"-60 -44 OFFCURVE",
"-70 -41 CURVE",
"-70 -175 LINE",
"-53 -182 OFFCURVE",
"-26 -187 OFFCURVE",
"13 -187 CURVE SMOOTH"
);
}
);
};
layerId = "E787E54A-EE3E-475A-BF02-8501A6DA5144";
paths = (
{
closed = 1;
nodes = (
"148 -177 OFFCURVE",
"219 -121 OFFCURVE",
"219 -2 CURVE SMOOTH",
"219 584 LINE",
"30 584 LINE",
"30 14 LINE SMOOTH",
"30 -20 OFFCURVE",
"16 -36 OFFCURVE",
"-15 -36 CURVE SMOOTH",
"-30 -36 OFFCURVE",
"-40 -34 OFFCURVE",
"-50 -31 CURVE",
"-50 -165 LINE",
"-35 -172 OFFCURVE",
"-5 -177 OFFCURVE",
"23 -177 CURVE SMOOTH"
);
}
);
width = 267;
},
{
anchors = (
{
name = top;
position = "{86, 563}";
}
);
layerId = "47995495-C855-4C5A-BA32-118EA0334940";
paths = (
{
closed = 1;
nodes = (
"79 -176 OFFCURVE",
"136 -131 OFFCURVE",
"136 -36 CURVE SMOOTH",
"136 563 LINE",
"35 563 LINE",
"35 -12 LINE SMOOTH",
"35 -67 OFFCURVE",
"12 -94 OFFCURVE",
"-38 -94 CURVE SMOOTH",
"-50 -94 OFFCURVE",
"-68 -92 OFFCURVE",
"-77 -89 CURVE",
"-77 -169 LINE",
"-63 -174 OFFCURVE",
"-41 -176 OFFCURVE",
"-19 -176 CURVE SMOOTH"
);
}
);
width = 207;
}
);
leftKerningGroup = KO_j;
leftMetricsKey = "=j";
rightKerningGroup = KO_j;
rightMetricsKey = "=j";
unicode = 0237;
},
{
color = 3;
glyphname = k;
layers = (
{
anchors = (
{
name = bottom;
position = "{261, 0}";
},
{
name = top;
position = "{261, 790}";
}
);
layerId = "F114AD5B-DC62-4E73-AD12-1938E40AC8EF";
paths = (
{
closed = 1;
nodes = (
"532 0 LINE",
"275 362 LINE",
"275 343 LINE",
"501 557 LINE",
"419 557 LINE",
"122 272 LINE",
"122 200 LINE",
"237 308 LINE",
"455 0 LINE"
);
},
{
closed = 1;
nodes = (
"134 0 LINE",
"134 790 LINE",
"71 790 LINE",
"71 0 LINE"
);
}
);
width = 522;
},
{
anchors = (
{
name = bottom;
position = "{345, 0}";
},
{
name = top;
position = "{345, 790}";
}
);
layerId = "E787E54A-EE3E-475A-BF02-8501A6DA5144";
paths = (
{
closed = 1;
nodes = (
"673 0 LINE",
"424 389 LINE",
"424 355 LINE",
"660 584 LINE",
"422 584 LINE",
"233 380 LINE",
"233 169 LINE",
"305 240 LINE",
"446 0 LINE"
);
},
{
closed = 1;
nodes = (
"244 0 LINE",
"244 790 LINE",
"53 790 LINE",
"53 0 LINE"
);
}
);
width = 675;
},
{
anchors = (
{
name = bottom;
position = "{281, 0}";
},
{
name = top;
position = "{281, 790}";
}
);
layerId = "47995495-C855-4C5A-BA32-118EA0334940";
paths = (
{
closed = 1;
nodes = (
"571 0 LINE",
"322 372 LINE",
"322 347 LINE",
"550 563 LINE",
"421 563 LINE",
"163 311 LINE",
"162 196 LINE",
"261 289 LINE",
"449 0 LINE"
);
},
{
closed = 1;
nodes = (
"174 0 LINE",
"174 790 LINE",
"71 790 LINE",
"71 0 LINE"
);
}
);
width = 561;
}
);
leftKerningGroup = KO_l;
leftMetricsKey = "=h";
rightKerningGroup = KO_k;
unicode = 006B;
userData = {
KernOnName = k;
};
},
{
color = 3;
glyphname = l;
layers = (
{
anchors = (
{
name = bottom;
position = "{103, 0}";
},
{
name = center;
position = "{103, 395}";
},
{
name = top;
position = "{103, 790}";
},
{
name = topright;
position = "{186, 790}";
}
);
layerId = "F114AD5B-DC62-4E73-AD12-1938E40AC8EF";
paths = (
{
closed = 1;
nodes = (
"133 0 LINE",
"133 790 LINE",
"71 790 LINE",
"71 0 LINE"
);
}
);
width = 206;
},
{
anchors = (
{
name = bottom;
position = "{149, 0}";
},
{
name = center;
position = "{149, 395}";
},
{
name = top;
position = "{149, 790}";
},
{
name = topright;
position = "{277, 790}";
}
);
layerId = "E787E54A-EE3E-475A-BF02-8501A6DA5144";
paths = (
{
closed = 1;
nodes = (
"244 0 LINE",
"244 790 LINE",
"53 790 LINE",
"53 0 LINE"
);
}
);
width = 297;
},
{
anchors = (
{
name = bottom;
position = "{123, 0}";
},
{
name = center;
position = "{123, 395}";
},
{
name = top;
position = "{123, 790}";
},
{
name = topright;
position = "{226, 790}";
}
);
layerId = "47995495-C855-4C5A-BA32-118EA0334940";
paths = (
{
closed = 1;
nodes = (
"173 0 LINE",
"173 790 LINE",
"71 790 LINE",
"71 0 LINE"
);
}
);
width = 246;
}
);
leftKerningGroup = KO_l;
rightKerningGroup = KO_l;
unicode = 006C;
},
{
glyphname = lslash;
layers = (
{
anchors = (
{
name = bottom;
position = "{102, 0}";
},
{
name = center;
position = "{102, 375}";
},
{
name = top;
position = "{102, 790}";
},
{
name = topright;
position = "{190, 750}";
}
);
layerId = "F114AD5B-DC62-4E73-AD12-1938E40AC8EF";
paths = (
{
closed = 1;
nodes = (
"71 364 LINE",
"71 0 LINE",
"133 0 LINE",
"133 386 LINE",
"192 408 LINE",
"192 463 LINE",
"133 442 LINE",
"133 790 LINE",
"71 790 LINE",
"71 419 LINE",
"14 399 LINE",
"14 343 LINE"
);
}
);
width = 206;
},
{
anchors = (
{
name = bottom;
position = "{179, 0}";
},
{
name = center;
position = "{179, 375}";
},
{
name = top;
position = "{179, 790}";
},
{
name = topright;
position = "{304, 750}";
}
);
layerId = "E787E54A-EE3E-475A-BF02-8501A6DA5144";
paths = (
{
closed = 1;
nodes = (
"83 285 LINE",
"83 0 LINE",
"274 0 LINE",
"274 354 LINE",
"328 374 LINE",
"328 544 LINE",
"274 524 LINE",
"274 790 LINE",
"83 790 LINE",
"83 455 LINE",
"29 435 LINE",
"29 265 LINE"
);
}
);
width = 356;
},
{
anchors = (
{
name = bottom;
position = "{122, 0}";
},
{
name = center;
position = "{122, 375}";
},
{
name = top;
position = "{122, 790}";
},
{
name = topright;
position = "{222, 750}";
}
);
layerId = "47995495-C855-4C5A-BA32-118EA0334940";
paths = (
{
closed = 1;
nodes = (
"71 340 LINE",
"71 0 LINE",
"173 0 LINE",
"173 377 LINE",
"230 397 LINE",
"230 488 LINE",
"173 467 LINE",
"173 790 LINE",
"71 790 LINE",
"71 431 LINE",
"14 410 LINE",
"14 319 LINE"
);
}
);
width = 244;
}
);
leftKerningGroup = KO_lslash;
rightKerningGroup = KO_lslash;
unicode = 0142;
},
{
color = 3;
glyphname = m;
layers = (
{
anchors = (
{
name = bottom;
position = "{458, 0}";
},
{
name = top;
position = "{458, 557}";
}
);
layerId = "F114AD5B-DC62-4E73-AD12-1938E40AC8EF";
paths = (
{
closed = 1;
nodes = (
"134 0 LINE",
"134 325 LINE SMOOTH",
"134 429 OFFCURVE",
"204 507 OFFCURVE",
"303 507 CURVE SMOOTH",
"387 507 OFFCURVE",
"426 450 OFFCURVE",
"426 364 CURVE SMOOTH",
"426 0 LINE",
"489 0 LINE",
"489 318 LINE SMOOTH",
"489 431 OFFCURVE",
"560 507 OFFCURVE",
"661 507 CURVE SMOOTH",
"738 507 OFFCURVE",
"781 461 OFFCURVE",
"781 364 CURVE SMOOTH",
"781 0 LINE",
"844 0 LINE",
"844 378 LINE SMOOTH",
"844 491 OFFCURVE",
"781 567 OFFCURVE",
"666 567 CURVE SMOOTH",
"587 567 OFFCURVE",
"512 525 OFFCURVE",
"477 444 CURVE",
"451 525 OFFCURVE",
"390 567 OFFCURVE",
"310 567 CURVE SMOOTH",
"236 567 OFFCURVE",
"168 530 OFFCURVE",
"134 458 CURVE",
"129 557 LINE",
"71 557 LINE",
"71 0 LINE"
);
}
);
width = 915;
},
{
anchors = (
{
name = bottom;
position = "{497, 0}";
},
{
name = top;
position = "{497, 584}";
}
);
background = {
paths = (
{
closed = 1;
nodes = (
"543 0 LINE",
"543 314 LINE SMOOTH",
"543 393 OFFCURVE",
"576 430 OFFCURVE",
"645 430 CURVE SMOOTH",
"694 430 OFFCURVE",
"726 400 OFFCURVE",
"726 336 CURVE SMOOTH",
"726 0 LINE",
"917 0 LINE",
"917 403 LINE SMOOTH",
"917 530 OFFCURVE",
"827 594 OFFCURVE",
"717 594 CURVE SMOOTH",
"623 594 OFFCURVE",
"572 563 OFFCURVE",
"533 518 CURVE",
"528 584 LINE",
"352 584 LINE",
"352 0 LINE"
);
}
);
};
layerId = "E787E54A-EE3E-475A-BF02-8501A6DA5144";
paths = (
{
closed = 1;
nodes = (
"244 0 LINE",
"244 341 LINE SMOOTH",
"244 394 OFFCURVE",
"274 430 OFFCURVE",
"327 430 CURVE SMOOTH",
"381 430 OFFCURVE",
"402 394 OFFCURVE",
"402 341 CURVE SMOOTH",
"402 0 LINE",
"593 0 LINE",
"593 341 LINE SMOOTH",
"593 405 OFFCURVE",
"626 430 OFFCURVE",
"676 430 CURVE SMOOTH",
"730 430 OFFCURVE",
"751 394 OFFCURVE",
"751 341 CURVE SMOOTH",
"751 0 LINE",
"942 0 LINE",
"942 396 LINE SMOOTH",
"942 515 OFFCURVE",
"869 594 OFFCURVE",
"740 594 CURVE SMOOTH",
"662 594 OFFCURVE",
"599 555 OFFCURVE",
"567 495 CURVE",
"532 561 OFFCURVE",
"467 594 OFFCURVE",
"391 594 CURVE SMOOTH",
"334 594 OFFCURVE",
"278 571 OFFCURVE",
"236 512 CURVE",
"223 584 LINE",
"53 584 LINE",
"53 0 LINE"
);
}
);
width = 994;
},
{
anchors = (
{
name = bottom;
position = "{476, 0}";
},
{
name = top;
position = "{476, 563}";
}
);
layerId = "47995495-C855-4C5A-BA32-118EA0334940";
paths = (
{
closed = 1;
nodes = (
"174 0 LINE",
"174 328 LINE SMOOTH",
"174 416 OFFCURVE",
"231 481 OFFCURVE",
"316 481 CURVE SMOOTH",
"391 481 OFFCURVE",
"424 430 OFFCURVE",
"424 355 CURVE SMOOTH",
"424 0 LINE",
"526 0 LINE",
"526 323 LINE SMOOTH",
"526 421 OFFCURVE",
"586 481 OFFCURVE",
"671 481 CURVE SMOOTH",
"740 481 OFFCURVE",
"777 438 OFFCURVE",
"777 364 CURVE SMOOTH",
"777 0 LINE",
"880 0 LINE",
"880 381 LINE SMOOTH",
"880 497 OFFCURVE",
"814 573 OFFCURVE",
"694 573 CURVE SMOOTH",
"615 573 OFFCURVE",
"544 532 OFFCURVE",
"510 458 CURVE",
"482 534 OFFCURVE",
"418 573 OFFCURVE",
"341 573 CURVE SMOOTH",
"272 573 OFFCURVE",
"208 541 OFFCURVE",
"171 473 CURVE",
"164 563 LINE",
"71 563 LINE",
"71 0 LINE"
);
}
);
width = 951;
}
);
leftKerningGroup = KO_n;
leftMetricsKey = "=n";
rightKerningGroup = KO_n;
rightMetricsKey = "=n";
unicode = 006D;
},
{
color = 3;
glyphname = n;
layers = (
{
anchors = (
{
name = bottom;
position = "{296, 0}";
},
{
name = top;
position = "{296, 557}";
}
);
layerId = "F114AD5B-DC62-4E73-AD12-1938E40AC8EF";
paths = (
{
closed = 1;
nodes = (
"134 0 LINE",
"134 313 LINE SMOOTH",
"134 435 OFFCURVE",
"206 507 OFFCURVE",
"315 507 CURVE SMOOTH",
"400 507 OFFCURVE",
"457 463 OFFCURVE",
"457 370 CURVE SMOOTH",
"457 0 LINE",
"520 0 LINE",
"520 379 LINE SMOOTH",
"520 492 OFFCURVE",
"450 567 OFFCURVE",
"327 567 CURVE SMOOTH",
"247 567 OFFCURVE",
"180 538 OFFCURVE",
"134 461 CURVE",
"129 557 LINE",
"71 557 LINE",
"71 0 LINE"
);
}
);
width = 591;
},
{
anchors = (
{
name = bottom;
position = "{325, 0}";
},
{
name = top;
position = "{325, 584}";
}
);
layerId = "E787E54A-EE3E-475A-BF02-8501A6DA5144";
paths = (
{
closed = 1;
nodes = (
"244 0 LINE",
"244 344 LINE",
"251 396 OFFCURVE",
"285 430 OFFCURVE",
"331 430 CURVE SMOOTH",
"377 430 OFFCURVE",
"407 408 OFFCURVE",
"407 361 CURVE SMOOTH",
"407 0 LINE",
"598 0 LINE",
"598 396 LINE SMOOTH",
"598 522 OFFCURVE",
"525 594 OFFCURVE",
"404 594 CURVE SMOOTH",
"327 594 OFFCURVE",
"276 570 OFFCURVE",
"235 511 CURVE",
"229 584 LINE",
"53 584 LINE",
"53 0 LINE"
);
}
);
width = 650;
},
{
anchors = (
{
name = bottom;
position = "{310, 0}";
},
{
name = top;
position = "{310, 563}";
}
);
layerId = "47995495-C855-4C5A-BA32-118EA0334940";
paths = (
{
closed = 1;
nodes = (
"174 0 LINE",
"174 334 LINE SMOOTH",
"174 426 OFFCURVE",
"243 481 OFFCURVE",
"326 481 CURVE SMOOTH",
"407 481 OFFCURVE",
"447 436 OFFCURVE",
"447 366 CURVE SMOOTH",
"447 0 LINE",
"549 0 LINE",
"549 376 LINE SMOOTH",
"549 509 OFFCURVE",
"468 573 OFFCURVE",
"355 573 CURVE SMOOTH",
"278 573 OFFCURVE",
"219 543 OFFCURVE",
"171 478 CURVE",
"165 563 LINE",
"71 563 LINE",
"71 0 LINE"
);
}
);
width = 620;
}
);
leftKerningGroup = KO_n;
rightKerningGroup = KO_n;
unicode = 006E;
userData = {
KernOnName = n;
};
},
{
glyphname = nhookleft;
layers = (
{
layerId = "F114AD5B-DC62-4E73-AD12-1938E40AC8EF";
paths = (
{
closed = 1;
nodes = (
"86 -172 OFFCURVE",
"134 -130 OFFCURVE",
"134 -52 CURVE SMOOTH",
"134 313 LINE SMOOTH",
"134 435 OFFCURVE",
"206 507 OFFCURVE",
"315 507 CURVE SMOOTH",
"400 507 OFFCURVE",
"457 463 OFFCURVE",
"457 370 CURVE SMOOTH",
"457 0 LINE",
"520 0 LINE",
"520 379 LINE SMOOTH",
"520 492 OFFCURVE",
"450 567 OFFCURVE",
"327 567 CURVE SMOOTH",
"247 567 OFFCURVE",
"180 538 OFFCURVE",
"134 461 CURVE",
"129 557 LINE",
"71 557 LINE",
"71 -32 LINE SMOOTH",
"71 -89 OFFCURVE",
"47 -115 OFFCURVE",
"-6 -115 CURVE SMOOTH",
"-21 -115 OFFCURVE",
"-37 -113 OFFCURVE",
"-46 -110 CURVE",
"-46 -166 LINE",
"-33 -170 OFFCURVE",
"-16 -172 OFFCURVE",
"1 -172 CURVE SMOOTH"
);
}
);
width = 591;
},
{
layerId = "47995495-C855-4C5A-BA32-118EA0334940";
paths = (
{
closed = 1;
nodes = (
"114 -174 OFFCURVE",
"174 -126 OFFCURVE",
"174 -29 CURVE SMOOTH",
"174 334 LINE SMOOTH",
"174 426 OFFCURVE",
"243 481 OFFCURVE",
"326 481 CURVE SMOOTH",
"407 481 OFFCURVE",
"447 436 OFFCURVE",
"447 366 CURVE SMOOTH",
"447 0 LINE",
"550 0 LINE",
"550 376 LINE SMOOTH",
"550 509 OFFCURVE",
"468 573 OFFCURVE",
"356 573 CURVE SMOOTH",
"279 573 OFFCURVE",
"219 543 OFFCURVE",
"171 478 CURVE",
"165 563 LINE",
"71 563 LINE",
"71 -9 LINE SMOOTH",
"71 -63 OFFCURVE",
"50 -90 OFFCURVE",
"-3 -90 CURVE SMOOTH",
"-17 -90 OFFCURVE",
"-32 -89 OFFCURVE",
"-41 -86 CURVE",
"-41 -167 LINE",
"-25 -171 OFFCURVE",
"-4 -174 OFFCURVE",
"16 -174 CURVE SMOOTH"
);
}
);
width = 621;
},
{
layerId = "E787E54A-EE3E-475A-BF02-8501A6DA5144";
paths = (
{
closed = 1;
nodes = (
"173 -177 OFFCURVE",
"244 -121 OFFCURVE",
"244 -2 CURVE SMOOTH",
"244 344 LINE",
"251 396 OFFCURVE",
"285 430 OFFCURVE",
"331 430 CURVE SMOOTH",
"377 430 OFFCURVE",
"407 408 OFFCURVE",
"407 361 CURVE SMOOTH",
"407 0 LINE",
"598 0 LINE",
"598 396 LINE SMOOTH",
"598 522 OFFCURVE",
"525 594 OFFCURVE",
"404 594 CURVE SMOOTH",
"327 594 OFFCURVE",
"276 570 OFFCURVE",
"235 511 CURVE",
"229 584 LINE",
"53 584 LINE",
"53 14 LINE SMOOTH",
"53 -20 OFFCURVE",
"41 -36 OFFCURVE",
"10 -36 CURVE SMOOTH",
"-5 -36 OFFCURVE",
"-15 -34 OFFCURVE",
"-25 -31 CURVE",
"-25 -165 LINE",
"-10 -172 OFFCURVE",
"20 -177 OFFCURVE",
"48 -177 CURVE SMOOTH"
);
}
);
width = 650;
}
);
leftKerningGroup = KO_j;
rightKerningGroup = KO_n;
rightMetricsKey = n;
unicode = 0272;
},
{
glyphname = eng;
layers = (
{
layerId = "F114AD5B-DC62-4E73-AD12-1938E40AC8EF";
paths = (
{
closed = 1;
nodes = (
"472 -172 OFFCURVE",
"520 -130 OFFCURVE",
"520 -52 CURVE SMOOTH",
"520 379 LINE SMOOTH",
"520 492 OFFCURVE",
"450 567 OFFCURVE",
"327 567 CURVE SMOOTH",
"247 567 OFFCURVE",
"180 538 OFFCURVE",
"134 461 CURVE",
"129 557 LINE",
"71 557 LINE",
"71 0 LINE",
"134 0 LINE",
"134 313 LINE SMOOTH",
"134 435 OFFCURVE",
"206 507 OFFCURVE",
"315 507 CURVE SMOOTH",
"400 507 OFFCURVE",
"457 463 OFFCURVE",
"457 370 CURVE SMOOTH",
"457 -32 LINE SMOOTH",
"457 -89 OFFCURVE",
"433 -115 OFFCURVE",
"380 -115 CURVE SMOOTH",
"365 -115 OFFCURVE",
"349 -113 OFFCURVE",
"340 -110 CURVE",
"340 -166 LINE",
"353 -170 OFFCURVE",
"370 -172 OFFCURVE",
"387 -172 CURVE SMOOTH"
);
}
);
width = 591;
},
{
layerId = "E787E54A-EE3E-475A-BF02-8501A6DA5144";
paths = (
{
closed = 1;
nodes = (
"527 -177 OFFCURVE",
"598 -121 OFFCURVE",
"598 -2 CURVE SMOOTH",
"598 396 LINE SMOOTH",
"598 522 OFFCURVE",
"525 594 OFFCURVE",
"404 594 CURVE SMOOTH",
"327 594 OFFCURVE",
"276 570 OFFCURVE",
"235 511 CURVE",
"229 584 LINE",
"53 584 LINE",
"53 0 LINE",
"244 0 LINE",
"244 344 LINE",
"251 396 OFFCURVE",
"285 430 OFFCURVE",
"331 430 CURVE SMOOTH",
"377 430 OFFCURVE",
"407 408 OFFCURVE",
"407 361 CURVE SMOOTH",
"407 14 LINE SMOOTH",
"407 -20 OFFCURVE",
"395 -36 OFFCURVE",
"364 -36 CURVE SMOOTH",
"349 -36 OFFCURVE",
"339 -34 OFFCURVE",
"329 -31 CURVE",
"329 -165 LINE",
"344 -172 OFFCURVE",
"374 -177 OFFCURVE",
"402 -177 CURVE SMOOTH"
);
}
);
width = 650;
},
{
layerId = "47995495-C855-4C5A-BA32-118EA0334940";
paths = (
{
closed = 1;
nodes = (
"489 -174 OFFCURVE",
"549 -126 OFFCURVE",
"549 -29 CURVE SMOOTH",
"549 378 LINE",
"549 511 OFFCURVE",
"468 575 OFFCURVE",
"355 575 CURVE SMOOTH",
"278 575 OFFCURVE",
"219 545 OFFCURVE",
"171 480 CURVE",
"165 565 LINE",
"71 565 LINE",
"71 0 LINE",
"174 0 LINE",
"174 336 LINE SMOOTH",
"174 428 OFFCURVE",
"243 483 OFFCURVE",
"326 483 CURVE SMOOTH",
"407 483 OFFCURVE",
"447 438 OFFCURVE",
"447 368 CURVE SMOOTH",
"447 -9 LINE SMOOTH",
"447 -62 OFFCURVE",
"426 -90 OFFCURVE",
"372 -90 CURVE SMOOTH",
"359 -90 OFFCURVE",
"343 -89 OFFCURVE",
"335 -86 CURVE",
"335 -167 LINE",
"349 -171 OFFCURVE",
"373 -174 OFFCURVE",
"392 -174 CURVE SMOOTH"
);
}
);
width = 620;
}
);
leftKerningGroup = KO_n;
leftMetricsKey = "=n";
rightKerningGroup = KO_n;
rightMetricsKey = "=n";
unicode = 014B;
},
{
color = 3;
glyphname = o;
layers = (
{
anchors = (
{
name = "#exit";
position = "{551, 0}";
},
{
name = bottom;
position = "{297, 0}";
},
{
name = center;
position = "{297, 279}";
},
{
name = ogonek;
position = "{534, 10}";
},
{
name = top;
position = "{297, 557}";
},
{
name = topright;
position = "{400, 557}";
}
);
layerId = "F114AD5B-DC62-4E73-AD12-1938E40AC8EF";
paths = (
{
closed = 1;
nodes = (
"452 -10 OFFCURVE",
"552 102 OFFCURVE",
"552 277 CURVE SMOOTH",
"552 454 OFFCURVE",
"452 567 OFFCURVE",
"297 567 CURVE SMOOTH",
"142 567 OFFCURVE",
"41 453 OFFCURVE",
"41 276 CURVE SMOOTH",
"41 103 OFFCURVE",
"141 -10 OFFCURVE",
"297 -10 CURVE SMOOTH"
);
},
{
closed = 1;
nodes = (
"176 50 OFFCURVE",
"106 133 OFFCURVE",
"106 278 CURVE SMOOTH",
"106 421 OFFCURVE",
"177 507 OFFCURVE",
"297 507 CURVE SMOOTH",
"417 507 OFFCURVE",
"487 424 OFFCURVE",
"487 279 CURVE SMOOTH",
"487 134 OFFCURVE",
"416 50 OFFCURVE",
"296 50 CURVE SMOOTH"
);
}
);
width = 593;
},
{
anchors = (
{
name = "#exit";
position = "{614, 0}";
},
{
name = bottom;
position = "{331, 0}";
},
{
name = center;
position = "{331, 292}";
},
{
name = ogonek;
position = "{596, 10}";
},
{
name = top;
position = "{331, 584}";
},
{
name = topright;
position = "{491, 584}";
}
);
layerId = "E787E54A-EE3E-475A-BF02-8501A6DA5144";
paths = (
{
closed = 1;
nodes = (
"514 -10 OFFCURVE",
"632 111 OFFCURVE",
"632 292 CURVE SMOOTH",
"632 473 OFFCURVE",
"514 594 OFFCURVE",
"331 594 CURVE SMOOTH",
"148 594 OFFCURVE",
"30 473 OFFCURVE",
"30 292 CURVE SMOOTH",
"30 111 OFFCURVE",
"148 -10 OFFCURVE",
"331 -10 CURVE SMOOTH"
);
},
{
closed = 1;
nodes = (
"260 141 OFFCURVE",
"218 195 OFFCURVE",
"218 292 CURVE SMOOTH",
"218 389 OFFCURVE",
"260 443 OFFCURVE",
"331 443 CURVE SMOOTH",
"402 443 OFFCURVE",
"444 389 OFFCURVE",
"444 292 CURVE SMOOTH",
"444 195 OFFCURVE",
"402 141 OFFCURVE",
"331 141 CURVE SMOOTH"
);
}
);
width = 662;
},
{
anchors = (
{
name = "#exit";
position = "{570, 0}";
},
{
name = bottom;
position = "{309, 0}";
},
{
name = center;
position = "{309, 282}";
},
{
name = ogonek;
position = "{556, 10}";
},
{
name = top;
position = "{309, 563}";
},
{
name = topright;
position = "{432, 563}";
}
);
layerId = "47995495-C855-4C5A-BA32-118EA0334940";
paths = (
{
closed = 1;
nodes = (
"472 -10 OFFCURVE",
"577 105 OFFCURVE",
"577 281 CURVE SMOOTH",
"577 457 OFFCURVE",
"472 573 OFFCURVE",
"310 573 CURVE SMOOTH",
"147 573 OFFCURVE",
"41 457 OFFCURVE",
"41 280 CURVE SMOOTH",
"41 106 OFFCURVE",
"146 -10 OFFCURVE",
"310 -10 CURVE SMOOTH"
);
},
{
closed = 1;
nodes = (
"205 78 OFFCURVE",
"144 153 OFFCURVE",
"144 281 CURVE SMOOTH",
"144 408 OFFCURVE",
"205 485 OFFCURVE",
"310 485 CURVE SMOOTH",
"413 485 OFFCURVE",
"474 411 OFFCURVE",
"474 282 CURVE SMOOTH",
"474 154 OFFCURVE",
"413 78 OFFCURVE",
"309 78 CURVE SMOOTH"
);
}
);
width = 618;
}
);
leftKerningGroup = KO_e;
rightKerningGroup = KO_o;
unicode = 006F;
userData = {
KernOnName = o;
};
},
{
color = 3;
glyphname = p;
layers = (
{
anchors = (
{
name = bottom;
position = "{306, 0}";
},
{
name = top;
position = "{306, 557}";
}
);
layerId = "F114AD5B-DC62-4E73-AD12-1938E40AC8EF";
paths = (
{
closed = 1;
nodes = (
"133 -167 LINE",
"133 102 LINE",
"169 32 OFFCURVE",
"240 -10 OFFCURVE",
"330 -10 CURVE SMOOTH",
"477 -10 OFFCURVE",
"571 104 OFFCURVE",
"571 283 CURVE SMOOTH",
"571 457 OFFCURVE",
"480 567 OFFCURVE",
"332 567 CURVE SMOOTH",
"240 567 OFFCURVE",
"167 523 OFFCURVE",
"135 452 CURVE",
"129 557 LINE",
"71 557 LINE",
"71 -167 LINE"
);
},
{
closed = 1;
nodes = (
"133 320 LINE SMOOTH",
"133 431 OFFCURVE",
"212 508 OFFCURVE",
"325 508 CURVE SMOOTH",
"440 508 OFFCURVE",
"506 427 OFFCURVE",
"506 284 CURVE SMOOTH",
"506 134 OFFCURVE",
"440 50 OFFCURVE",
"323 50 CURVE SMOOTH",
"209 50 OFFCURVE",
"133 128 OFFCURVE",
"133 243 CURVE SMOOTH"
);
}
);
width = 612;
},
{
anchors = (
{
name = bottom;
position = "{341, 0}";
},
{
name = top;
position = "{341, 584}";
}
);
layerId = "E787E54A-EE3E-475A-BF02-8501A6DA5144";
paths = (
{
closed = 1;
nodes = (
"244 -167 LINE",
"244 69 LINE",
"276 15 OFFCURVE",
"333 -10 OFFCURVE",
"402 -10 CURVE SMOOTH",
"555 -10 OFFCURVE",
"652 108 OFFCURVE",
"652 294 CURVE SMOOTH",
"652 478 OFFCURVE",
"557 594 OFFCURVE",
"407 594 CURVE SMOOTH",
"334 594 OFFCURVE",
"267 564 OFFCURVE",
"238 508 CURVE",
"229 584 LINE",
"53 584 LINE",
"53 -167 LINE"
);
},
{
closed = 1;
nodes = (
"244 303 LINE SMOOTH",
"244 395 OFFCURVE",
"280 441 OFFCURVE",
"350 441 CURVE SMOOTH",
"420 441 OFFCURVE",
"458 389 OFFCURVE",
"458 292 CURVE SMOOTH",
"458 195 OFFCURVE",
"421 143 OFFCURVE",
"350 143 CURVE SMOOTH",
"280 143 OFFCURVE",
"244 190 OFFCURVE",
"244 282 CURVE SMOOTH"
);
}
);
width = 682;
},
{
anchors = (
{
name = bottom;
position = "{322, 0}";
},
{
name = top;
position = "{322, 563}";
}
);
layerId = "47995495-C855-4C5A-BA32-118EA0334940";
paths = (
{
closed = 1;
nodes = (
"173 -167 LINE",
"173 92 LINE",
"210 24 OFFCURVE",
"278 -10 OFFCURVE",
"358 -10 CURVE SMOOTH",
"506 -10 OFFCURVE",
"602 105 OFFCURVE",
"602 286 CURVE SMOOTH",
"602 462 OFFCURVE",
"509 573 OFFCURVE",
"360 573 CURVE SMOOTH",
"274 573 OFFCURVE",
"204 534 OFFCURVE",
"172 467 CURVE",
"165 563 LINE",
"71 563 LINE",
"71 -167 LINE"
);
},
{
closed = 1;
nodes = (
"173 314 LINE SMOOTH",
"173 418 OFFCURVE",
"239 485 OFFCURVE",
"338 485 CURVE SMOOTH",
"439 485 OFFCURVE",
"497 413 OFFCURVE",
"497 286 CURVE SMOOTH",
"497 153 OFFCURVE",
"440 79 OFFCURVE",
"337 79 CURVE SMOOTH",
"237 79 OFFCURVE",
"173 147 OFFCURVE",
"173 254 CURVE SMOOTH"
);
}
);
width = 643;
}
);
leftKerningGroup = KO_n;
leftMetricsKey = "=n";
rightKerningGroup = KO_p;
rightMetricsKey = "=o";
unicode = 0070;
},
{
glyphname = thorn;
layers = (
{
anchors = (
{
name = bottom;
position = "{275, 0}";
},
{
name = top;
position = "{275, 511}";
}
);
layerId = "F114AD5B-DC62-4E73-AD12-1938E40AC8EF";
paths = (
{
closed = 1;
nodes = (
"133 -167 LINE",
"133 102 LINE",
"164 32 OFFCURVE",
"240 -10 OFFCURVE",
"330 -10 CURVE SMOOTH",
"477 -10 OFFCURVE",
"571 104 OFFCURVE",
"571 283 CURVE SMOOTH",
"571 457 OFFCURVE",
"480 567 OFFCURVE",
"332 567 CURVE SMOOTH",
"240 567 OFFCURVE",
"162 523 OFFCURVE",
"133 452 CURVE",
"133 729 LINE",
"71 729 LINE",
"71 -167 LINE"
);
},
{
closed = 1;
nodes = (
"133 320 LINE SMOOTH",
"133 431 OFFCURVE",
"212 508 OFFCURVE",
"325 508 CURVE SMOOTH",
"440 508 OFFCURVE",
"506 427 OFFCURVE",
"506 284 CURVE SMOOTH",
"506 134 OFFCURVE",
"440 50 OFFCURVE",
"323 50 CURVE SMOOTH",
"209 50 OFFCURVE",
"133 128 OFFCURVE",
"133 243 CURVE SMOOTH"
);
}
);
width = 612;
},
{
anchors = (
{
name = bottom;
position = "{323, 0}";
},
{
name = top;
position = "{323, 538}";
}
);
layerId = "E787E54A-EE3E-475A-BF02-8501A6DA5144";
paths = (
{
closed = 1;
nodes = (
"244 -167 LINE",
"244 59 LINE",
"275 16 OFFCURVE",
"330 -10 OFFCURVE",
"402 -10 CURVE SMOOTH",
"552 -10 OFFCURVE",
"652 104 OFFCURVE",
"652 294 CURVE SMOOTH",
"652 481 OFFCURVE",
"555 594 OFFCURVE",
"407 594 CURVE SMOOTH",
"339 594 OFFCURVE",
"276 568 OFFCURVE",
"244 527 CURVE",
"244 750 LINE",
"53 750 LINE",
"53 -167 LINE"
);
},
{
closed = 1;
nodes = (
"244 303 LINE SMOOTH",
"244 403 OFFCURVE",
"286 441 OFFCURVE",
"350 441 CURVE SMOOTH",
"420 441 OFFCURVE",
"458 389 OFFCURVE",
"458 292 CURVE SMOOTH",
"458 184 OFFCURVE",
"413 143 OFFCURVE",
"350 143 CURVE SMOOTH",
"281 143 OFFCURVE",
"244 188 OFFCURVE",
"244 282 CURVE SMOOTH"
);
}
);
width = 682;
},
{
anchors = (
{
name = bottom;
position = "{295, 0}";
},
{
name = top;
position = "{295, 519}";
}
);
layerId = "47995495-C855-4C5A-BA32-118EA0334940";
paths = (
{
closed = 1;
nodes = (
"174 -167 LINE",
"174 89 LINE",
"204 30 OFFCURVE",
"271 -10 OFFCURVE",
"362 -10 CURVE SMOOTH",
"509 -10 OFFCURVE",
"609 100 OFFCURVE",
"609 287 CURVE SMOOTH",
"609 469 OFFCURVE",
"512 575 OFFCURVE",
"365 575 CURVE SMOOTH",
"282 575 OFFCURVE",
"206 540 OFFCURVE",
"174 476 CURVE",
"174 750 LINE",
"71 750 LINE",
"71 -167 LINE"
);
},
{
closed = 1;
nodes = (
"174 315 LINE SMOOTH",
"174 426 OFFCURVE",
"246 487 OFFCURVE",
"342 487 CURVE SMOOTH",
"442 487 OFFCURVE",
"504 421 OFFCURVE",
"504 287 CURVE SMOOTH",
"504 149 OFFCURVE",
"443 79 OFFCURVE",
"341 79 CURVE SMOOTH",
"244 79 OFFCURVE",
"174 142 OFFCURVE",
"174 255 CURVE SMOOTH"
);
}
);
width = 650;
}
);
leftKerningGroup = KO_l;
leftMetricsKey = "=h";
rightKerningGroup = KO_p;
rightMetricsKey = "=o";
unicode = 00FE;
},
{
color = 3;
glyphname = q;
layers = (
{
anchors = (
{
name = bottom;
position = "{307, 0}";
},
{
name = top;
position = "{307, 557}";
}
);
layerId = "F114AD5B-DC62-4E73-AD12-1938E40AC8EF";
paths = (
{
closed = 1;
nodes = (
"41 104 OFFCURVE",
"135 -10 OFFCURVE",
"282 -10 CURVE SMOOTH",
"374 -10 OFFCURVE",
"442 31 OFFCURVE",
"479 102 CURVE",
"479 -167 LINE",
"541 -167 LINE",
"541 557 LINE",
"483 557 LINE",
"477 452 LINE",
"445 523 OFFCURVE",
"372 567 OFFCURVE",
"280 567 CURVE SMOOTH",
"132 567 OFFCURVE",
"41 457 OFFCURVE",
"41 283 CURVE SMOOTH"
);
},
{
closed = 1;
nodes = (
"106 427 OFFCURVE",
"172 508 OFFCURVE",
"287 508 CURVE SMOOTH",
"400 508 OFFCURVE",
"479 431 OFFCURVE",
"479 320 CURVE SMOOTH",
"479 243 LINE SMOOTH",
"479 128 OFFCURVE",
"403 50 OFFCURVE",
"289 50 CURVE SMOOTH",
"172 50 OFFCURVE",
"106 134 OFFCURVE",
"106 284 CURVE SMOOTH"
);
}
);
width = 613;
},
{
anchors = (
{
name = bottom;
position = "{346, 0}";
},
{
name = top;
position = "{346, 584}";
}
);
layerId = "E787E54A-EE3E-475A-BF02-8501A6DA5144";
paths = (
{
closed = 1;
nodes = (
"30 108 OFFCURVE",
"127 -10 OFFCURVE",
"280 -10 CURVE SMOOTH",
"349 -10 OFFCURVE",
"406 15 OFFCURVE",
"438 69 CURVE",
"438 -167 LINE",
"629 -167 LINE",
"629 584 LINE",
"453 584 LINE",
"444 508 LINE",
"415 564 OFFCURVE",
"348 594 OFFCURVE",
"275 594 CURVE SMOOTH",
"125 594 OFFCURVE",
"30 478 OFFCURVE",
"30 294 CURVE SMOOTH"
);
},
{
closed = 1;
nodes = (
"224 389 OFFCURVE",
"262 441 OFFCURVE",
"332 441 CURVE SMOOTH",
"402 441 OFFCURVE",
"438 395 OFFCURVE",
"438 303 CURVE SMOOTH",
"438 282 LINE SMOOTH",
"438 190 OFFCURVE",
"402 143 OFFCURVE",
"332 143 CURVE SMOOTH",
"261 143 OFFCURVE",
"224 195 OFFCURVE",
"224 292 CURVE SMOOTH"
);
}
);
width = 692;
},
{
anchors = (
{
name = bottom;
position = "{322, 0}";
},
{
name = top;
position = "{322, 563}";
}
);
layerId = "47995495-C855-4C5A-BA32-118EA0334940";
paths = (
{
closed = 1;
nodes = (
"41 106 OFFCURVE",
"136 -10 OFFCURVE",
"285 -10 CURVE SMOOTH",
"371 -10 OFFCURVE",
"433 26 OFFCURVE",
"470 92 CURVE",
"470 -167 LINE",
"572 -167 LINE",
"572 563 LINE",
"477 563 LINE",
"470 467 LINE",
"438 534 OFFCURVE",
"368 573 OFFCURVE",
"282 573 CURVE SMOOTH",
"133 573 OFFCURVE",
"41 461 OFFCURVE",
"41 286 CURVE SMOOTH"
);
},
{
closed = 1;
nodes = (
"146 413 OFFCURVE",
"203 485 OFFCURVE",
"304 485 CURVE SMOOTH",
"404 485 OFFCURVE",
"470 418 OFFCURVE",
"470 314 CURVE SMOOTH",
"470 254 LINE SMOOTH",
"470 147 OFFCURVE",
"406 79 OFFCURVE",
"305 79 CURVE SMOOTH",
"203 79 OFFCURVE",
"146 153 OFFCURVE",
"146 286 CURVE SMOOTH"
);
}
);
width = 644;
}
);
leftKerningGroup = KO_d;
leftMetricsKey = "=o";
rightKerningGroup = KO_q;
unicode = 0071;
},
{
color = 3;
glyphname = r;
layers = (
{
anchors = (
{
name = bottom;
position = "{103, 0}";
},
{
name = top;
position = "{156, 557}";
}
);
layerId = "F114AD5B-DC62-4E73-AD12-1938E40AC8EF";
paths = (
{
closed = 1;
nodes = (
"134 0 LINE",
"134 354 LINE SMOOTH",
"134 443 OFFCURVE",
"188 501 OFFCURVE",
"268 501 CURVE SMOOTH",
"282 501 OFFCURVE",
"297 499 OFFCURVE",
"306 496 CURVE",
"311 496 LINE",
"311 556 LINE",
"301 560 OFFCURVE",
"284 562 OFFCURVE",
"266 562 CURVE SMOOTH",
"204 562 OFFCURVE",
"161 530 OFFCURVE",
"132 471 CURVE",
"126 557 LINE",
"71 557 LINE",
"71 0 LINE"
);
}
);
width = 311;
},
{
anchors = (
{
name = bottom;
position = "{149, 0}";
},
{
name = top;
position = "{226, 584}";
}
);
layerId = "E787E54A-EE3E-475A-BF02-8501A6DA5144";
paths = (
{
closed = 1;
nodes = (
"244 0 LINE",
"244 334 LINE",
"257 387 OFFCURVE",
"302 416 OFFCURVE",
"368 416 CURVE SMOOTH",
"392 416 OFFCURVE",
"409 413 OFFCURVE",
"419 409 CURVE",
"424 409 LINE",
"424 585 LINE",
"411 589 OFFCURVE",
"391 592 OFFCURVE",
"373 592 CURVE SMOOTH",
"310 592 OFFCURVE",
"269 561 OFFCURVE",
"235 484 CURVE",
"228 584 LINE",
"53 584 LINE",
"53 0 LINE"
);
}
);
width = 451;
},
{
anchors = (
{
name = bottom;
position = "{123, 0}";
},
{
name = top;
position = "{176, 563}";
}
);
layerId = "47995495-C855-4C5A-BA32-118EA0334940";
paths = (
{
closed = 1;
nodes = (
"174 0 LINE",
"174 343 LINE",
"181 422 OFFCURVE",
"229 472 OFFCURVE",
"305 472 CURVE SMOOTH",
"318 472 OFFCURVE",
"333 470 OFFCURVE",
"344 466 CURVE",
"351 466 LINE",
"351 563 LINE",
"341 567 OFFCURVE",
"325 569 OFFCURVE",
"305 569 CURVE SMOOTH",
"245 569 OFFCURVE",
"198 537 OFFCURVE",
"169 480 CURVE",
"163 563 LINE",
"71 563 LINE",
"71 0 LINE"
);
}
);
width = 351;
}
);
leftKerningGroup = KO_n;
leftMetricsKey = "=n";
rightKerningGroup = KO_r;
unicode = 0072;
userData = {
KernOnName = r;
};
},
